<?xml version="1.0" encoding="utf-8"?>
<!-- Svg Vector Icons : http://www.onlinewebfonts.com/icon -->
<!DOCTYPE svg PUBLIC "-//W3C//DTD SVG 1.1//EN" "http://www.w3.org/Graphics/SVG/1.1/DTD/svg11.dtd">
<svg version="1.1" xmlns="http://www.w3.org/2000/svg" xmlns:xlink="http://www.w3.org/1999/xlink" x="0px" y="0px" viewBox="0 0 1000 1000" enable-background="new 0 0 1000 1000" xml:space="preserve">
<metadata> Svg Vector Icons : http://www.onlinewebfonts.com/icon </metadata>
<g><path d="M990,323.4c0,169.5-817.3,356.7-879.1,356.7c-34.7,0-74.1-8-74.1-40c0-10.7,12.3-26.1,34-44.8l0,0L13.4,493.4c-7.8-13.8-1.6-31.3,13.1-37.2l9.9-3.9c17.9-7.2,38-6.1,55,2.9l104.1,55.1c40.6-24.1,86.5-49.2,135-74l-203-131.7c-16.1-10.4-15.9-34,0.3-44.2l16.6-10.4c27.6-17.4,61.2-22.5,92.8-14.2l337.6,89.1c105.3-41.8,200.5-70.3,256.8-70.3c15,0,30.1,0.4,44.7,1.4l-102,46l-2.4,34.3l157.4-72.4C967,273,990,289.8,990,323.4z M579.3,616.1l125.9,143.1c7.7,8.7,20.2,11.3,30.7,6.4l16.9-7.8c30.8-14.3,48.9-46.7,44.9-80.4l-15.8-134.8c-1-8.3-9.4-13.6-17.4-10.8L584.7,595C576,598.1,573.1,609.1,579.3,616.1z"/></g>
</svg>