<?xml version="1.0" encoding="utf-8"?>
<!-- Svg Vector Icons : http://www.onlinewebfonts.com/icon -->
<!DOCTYPE svg PUBLIC "-//W3C//DTD SVG 1.1//EN" "http://www.w3.org/Graphics/SVG/1.1/DTD/svg11.dtd">
<svg version="1.1" xmlns="http://www.w3.org/2000/svg" xmlns:xlink="http://www.w3.org/1999/xlink" x="0px" y="0px" viewBox="0 0 1000 1000" enable-background="new 0 0 1000 1000" xml:space="preserve">
<metadata> Svg Vector Icons : http://www.onlinewebfonts.com/icon </metadata>
<g><g transform="translate(0.000000,511.000000) scale(0.100000,-0.100000)"><path d="M4748.2,4992.4c-729.9-92-1406.5-570.4-1748-1236.9c-306.7-597-329.1-1337-59.3-1956.5c216.7-494.7,646-938.4,1116.2-1153l116.5-53.1l-102.2-87.9L3971.3,417l-828-6.1l-828-6.1l-114.5-53.2c-507-237.2-513.2-948.6-8.2-1185.8l122.7-59.3H2943h625.6l8.2-515.2c8.2-451.8,14.3-533.6,51.1-646l42.9-126.8l-419.1-870.9c-259.6-543.8-425.2-911.8-437.5-977.2c-51.1-282.1,116.5-590.8,388.4-713.5c145.1-67.5,384.3-61.3,537.7,12.3c200.4,98.1,257.6,182,625.6,948.6l333.3,691l410.9-4.1l413-2l368-689c204.4-378.2,400.7-723.7,437.5-766.7c36.8-45,122.7-106.3,200.3-145.1c110.4-55.2,157.4-65.4,282.1-67.5c261.7-2,488.6,145.2,596.9,386.4c24.5,55.2,51.1,141.1,59.3,188.1c28.6,175.8-12.3,271.9-478.4,1132.6l-445.7,825.9l36.8,108.3c59.3,171.7,79.7,388.4,79.7,823.9v406.8h517.2h515.2l122.7,57.2c139,67.5,259.6,188.1,325.1,329.1c32.7,71.6,42.9,132.9,42.9,267.8c0,149.2-8.2,188.1-57.2,280.1c-73.6,141-179.9,245.3-318.9,310.7l-114.5,53.2L6964.3,415l-725.8,10.2l-120.6,104.3l-118.6,106.3l110.4,55.2c286.2,145.2,627.6,445.7,817.8,719.6c141.1,202.4,276,494.7,339.4,736c49.1,179.9,55.2,237.1,55.2,558.1c2,394.6-26.6,562.2-153.3,875C6788.5,4532.4,5778.5,5121.2,4748.2,4992.4z M4073.5,3279.2c106.3-47,208.5-165.6,226.9-257.6c57.2-304.6-188.1-554-468.2-478.4c-363.9,96.1-406.8,578.6-65.4,736C3871.1,3326.2,3969.3,3328.3,4073.5,3279.2z M6430.7,3287.4c353.7-149.2,321-646-51.1-744.2c-96.1-26.6-220.8-6.1-302.6,47c-190.1,124.7-233,410.9-85.9,578.6C6109.7,3303.7,6279.4,3348.7,6430.7,3287.4z M4578.5,1889c26.6-10.2,77.7-45,114.5-79.7c94.1-83.8,222.9-116.5,464.1-114.5c237.2,0,325.1,24.5,441.6,122.7c210.6,175.8,478.4-18.4,355.7-257.6c-42.9-81.8-194.2-194.2-333.2-245.3c-265.8-100.2-713.5-98.1-969.1,2c-208.5,81.8-363.9,237.2-363.9,363.9c0,87.9,30.7,139,108.3,186C4470.1,1911.5,4509,1915.6,4578.5,1889z M4901.5-1835.9c0-22.5,26.6-69.5,59.3-102.2c114.5-114.5,323-61.3,361.9,92l12.3,53.2h439.6H6214l-14.3-65.4c-83.8-386.4-365.9-684.9-740.1-783c-153.3-40.9-533.6-40.9-686.9,0c-335.3,87.9-611.3,345.5-711.4,666.5c-20.4,67.5-38.9,137-38.9,153.3c0,24.5,75.6,28.6,439.5,28.6C4893.3-1792.9,4901.5-1792.9,4901.5-1835.9z"/></g></g>
</svg>