<?xml version="1.0" encoding="utf-8"?>
<!-- Svg Vector Icons : http://www.onlinewebfonts.com/icon -->
<!DOCTYPE svg PUBLIC "-//W3C//DTD SVG 1.1//EN" "http://www.w3.org/Graphics/SVG/1.1/DTD/svg11.dtd">
<svg version="1.1" xmlns="http://www.w3.org/2000/svg" xmlns:xlink="http://www.w3.org/1999/xlink" x="0px" y="0px" viewBox="0 0 1000 1000" enable-background="new 0 0 1000 1000" xml:space="preserve">
<metadata> Svg Vector Icons : http://www.onlinewebfonts.com/icon </metadata>
<g><g transform="translate(0.000000,512.000000) scale(0.100000,-0.100000)"><path d="M2738.6,4992.4c-130.2-46-243.2-139.8-296.8-245.1c-153.2-304.5,65.1-766,649.2-1365.5l189.6-197.3h1717.9h1717.8l189.6,197.3c461.6,473,697.1,863.7,697.1,1152.9c0,147.5-46,247-158.9,346.6c-130.2,114.9-258.5,149.4-490.3,136c-291.1-17.2-513.3-93.8-1229.5-421.3c-699-319.8-752.6-319.8-1451.7,0c-739.2,339-942.2,406-1246.7,419.4C2870.7,5021.1,2805.6,5017.3,2738.6,4992.4z"/><path d="M3313.1,2835.9c-107.2-74.7-143.6-139.8-143.6-260.4c0-134.1,53.6-220.2,170.4-273.9c74.7-34.5,159-36.4,1658.5-36.4c1499.5,0,1583.8,1.9,1658.5,36.4c116.8,53.6,170.4,139.8,170.4,273.9c0,120.6-36.4,185.8-143.6,260.4l-63.2,42.1H4998.4H3376.3L3313.1,2835.9z"/><path d="M3117.8,1832.4c-227.9-183.9-609-572.6-829.2-850.3c-1133.8-1421-1794.5-3416.5-1511-4548.4c46-185.8,183.9-446.2,302.6-578.4c352.4-386.9,938.4-568.8,1984.1-616.7c534.3-24.9,3334.2-24.9,3868.5,0c1265.9,57.4,1882.6,314.1,2171.7,905.9c97.7,199.2,134.1,327.5,166.6,586c122.6,1001.6-429,2662-1292.7,3895.4c-316,450-760.3,936.5-1103.1,1204.6l-160.9,128.3H4996.5H3278.6L3117.8,1832.4z"/></g></g>
</svg>