<?xml version="1.0" encoding="utf-8"?>
<!-- Svg Vector Icons : http://www.onlinewebfonts.com/icon -->
<!DOCTYPE svg PUBLIC "-//W3C//DTD SVG 1.1//EN" "http://www.w3.org/Graphics/SVG/1.1/DTD/svg11.dtd">
<svg version="1.1" xmlns="http://www.w3.org/2000/svg" xmlns:xlink="http://www.w3.org/1999/xlink" x="0px" y="0px" viewBox="0 0 1000 1000" enable-background="new 0 0 1000 1000" xml:space="preserve">
<metadata> Svg Vector Icons : http://www.onlinewebfonts.com/icon </metadata>
<g><path d="M987.6,261.6c-3.2-10-13-34.9-33.7-51.9c-10.5-8.6-23.7-15.4-34.8-20.3c-9.2-12.3-49.9-61.1-116.3-61.1c-10.4,0-21.1,1.2-31.6,3.7c-81.3,18.8-105.9,69.1-113.9,85.7c-0.4,0.8-0.7,1.6-1.1,2.1c-5.1,9.4-11.6,28.5-16.1,42.2c-19.4,14.8-66.4,51.9-120.8,103.7c-63.2,60.2-199.8,210.4-228,241.5l-238,106.4c-17.9,8-31.5,22.4-38.5,40.7c-7,18.3-6.4,38.2,1.6,56c11.8,26.3,38,43.2,66.8,43.2c11.4,0,22.9-2.7,33.1-7.9l217.3-110.4c26.9,0.3,110.4,1.3,142.8,3.9c13.4,1.1,25,2,34.6,2.7c0.9,3.6,2,7.3,3.4,10.9l0.4,1c8.3,21.1,28.4,34.7,51.3,34.7c1,0,2.1-0.1,3.1-0.2l30.8,19.6c-9,6.3-14.9,16.8-14.9,28.6c0,19.3,15.6,34.9,34.9,34.9h38.7c11.3,0,21.5-3.5,29.7-9.9c13.3,5.5,29,9.9,45.3,9.9h77.7c19.3,0,34.9-15.6,34.9-34.9s-15.6-34.9-34.9-34.9h-77.7c-13.9,0-33.6-11.6-40.8-17.1c-0.9-0.7-1.8-1.3-2.7-1.9l-67.2-42.8c0.4-1.6,0.8-2.8,1.1-3.6c42.8-4.9,159-26.7,226.2-120.3c71.1-99,63.5-185.2,60.6-217.7c-0.2-2.8-0.5-6.2-0.6-7.3c0-9.3,2.5-32,4.9-51.2c6.8-1.8,15.3-5,24.6-10.5c9.3-5.6,17.3-13.6,23.5-21.1c15.4-3.6,26.8-17.4,26.8-33.9C990,269.8,989.1,265.6,987.6,261.6z M807.1,289.5c-28.4,0-51.5-23.1-51.5-51.5s23.1-51.5,51.5-51.5c28.4,0,51.5,23.1,51.5,51.5S835.5,289.5,807.1,289.5z"/><g></g><g></g><g></g><g></g><g></g><g></g><g></g><g></g><g></g><g></g><g></g><g></g><g></g><g></g><g></g></g>
</svg>