<?xml version="1.0" encoding="utf-8"?>
<!-- Svg Vector Icons : http://www.onlinewebfonts.com/icon -->
<!DOCTYPE svg PUBLIC "-//W3C//DTD SVG 1.1//EN" "http://www.w3.org/Graphics/SVG/1.1/DTD/svg11.dtd">
<svg version="1.1" xmlns="http://www.w3.org/2000/svg" xmlns:xlink="http://www.w3.org/1999/xlink" x="0px" y="0px" viewBox="0 0 1000 1000" enable-background="new 0 0 1000 1000" xml:space="preserve">
<metadata> Svg Vector Icons : http://www.onlinewebfonts.com/icon </metadata>
<g><path d="M892.5,333.3v-289H110.3v288.6l-97.5,71.8v476L293,627.8L160.2,519.1V94.2h682.4v425.7L709.8,629.1L990,881.6V405.2L892.5,333.3z M110.3,479.2l-29-23.6l29-21.3V479.2z M892.5,479.8v-45.6l29.3,21.6L892.5,479.8z"/><path d="M983.6,954.9l-69.8-63.1c-0.2-0.2-0.5-0.4-0.7-0.7L767.8,759.9c-38.8-35.1-102.3-92.5-141-127.7l-59.3-53.8c-38.7-35.1-102.4-35.4-141.5-0.7l-20,17.8c-39.1,34.8-80.2,71.5-91.3,81.7c-11.1,10.2-51.9,47.3-90.5,82.6L80.3,890.8c-0.4,0.4-0.8,0.8-1.2,1.1l-69,62.9h0.5c0.2,0,0.3,0.2,0,0.4l-0.5,0.4h92.7c0.8,0,1.6,0,2.4,0h783.4c0.8,0,1.6,0,2.4,0h92.7l-0.5-0.4c-0.3-0.2-0.3-0.4,0-0.4L983.6,954.9L983.6,954.9z"/><path d="M497.1,443.8c87.3-85.2,160.8-144.8,129.1-207.2c-26.8-53-108.4-48.9-129.1-2.7c-20.8-46.2-102.3-50.3-129.1,2.7C336.3,299.1,409.7,358.6,497.1,443.8z"/></g>
</svg>