<?xml version="1.0" encoding="utf-8"?>
<!-- Svg Vector Icons : http://www.onlinewebfonts.com/icon -->
<!DOCTYPE svg PUBLIC "-//W3C//DTD SVG 1.1//EN" "http://www.w3.org/Graphics/SVG/1.1/DTD/svg11.dtd">
<svg version="1.1" xmlns="http://www.w3.org/2000/svg" xmlns:xlink="http://www.w3.org/1999/xlink" x="0px" y="0px" viewBox="0 0 1000 1000" enable-background="new 0 0 1000 1000" xml:space="preserve">
<metadata> Svg Vector Icons : http://www.onlinewebfonts.com/icon </metadata>
<g><g transform="translate(0.000000,511.000000) scale(0.100000,-0.100000)"><path d="M1844.2,4941c-51.8-21.1-164.8-162.9-341.2-431.3C742.1,3352.1,310.8,2016.1,163.3,369.7c-42.2-450.4-74.7-1389.6-59.4-1667.5c38.3-722.6,266.4-1316.8,711.1-1851.5C1738.8-4259,3519.4-4851.3,5528-4719.1c1487.3,99.7,2673.8,567.3,3469.2,1368.5c256.8,258.8,433.2,502.2,584.6,806.9c285.6,573.1,345,960.2,308.6,2001c-46,1314.8-170.6,2158.2-456.2,3087.8c-155.2,506-463.8,1199.8-734.1,1648.3c-151.4,253-360.3,561.6-446.6,661.3c-59.4,67.1-76.7,76.7-149.5,76.7c-76.7,0-118.8-23-496.4-285.6C6741.3,4044,6381,3739.2,6122.2,3386.6c-113.1-153.3-230-391-260.7-527.1l-24.9-107.3l-78.6,9.6c-287.5,40.3-787.8,53.7-1140.4,32.6c-205.1-11.5-392.9-26.8-415.9-32.6c-34.5-7.7-44.1,0-53.7,46c-40.3,174.4-130.3,369.9-260.7,565.4c-97.7,147.6-523.2,573.1-745.6,751.3c-90.1,70.9-318.2,239.6-507.9,373.8C1961.1,4977.4,1951.5,4983.1,1844.2,4941z M2271.6,4258.6c490.7-345,724.5-530.9,977.5-783.9c352.7-352.7,467.7-544.3,515.6-862.5c42.2-291.3,51.8-295.2,559.7-249.2c427.4,38.3,1115.5,30.7,1491.2-17.2c314.3-40.3,385.2,0,414,241.5c19.2,172.5,34.5,224.2,109.3,371.8c113.1,222.3,339.2,473.4,674.7,747.5c239.6,195.5,1027.3,751.3,1040.8,734.1c44.1-49.8,266.4-402.5,368-582.7c481.1-845.3,791.6-1807.4,946.8-2922.9c80.5-584.6,105.4-990.9,105.4-1763.3c1.9-651.7-1.9-757.1-34.5-900.8c-157.2-714.9-578.8-1305.3-1257.3-1761.4c-603.7-404.4-1297.6-647.8-2225.3-778.2c-293.3-42.2-1291.8-61.3-1623.4-30.7C3009.5-4176.6,1976.4-3755,1282.6-3049.6c-358.4,362.3-576.9,753.3-705.3,1263.1c-51.8,201.3-51.8,201.3-51.8,929.6c1.9,737.9,17.2,1044.6,86.3,1619.6c139.9,1159.6,450.4,2167.8,941.1,3041.8c189.8,339.2,400.6,661.3,429.3,649.8C1993.7,4450.3,2124,4362.1,2271.6,4258.6z"/><path d="M3024.8,737.7c-335.4-124.6-500.2-467.7-391-803.1c47.9-141.8,228.1-322,373.8-369.9c224.3-76.7,465.7-32.6,632.5,118.8c120.7,109.2,184,214.6,208.9,356.5c47.9,268.3-88.2,534.7-346.9,667C3398.6,760.7,3132.2,778,3024.8,737.7z M3394.8,285.4c78.6-88.2,74.7-195.5-11.5-281.8c-55.6-55.6-78.6-65.2-155.2-65.2s-99.7,9.6-155.3,65.2c-80.5,80.5-90.1,185.9-24.9,268.3c55.6,70.9,105.4,90.1,208.9,80.5C3321.9,346.7,3354.5,331.4,3394.8,285.4z"/><path d="M6511.3,733.9C6074.3,569,5953.5,1.7,6289-301.1c126.5-116.9,266.4-170.6,438.9-170.6c128.4,0,164.8,9.6,274.1,63.3c136.1,67.1,233.8,164.8,302.8,306.7c36.4,70.9,44.1,120.8,44.1,251.1c0,139.9-7.7,176.3-53.7,264.5C7230,538.4,7117,649.6,6998.1,709C6887,762.6,6624.4,778,6511.3,733.9z M6842.9,327.5c84.3-49.8,122.7-147.6,95.8-239.6c-59.4-193.6-360.3-199.3-423.6-7.7C6451.9,272,6664.6,433,6842.9,327.5z"/><path d="M3739.8-703.6c-70.9-59.4-92-138-57.5-216.6c13.4-32.6,220.4-279.8,461.9-550.1l435.1-490.7v-575c0-615.2,7.7-668.9,97.7-734.1c72.8-49.8,178.2-40.2,251.1,24.9l63.2,55.6l5.7,580.7l5.7,578.8l368,442.7C5930.5-916.4,5921-929.8,5921-864.6c0,70.9-46,162.9-93.9,189.8c-24.9,11.5-387.2,19.2-1035,19.2h-994.7L3739.8-703.6z M5269.3-1065.9c0-7.6-368-452.3-438.9-534.7c-7.7-7.7-95.8,78.6-195.5,191.7c-97.7,115-208.9,239.6-245.3,279.8l-63.2,70.9h471.5C5056.5-1058.2,5269.3-1062,5269.3-1065.9z"/><path d="M1501.1-912.5c-130.3-57.5-164.8-212.7-69-318.2c51.8-57.5,61.3-59.4,1190.2-272.2l1138.5-214.7l69,38.3c92,47.9,136.1,162.9,95.8,247.3c-15.3,28.8-47.9,69-74.7,88.2c-34.5,24.9-371.8,95.8-1130.8,237.7C2124-993,1619.9-899.1,1598.9-893.4C1577.8-889.5,1533.7-899.1,1501.1-912.5z"/><path d="M7214.7-1041c-431.3-82.4-931.5-176.3-1111.7-210.8c-287.5-53.7-331.6-67.1-377.6-115c-107.3-105.4-55.6-299,88.2-335.4c30.7-7.7,479.2,69,1176.8,201.3c1117.4,210.8,1125.1,212.8,1178.8,270.3c61.3,67.1,70.9,176.3,21.1,247.2c-28.8,40.3-138,101.6-174.4,95.8C8008.2-889.5,7647.9-956.6,7214.7-1041z"/><path d="M1501.1-1748.2c-67.1-26.8-122.7-113.1-122.7-191.7c0-92,57.5-164.8,149.5-191.7c38.3-11.5,555.8-111.2,1150-222.3L3757-2555.1l70.9,34.5c97.7,47.9,138,159.1,92,254.9c-17.2,38.3-47.9,78.6-70.9,92c-32.6,21.1-2232.9,446.6-2288.5,442.7C1550.9-1731,1522.2-1738.6,1501.1-1748.2z"/><path d="M6879.3-1941.8c-1086.8-207-1102.1-210.8-1153.8-266.4c-42.2-44.1-53.7-76.7-53.7-139.9c0-65.2,11.5-93.9,53.7-132.3c28.8-26.8,69-53.7,90.1-61.3c42.2-11.5,2250.2,398.7,2309.6,429.3c161,86.3,105.4,352.7-76.7,373.8C8010.1-1734.8,7502.2-1823,6879.3-1941.8z"/></g></g>
</svg>