<?xml version="1.0" encoding="utf-8"?>
<!-- Svg Vector Icons : http://www.onlinewebfonts.com/icon -->
<!DOCTYPE svg PUBLIC "-//W3C//DTD SVG 1.1//EN" "http://www.w3.org/Graphics/SVG/1.1/DTD/svg11.dtd">
<svg version="1.1" xmlns="http://www.w3.org/2000/svg" xmlns:xlink="http://www.w3.org/1999/xlink" x="0px" y="0px" viewBox="0 0 1000 1000" enable-background="new 0 0 1000 1000" xml:space="preserve">
<metadata> Svg Vector Icons : http://www.onlinewebfonts.com/icon </metadata>
<g><g><path d="M845.4,336.5C818,262.9,746,211.8,665.2,211.8c-28.1,0-55.3,6-80.3,17.5c-45-58-114.8-92.8-190.1-92.8c-120.5,0-221.1,89.2-237.5,204.6C71.4,364.7,10,442.5,10,533.6c0,101.9,77.3,186.2,176.8,198.3c28.5,77.7,103.8,131.5,189.4,131.5c57.2,0,110.9-24.1,148.6-64.9c30.1,21.6,66.5,33.5,104.6,33.5c79.9,0,147.8-51.1,170.9-123.6C904.9,708.1,990,623.6,990,519.7C990,431.5,929.4,356.8,845.4,336.5z M777,629.6l-41.4-8l-4,42c-4.9,52.4-48.9,91.9-102.3,91.9c-31.4,0-60.7-14-80.4-38.3L513.3,673l-27.5,49.7c-22,39.6-64,64.3-109.7,64.3c-59.7,0-111.2-41.8-122.6-99.5l-6.1-30.8H216l-4.6,0.2c-68.9,0-125-55.3-125-123.3c0-62.9,47.6-115.5,110.8-122.4l33.8-3.7l0.2-34C232,284.9,305.3,213,394.7,213c60.6,0,115.9,32.9,144.4,85.9l21,39.1l35.6-26.6c20.2-15.1,44.2-23.1,69.4-23.1c54.1,0,101.6,37.8,113,89.9l5.9,27.1l27.6,2.8c58,5.9,101.8,53.9,101.9,111.6C913.5,588.9,848.5,643.3,777,629.6z"/></g><g></g><g></g><g></g><g></g><g></g><g></g><g></g><g></g><g></g><g></g><g></g><g></g><g></g><g></g><g></g></g>
</svg>