<?xml version="1.0" encoding="utf-8"?>
<!-- Svg Vector Icons : http://www.onlinewebfonts.com/icon -->
<!DOCTYPE svg PUBLIC "-//W3C//DTD SVG 1.1//EN" "http://www.w3.org/Graphics/SVG/1.1/DTD/svg11.dtd">
<svg version="1.1" xmlns="http://www.w3.org/2000/svg" xmlns:xlink="http://www.w3.org/1999/xlink" x="0px" y="0px" viewBox="0 0 1000 1000" enable-background="new 0 0 1000 1000" xml:space="preserve">
<metadata> Svg Vector Icons : http://www.onlinewebfonts.com/icon </metadata>
<g><g transform="translate(0.000000,511.000000) scale(0.100000,-0.100000)"><path d="M3583.5,4846c-450.2-95.8-825.7-379.3-1032.7-775.9c-137.9-264.4-164.8-387-164.8-747.2c0-281.6,5.7-337.2,53.6-517.3c113-440.6,327.6-869.8,639.9-1281.7c34.5-46,61.3-88.1,57.5-92c-3.8-1.9-70.9,15.3-149.4,42.2c-800.8,274-1594,262.5-2124.7-30.7c-178.2-99.6-457.9-375.5-561.3-553.7C-100.7,196.2,117.7-706.2,792-1143c61.3-40.2,120.7-74.7,132.2-78.6c15.3-5.7,9.6-30.6-17.3-74.7c-109.2-185.8-178.2-454.1-178.2-708.9c0-224.2,24.9-365.9,97.7-555.6c245.2-636.1,912-1038.4,1584.4-956c578.6,72.8,1210.8,480.9,1714.7,1111.2c160.9,199.3,425.3,592,578.6,858.3c136,233.7,137.9,229.9,105.4-159c-28.7-356.3-111.1-835.3-239.5-1408.2c-59.4-258.6-124.5-549.9-145.6-649.5l-40.2-178.2l360.2-362.1c199.2-199.3,365.9-354.4,373.6-346.8c21.1,24.9,93.9,741.4,134.1,1325.8c24.9,377.4,34.5,1486.7,11.5,1705.1l-13.4,143.7l42.2-72.8c116.9-195.4,427.2-655.2,553.7-818.1c605.4-779.8,1410.1-1226.2,2071.1-1151.4c569,65.1,1040.3,419.6,1251.1,936.9c155.2,383.2,136,866-51.7,1237.7c-30.6,61.3-53.6,113-49.8,115c3.8,3.8,57.5,36.4,120.7,74.7c697.4,417.7,923.4,1362.2,496.2,2067.2c-92,151.4-293.1,364-436.8,459.8c-530.7,362.1-1362.2,400.4-2232,101.5c-78.5-26.8-145.6-46-147.5-42.2c-3.8,3.8,36.4,65.1,90,139.9c344.9,469.4,567.1,963.7,641.8,1415.8c42.1,260.6,28.7,618.8-30.7,804.7c-132.2,415.7-419.6,752.9-795.1,931.1c-205,97.7-342.9,132.2-584.3,145.6c-411.9,21.1-781.7-109.2-1088.2-387l-101.6-92l-70.9,67.1c-176.3,166.7-339.1,260.6-582.4,342.9c-153.3,51.7-210.7,61.3-408.1,67.1C3790.4,4870.9,3663.9,4863.3,3583.5,4846z"/></g></g>
</svg>