<?xml version="1.0" encoding="utf-8"?>
<!-- Svg Vector Icons : http://www.onlinewebfonts.com/icon -->
<!DOCTYPE svg PUBLIC "-//W3C//DTD SVG 1.1//EN" "http://www.w3.org/Graphics/SVG/1.1/DTD/svg11.dtd">
<svg version="1.1" xmlns="http://www.w3.org/2000/svg" xmlns:xlink="http://www.w3.org/1999/xlink" x="0px" y="0px" viewBox="0 0 1000 1000" enable-background="new 0 0 1000 1000" xml:space="preserve">
<metadata> Svg Vector Icons : http://www.onlinewebfonts.com/icon </metadata>
<g><g transform="translate(0.000000,511.000000) scale(0.100000,-0.100000)"><path d="M4262.9,2952.5c-314.9-33.3-921.7-158.7-1216.1-248.3c-752.7-233-1559.2-617-2227.4-1062.5c-105-71.7-197.1-130.6-202.3-135.7c-5.1-5.1,41-81.9,102.4-171.5l110.1-161.3l332.8,212.5c366.1,233,947.3,537.6,1308.3,688.7c1694.9,698.9,3417.9,675.9,5184.5-71.7c430.1-181.8,1131.6-558.1,1487.5-796.2l64-43.5l110.1,169c58.9,94.7,102.4,174.1,97.3,181.8c-43.6,41-747.6,445.5-1011.3,578.6c-824.4,419.9-1679.6,701.5-2488.6,827C5589.2,2967.9,4595.8,2988.3,4262.9,2952.5z"/><path d="M4301.3,1687.7C3085.2,1516.2,1928,981.1,781,51.8c-181.8-146-412.2-340.5-506.9-430.1L100-539.7L466.1-829c1298-1026.6,2539.7-1636,3758.4-1848.5c460.8-79.4,1136.7-97.3,1587.3-38.4c1213.6,153.6,2370.8,698.9,3492.2,1643.7c481.3,404.5,614.5,532.5,594,565.8c-38.4,64-683.6,611.9-980.5,834.6c-1026.6,770.6-2119.9,1234-3233.6,1372.3C5389.4,1736.4,4600.9,1728.7,4301.3,1687.7z M3366.9,927.4c-197.1-215.1-391.7-581.2-476.2-903.8c-76.8-289.3-76.8-788.6,0-1075.3c92.2-340.5,268.8-675.9,483.9-914c48.7-53.8,74.3-97.3,58.9-97.3c-69.1,0-658,250.9-1001.1,425c-442.9,225.3-911.5,519.7-1377.4,865.3C775.9-565.3,719.6-514.1,747.7-488.5c17.9,17.9,166.4,138.2,327.7,268.8c522.3,417.3,1129.1,796.2,1646.2,1029.2c217.6,97.3,745,297,793.7,299.5C3528.2,1111.7,3461.6,1029.8,3366.9,927.4z M6787.3,1034.9C7593.8,755.8,8431,254,9242.6-444.9l89.6-76.8l-125.5-110.1C8625.6-1149,7834.5-1661,7220-1919.6c-222.7-94.8-722-271.4-765.5-271.4c-5.1,0,58.9,71.7,140.8,161.3c271.4,284.2,448,596.6,550.4,978c76.8,286.7,76.8,786,2.6,1075.3c-84.5,314.9-286.8,696.4-483.9,908.9c-92.2,97.3-151.1,179.2-135.7,179.2C6546.7,1111.7,6661.9,1075.8,6787.3,1034.9z M5294.7,39c463.4-235.6,437.8-921.7-46.1-1124c-112.6-46.1-348.2-46.1-460.8,0c-386.6,161.3-504.4,655.4-235.5,967.8C4741.7,105.5,5038.7,169.5,5294.7,39z"/></g></g>
</svg>