<?xml version="1.0" encoding="utf-8"?>
<!-- Svg Vector Icons : http://www.onlinewebfonts.com/icon -->
<!DOCTYPE svg PUBLIC "-//W3C//DTD SVG 1.1//EN" "http://www.w3.org/Graphics/SVG/1.1/DTD/svg11.dtd">
<svg version="1.1" xmlns="http://www.w3.org/2000/svg" xmlns:xlink="http://www.w3.org/1999/xlink" x="0px" y="0px" viewBox="0 0 1000 1000" enable-background="new 0 0 1000 1000" xml:space="preserve">
<metadata> Svg Vector Icons : http://www.onlinewebfonts.com/icon </metadata>
<g><g transform="translate(0.000000,511.000000) scale(0.100000,-0.100000)"><path d="M4347.5,2915.1c5.8-19.2,23-92,38.3-163c44.1-189.8,178.3-592.5,262.7-789.9c42.2-93.9,72.9-172.6,69-176.4c-1.9-1.9-97.8-32.6-214.7-65.2c-743.9-220.5-1555-607.8-2183.8-1041.1l-153.4-105.4L2062,679.6c-322.1,325.9-966.3,686.4-1731.3,966.3c-117,42.2-218.6,74.8-226.2,70.9c-24.9-7.7,122.7-364.3,266.5-651.9c172.6-345.1,379.6-646.1,588.6-855.1l180.2-178.3l-128.5-138c-258.8-278-496.6-627-697.9-1027.7c-117-233.9-232-519.6-210.9-519.6c9.6,0,111.2,32.6,224.3,74.8c724.7,258.8,1388.1,627,1727.5,956.7l101.6,99.7l157.2-113.1c460.2-333.6,1094.8-661.5,1710.2-883.9c126.5-46,232-84.4,235.8-86.3c1.9-1.9-26.8-70.9-65.2-153.4c-130.4-281.8-335.5-933.7-304.9-964.4c13.4-13.4,383.5,145.7,682.6,295.3c281.8,140,513.8,274.2,751.6,433.3L5494-1882l168.7-21.1c297.2-34.5,742-44.1,1004.7-21.1c218.6,21.1,661.5,90.1,678.7,105.5c1.9,3.8-55.6,86.3-128.5,186c-233.9,310.6-418,738.2-494.6,1154.2c-46,247.3-46,801.4,1.9,1039.2c90.1,460.2,297.2,916.5,554.1,1223.3c55.6,69,70.9,97.8,53.7,109.3c-74.7,46-690.2,113.1-1039.2,115h-222.4l-84.4,65.2c-337.4,256.9-891.6,567.5-1405.4,786.1C4353.2,2957.3,4332.1,2963.1,4347.5,2915.1z"/><path d="M7599.2,1688.1c-661.5-724.7-801.4-1903.9-335.5-2826.1c76.7-147.6,222.4-358.5,331.7-479.3l94-101.6l151.4,53.7c373.9,130.4,880.1,418,1234.8,701.7c398.8,318.3,824.4,834,824.4,997c0,132.3-239.7,475.5-534.9,766.9c-414.1,410.3-895.4,715.2-1468.7,929.9c-99.7,36.4-184.1,67.1-189.8,67.1C7702.8,1797.4,7654.8,1747.5,7599.2,1688.1z M8333.6,620.1c197.5-82.5,245.4-339.4,92-492.8c-124.6-124.6-301-124.6-425.6,0C7762.2,363.2,8024.9,750.5,8333.6,620.1z"/></g></g>
</svg>