<?xml version="1.0" encoding="utf-8"?>
<!-- Svg Vector Icons : http://www.onlinewebfonts.com/icon -->
<!DOCTYPE svg PUBLIC "-//W3C//DTD SVG 1.1//EN" "http://www.w3.org/Graphics/SVG/1.1/DTD/svg11.dtd">
<svg version="1.1" xmlns="http://www.w3.org/2000/svg" xmlns:xlink="http://www.w3.org/1999/xlink" x="0px" y="0px" viewBox="0 0 1000 1000" enable-background="new 0 0 1000 1000" xml:space="preserve">
<metadata> Svg Vector Icons : http://www.onlinewebfonts.com/icon </metadata>
<g><path d="M624.7,231c-0.5,0.7-1,1.3-1.5,2c-14.5-5.8-28.8-12.1-43.5-17.2c-62.4-21.6-126.1-33.9-192.3-24.3c-51.6,7.5-96.6,28.6-129.9,70c-38.3,47.7-59.9,103.1-66.6,163.1c-5.6,49.5-5.4,99.8-7.1,149.7c-2,61.9-12.8,121.7-40.2,177.8c-6.6,13.7-12.9,27.8-16.9,42.4c-13.7,50.1-10.7,98.2,24,139.8c26.2,31.3,63.1,44.3,101.5,52.5c33,7.1,65.4,3.2,92-18.4c48.7-39.6,77.3-91.2,74.3-154.7c-1.6-34.7-13.2-68.9-18.9-103.5c-3.6-21.7-8.2-44.2-5.8-65.6c7.6-67.5,44.9-114.6,108.4-138.6c30.1-11.4,61.9-18.3,93-26.8c45.1-12.4,82.7-34.5,105.6-77.3c24.1-44.9,24.5-91.9-18.8-130C664.4,256.4,643.9,244.5,624.7,231z M870.5,163c2.1-8.4,7.7-24.2,9.7-40.5c6.1-49-28.8-77.8-75.7-63.6c-47.2,14.2-91.1,75.9-89.1,125.3c1.8,44.9,32.3,67.4,75.3,54C825.9,227.2,849,201.6,870.5,163z M705.6,106.7c1.6-7.7,6.4-21.7,6.9-35.8c1.2-34-25.1-52.5-56.5-41.5c-35.5,12.5-63.4,58.8-57.7,95.6c4.1,26.6,26,40.6,51.8,32.9C674.2,150.8,689.8,133.6,705.6,106.7z M501.8,48.7c-7.8,15.7-11.7,32-7.3,49.4c5.4,21.6,24.1,30.7,44.5,22.1c29.4-12.4,50-52.8,42.8-83.8c-5.3-22.7-24.4-32.3-45.8-22.6C520.2,20.9,509.5,33.4,501.8,48.7z M420.2,49.9c-7.1,14.5-9.7,29.6-5.3,45.4c6.5,23.8,29,30.3,47,13.5c12.2-11.4,18-26.1,19.1-42.6c1.4-20.7-7.3-36.9-21.6-40.9C445.6,21.3,429.6,31.4,420.2,49.9z M345.1,87.3c-1,11.4-3.6,21.8-2.4,31.8c1.9,15.3,14.8,21.6,29.2,16.1c19-7.2,33.1-33.7,28.5-53.5c-3.5-14.8-16.3-22.1-29.8-15C361.4,71.7,354.1,79.9,345.1,87.3z"/><path d="M624.7,231c19.2,13.5,39.8,25.4,57.3,40.8c43.2,38,42.8,85.1,18.8,130c-22.9,42.8-60.5,64.9-105.6,77.3c-31.1,8.5-62.9,15.4-93,26.8c-63.4,24-100.8,71-108.4,138.6c-2.4,21.4,2.2,44,5.8,65.6c5.7,34.6,17.3,68.8,18.9,103.5c3,63.5-25.6,115.1-74.3,154.7c-26.6,21.6-59,25.5-92,18.4c-38.4-8.3-75.3-21.2-101.5-52.5c-34.7-41.6-37.7-89.7-24-139.8c4-14.6,10.3-28.7,16.9-42.4c27.4-56.2,38.2-115.9,40.2-177.8c1.6-49.9,1.5-100.2,7.1-149.7c6.7-59.9,28.3-115.4,66.6-163.1c33.3-41.5,78.3-62.5,129.9-70c66.2-9.6,129.9,2.8,192.3,24.3c14.7,5.1,29,11.4,43.5,17.2C623.7,232.3,624.2,231.6,624.7,231z"/><path d="M870.5,163c-21.5,38.5-44.6,64.2-79.8,75.2c-43,13.4-73.5-9.1-75.3-54c-2-49.4,41.9-111.1,89.1-125.3c47-14.1,81.8,14.7,75.7,63.6C878.2,138.8,872.6,154.6,870.5,163z"/><path d="M705.6,106.7c-15.7,26.9-31.3,44-55.4,51.2c-25.9,7.7-47.7-6.3-51.8-32.9c-5.7-36.8,22.2-83.1,57.7-95.6c31.4-11.1,57.7,7.5,56.5,41.5C712,85,707.2,99,705.6,106.7z"/><path d="M501.8,48.7c7.7-15.3,18.4-27.8,34.3-35c21.4-9.6,40.5-0.1,45.8,22.6c7.2,31-13.4,71.4-42.8,83.8c-20.5,8.6-39.1-0.5-44.5-22.1C490.1,80.7,494,64.4,501.8,48.7z"/><path d="M420.2,49.9c9.4-18.5,25.4-28.6,39.2-24.7c14.3,4,23,20.3,21.6,40.9c-1.1,16.5-6.9,31.2-19.1,42.6c-18,16.8-40.5,10.3-47-13.5C410.5,79.5,413.1,64.4,420.2,49.9z"/><path d="M345.1,87.3c9-7.4,16.3-15.7,25.5-20.5c13.5-7.1,26.3,0.2,29.8,15c4.7,19.8-9.5,46.3-28.5,53.5c-14.4,5.4-27.3-0.9-29.2-16.1C341.5,109.2,344.1,98.8,345.1,87.3z"/></g>
</svg>