<?xml version="1.0" encoding="utf-8"?>
<!-- Svg Vector Icons : http://www.onlinewebfonts.com/icon -->
<!DOCTYPE svg PUBLIC "-//W3C//DTD SVG 1.1//EN" "http://www.w3.org/Graphics/SVG/1.1/DTD/svg11.dtd">
<svg version="1.1" xmlns="http://www.w3.org/2000/svg" xmlns:xlink="http://www.w3.org/1999/xlink" x="0px" y="0px" viewBox="0 0 1000 1000" enable-background="new 0 0 1000 1000" xml:space="preserve">
<metadata> Svg Vector Icons : http://www.onlinewebfonts.com/icon </metadata>
<g><g transform="translate(0.000000,511.000000) scale(0.100000,-0.100000)"><path d="M1727,3080c-168.4-51.7-350.3-214.4-424.9-379c-32.5-70.8-42.1-130.2-42.1-264.1c0-149.3,5.7-185.7,51.7-281.4c197.2-403.9,725.4-507.2,1052.7-206.7c147.4,134,212.5,285.2,214.4,488.1c0,130.2-9.6,172.3-55.5,273.7c-70.8,151.2-218.2,290.9-365.6,346.4C2048.5,3099.2,1826.5,3108.7,1727,3080z"/><path d="M4808.6,3080c-202.9-65.1-379-241.2-440.2-436.4c-45.9-149.3-47.9-252.6-7.7-388.5c141.6-474.7,721.6-639.3,1085.3-306.3c292.8,268,292.8,713.9-1.9,980c-135.9,122.5-222,155-415.4,162.7C4934.9,3093.4,4835.4,3089.6,4808.6,3080z"/><path d="M7890.2,3080c-88-28.7-174.2-80.4-252.7-151.2c-294.8-266.1-294.8-712-1.9-980c363.7-333,943.6-168.4,1085.3,306.3c67,222,13.4,449.8-145.5,622.1c-143.6,157-250.7,206.7-465.1,214.4C8016.6,3093.4,7917,3089.6,7890.2,3080z"/><path d="M1342.2,1642.5c-210.5-36.4-359.8-145.5-505.3-365.6C704.8,1079.8,100-177.7,100-252.4c0-126.3,114.8-258.4,229.7-268c206.7-17.2,222,1.9,595.3,719.7L1238.9,808l9.6-1741.8c9.6-1644.2,11.5-1743.7,44-1797.3c57.4-91.9,124.4-132.1,243.1-139.7c86.1-5.7,116.8,0,170.4,38.3c141.6,95.7,137.8,59.3,141.6,1081.4l3.8,914.9l61.3,5.7l61.2,5.8l5.7-914.9c5.7-882.4,7.7-916.8,45.9-981.9c57.4-99.5,149.3-153.1,260.3-153.1c114.8,0,193.3,42.1,250.7,134l42.1,67l9.6,1741.8l9.6,1739.9l321.6-625.9C3195-348.1,3252.5-449.5,3308-484c116.8-70.8,287.1-44,365.6,57.4c13.4,17.2,164.6,302.4,335,633.6l312,601l9.6-1743.7c9.6-1732.2,9.6-1745.6,49.8-1799.2c143.6-193.3,396.2-185.7,513,13.4c38.3,65.1,40.2,99.5,45.9,981.9l5.7,914.9l61.2-5.8l61.3-5.7l9.6-928.3c9.6-855.6,11.5-934.1,44-981.9c114.8-176.1,392.4-172.3,501.5,9.6c38.3,61.3,38.3,105.3,47.9,1805l9.6,1741.8L6001.1,184c357.9-692.9,367.5-708.2,539.8-708.2c170.4,0,181.8,15.3,537.8,706.3l323.5,624l9.6-1743.7c9.6-1730.3,9.6-1743.7,49.8-1797.3c143.6-193.3,396.2-185.7,513,13.4c38.3,65.1,40.2,99.5,45.9,981.9l5.7,914.9l61.3-5.8l61.3-5.7l9.6-928.3c9.6-855.6,11.5-934.1,44-981.9c122.5-187.6,421.1-168.4,513,32.5c34.5,74.6,36.4,164.6,36.4,1810.7V829.1l312-602.9C9233.9-105,9387-395.9,9400.4-417c67-103.4,250.7-139.7,363.7-72.7C9833-447.6,9900-332.8,9900-252.4c0,74.7-606.8,1336-736.9,1531.3c-111,166.5-231.6,273.7-371.3,329.2c-103.3,42.1-126.3,44-710.1,44c-587.6,0-604.8-1.9-713.9-45.9c-231.6-91.9-375.2-287.1-666.1-897.7l-158.9-333.1l-202.9,409.6c-111,225.9-233.5,459.4-275.6,518.7c-93.8,141.7-223.9,250.7-356,306.3c-101.4,40.2-128.2,42.1-708.2,42.1c-581.9,0-606.8-1.9-710.1-44c-235.4-93.8-352.2-246.9-637.4-832.6l-195.2-400l-178,371.3c-277.5,578-423,769.4-656.5,863.2c-93.8,36.4-141.6,40.2-646.9,44C1675.3,1657.9,1390.1,1652.1,1342.2,1642.5z"/></g></g>
</svg>