<?xml version="1.0" encoding="utf-8"?>
<!-- Svg Vector Icons : http://www.onlinewebfonts.com/icon -->
<!DOCTYPE svg PUBLIC "-//W3C//DTD SVG 1.1//EN" "http://www.w3.org/Graphics/SVG/1.1/DTD/svg11.dtd">
<svg version="1.1" xmlns="http://www.w3.org/2000/svg" xmlns:xlink="http://www.w3.org/1999/xlink" x="0px" y="0px" viewBox="0 0 1000 1000" enable-background="new 0 0 1000 1000" xml:space="preserve">
<metadata> Svg Vector Icons : http://www.onlinewebfonts.com/icon </metadata>
<g><g><path d="M911.5,879.8c-3,9-10,19.1-21.6,22.4c-8.4,2.4-284.9,82.6-293.5,84.8c-24.4,6.5-41.3,1.7-52.4-8.1c-16.9-14.9-212.5-148-459.2-160.5c-26.4-1.3-13.4-101.3,61.9-101.3c51.7,0,202.7,37.5,220.9,19.3c14.1-14.1,20.5-97.6-38.3-243.2l0,0L211.3,200.5c-11.2-27.8,2.3-59.3,30-70.6c27.8-11.2,59.5,2.2,70.6,30c0,0,93,230.4,103.1,255.4c10,24.9,22.4,34.4,35.8,29.2c12-4.6,14.5-12.6,7.2-36.8l-106.2-313c-9.7-28.3,5.5-59.1,33.9-68.7c28.4-9.7,59.2,5.5,68.8,33.9l101,297.6c8.9,26.2,18.4,39.9,33.3,33.5c9-3.8,8.4-17.6,6-29.5L523.8,77.4c-7.3-29.1,10.4-58.5,39.5-65.8c29.1-7.2,58.4,10.4,65.7,39.5l65.4,261.8c9.6,38.5,18.3,52.3,33.5,48.5c15.5-3.8,14.8-16.6,12.7-27.1c-4.9-24.7-45.3-224.7-45.3-224.7c-5.3-26.7,11.9-52.7,38.6-58c26.6-5.3,52.6,11.9,57.9,38.6l49.2,244.6l0.1,0.1c0,0,0,0,0,0.1l29.5,146.7c6.4,27.7,13.8,53.7,23.4,79.3C950.5,710.8,921.1,849.7,911.5,879.8L911.5,879.8z"/></g></g>
</svg>