<?xml version="1.0" encoding="utf-8"?>
<!-- Svg Vector Icons : http://www.onlinewebfonts.com/icon -->
<!DOCTYPE svg PUBLIC "-//W3C//DTD SVG 1.1//EN" "http://www.w3.org/Graphics/SVG/1.1/DTD/svg11.dtd">
<svg version="1.1" xmlns="http://www.w3.org/2000/svg" xmlns:xlink="http://www.w3.org/1999/xlink" x="0px" y="0px" viewBox="0 0 1000 1000" enable-background="new 0 0 1000 1000" xml:space="preserve">
<metadata> Svg Vector Icons : http://www.onlinewebfonts.com/icon </metadata>
<g><path d="M500,990c270.6,0,490-219.4,490-490S770.6,10,500,10S10,229.4,10,500S229.4,990,500,990z M500,101.9c219.9,0,398.1,178.2,398.1,398.1c0,219.9-178.2,398.1-398.1,398.1S101.9,719.9,101.9,500C101.9,280.1,280.1,101.9,500,101.9z M500,583c111,0,216.5-29.5,306.3-81.3c-14,170.8-146.5,304.5-306.3,304.5c-159.7,0-292.3-133.9-306.3-304.6C283.5,553.4,389,583,500,583L500,583z M255,346.9c0-50.7,27.4-91.9,61.3-91.9s61.3,41.1,61.3,91.9s-27.4,91.9-61.3,91.9S255,397.6,255,346.9z M622.5,346.9c0-50.7,27.4-91.9,61.3-91.9s61.3,41.1,61.3,91.9s-27.4,91.9-61.3,91.9S622.5,397.6,622.5,346.9z"/></g>
</svg>