<?xml version="1.0" encoding="utf-8"?>
<!-- Svg Vector Icons : http://www.onlinewebfonts.com/icon -->
<!DOCTYPE svg PUBLIC "-//W3C//DTD SVG 1.1//EN" "http://www.w3.org/Graphics/SVG/1.1/DTD/svg11.dtd">
<svg version="1.1" xmlns="http://www.w3.org/2000/svg" xmlns:xlink="http://www.w3.org/1999/xlink" x="0px" y="0px" viewBox="0 0 1000 1000" enable-background="new 0 0 1000 1000" xml:space="preserve">
<metadata> Svg Vector Icons : http://www.onlinewebfonts.com/icon </metadata>
<g><g transform="translate(0.000000,511.000000) scale(0.100000,-0.100000)"><path d="M4786.9,4971.2c-53.4-36.4-53.4-38.8-53.4-796c0-703.8,2.4-762,43.7-798.4c58.3-53.4,157.7-51,206.3,2.4c36.4,38.8,41.3,131.1,41.3,800.9c0,752.3,0,754.8-53.4,791.2c-29.1,21.8-70.4,38.8-92.2,38.8C4857.3,5010,4816,4993,4786.9,4971.2z"/><path d="M7107,4447c-21.8-17-201.4-308.2-395.6-648c-388.3-674.7-410.2-732.9-269.4-800.9c60.7-29.1,75.2-26.7,128.6,12.1c84.9,65.5,759.6,1237.7,759.6,1322.6C7330.2,4444.5,7194.3,4512.5,7107,4447z"/><path d="M2517.8,4311.1c-24.3-24.3-41.3-70.4-41.3-99.5c0-51,643.1-1201.3,723.2-1293.5c36.4-43.7,140.8-58.2,189.3-24.3c67.9,43.7,84.9,123.8,43.7,203.9c-82.5,162.6-672.3,1174.6-708.6,1215.8C2675.5,4366.9,2568.7,4366.9,2517.8,4311.1z"/><path d="M4357.3,3020C2881.8,2709.3,1889.2,1299.3,2158.6-103.4C2279.9-732,2394-965,2845.4-1506.2c325.2-390.7,529.1-669.8,529.1-723.2c0-14.6-29.1-82.5-63.1-152.9c-84.9-174.7-77.7-390.7,21.8-541.2l65.5-99.5l-65.5-99.5c-77.6-116.5-101.9-330.1-55.8-470.8c38.8-118.9,167.5-259.7,283.9-313.1c63.1-29.1,106.8-70.4,138.3-135.9c133.5-279.1,482.9-570.3,803.3-677.1c507.2-165,1067.8-36.4,1446.4,337.3c87.4,87.4,196.6,220.9,240.2,298.5c48.5,87.4,106.8,155.3,155.3,177.1c322.8,165,417.4,580,189.3,842.1c-34,36.4-34,46.1,0,84.9c162.6,182,169.9,463.5,17,677.1c-70.4,99.5-70.4,104.4-34,179.6c21.8,41.3,179.6,220.9,351.9,400.4c351.9,364,507.2,572.8,650.4,866.4c199,405.3,286.4,842.1,264.5,1312.9c-58.3,1247.4-982.9,2305.5-2242.4,2560.3C5214,3085.5,4672.8,3085.5,4357.3,3020z M5595,2694.8c589.7-150.5,1145.5-533.9,1473.1-1016.9c148-216,303.4-563,361.6-808.2C7505,564,7507.4,85.9,7432.2-215c-123.8-497.5-296.1-786.3-757.2-1271.7c-174.7-184.4-356.8-395.6-400.4-468.4l-84.9-133.5l-359.2,7.3l-361.6,7.3l143.2,694.1c157.7,774.2,157.7,817.9,9.7,907.6c-97.1,58.2-174.7,58.2-291.2-4.8c-101.9-53.4-133.5-38.8-135.9,63.1c-2.4,109.2-133.5,206.3-279.1,206.3c-111.6,0-220.8-101.9-242.7-225.7c-19.4-104.4-31.5-106.8-138.3-41.3c-43.7,26.7-114,48.6-157.7,48.6c-97.1,0-216-97.1-237.8-194.2c-9.7-48.6,31.5-310.6,121.3-752.3c77.7-376.2,135.9-684.4,131.1-689.2c-4.9-4.8-174.7-14.6-378.6-19.4l-366.4-7.3l-46.1,84.9c-63.1,121.3-308.2,444.1-548.5,720.8c-283.9,332.5-344.6,419.8-432,648c-381,987.7-189.3,1963.3,526.6,2672c385.9,383.4,878.5,623.7,1453.7,715.9C4850,2791.8,5320.8,2762.7,5595,2694.8z M5075.7-799.9c65.5-43.7,160.2-51,254.8-14.5c36.4,14.5,70.4,21.8,75.2,14.5c7.3-4.8-46.1-296.1-118.9-643.1l-128.6-633.4h-223.3c-213.6,0-225.7,2.4-237.8,55.8c-7.3,29.1-63.1,298.5-121.3,599.4c-60.7,301-116.5,567.9-123.8,592.2c-12.1,36.4-7.3,43.7,29.1,26.7c179.6-70.4,339.8-26.7,412.6,116.5l38.8,70.4l43.7-72.8C5000.4-727.1,5046.6-778.1,5075.7-799.9z M6226-2421.1c72.8-34,133.5-133.5,133.5-223.3c0-34-31.5-97.1-70.4-140.7l-70.4-80.1H4951.9H3685.1l-70.4,80.1c-97.1,109.2-94.7,203.8,12.1,310.6l82.5,82.5h1228C5835.3-2392,6179.9-2399.2,6226-2421.1z M6289.1-3260.8c38.8-43.7,70.4-106.8,70.4-140.7c0-89.8-60.7-189.3-133.5-223.3c-89.8-41.3-2458.4-41.3-2548.2,0c-72.8,34-133.5,133.5-133.5,223.3c0,72.8,104.4,201.4,177.2,216c29.1,7.3,601.9,9.7,1274.1,7.3l1223.2-2.4L6289.1-3260.8z M5876.6-4013.1c-43.7-80.1-286.4-291.2-405.3-351.9c-415-211.1-929.5-140.7-1276.5,172.3c-51,46.1-116.5,116.5-143.2,155.3l-48.5,67.9h948.9C5852.3-3969.4,5898.4-3971.8,5876.6-4013.1z"/><path d="M4624.3,1915.7c-439.3-97.1-810.6-347-1048.4-706.2c-75.2-114.1-84.9-143.2-65.5-199c26.7-72.8,114-126.2,179.6-109.2c26.7,7.3,101.9,87.4,167.5,177.2c150.5,208.7,349.5,366.5,584.9,466c157.7,65.5,218.4,77.6,453.8,87.4c225.7,9.7,296.1,2.4,436.8-38.8c327.6-99.5,611.6-322.8,786.3-611.6c101.9-172.3,191.7-475.7,191.7-648c0-118.9,63.1-201.4,152.9-201.4c99.5,0,138.3,70.4,138.3,245.1c0,315.5-133.5,669.8-351.9,948.9C5879,1799.3,5201.9,2044.4,4624.3,1915.7z"/><path d="M8230.6,2503c-691.6-400.4-725.6-432-638.3-550.9c24.3-34,72.8-63.1,104.4-67.9c38.8-4.9,254.8,106.8,652.8,337.3c327.6,189.3,618.9,366.5,650.4,393.1c29.1,26.7,53.4,75.2,53.4,104.4c0,53.4-101.9,155.3-155.3,155.3C8883.4,2874.4,8582.5,2706.9,8230.6,2503z"/><path d="M899,2636.5c-70.4-55.8-72.8-169.9-4.9-225.7c106.8-84.9,1242.6-725.6,1291.1-725.6c60.7,0,145.6,82.5,145.6,143.2c0,82.5-77.7,140.8-631,458.7C928.2,2731.2,984,2706.9,899,2636.5z"/><path d="M8099.6,573.7c-53.4-58.3-51-157.7,2.4-206.3c38.8-36.4,131.1-41.3,798.4-41.3c698.9,0,754.8,2.4,791.2,43.7c51,55.8,53.4,123.8,2.4,194.2c-36.4,53.4-38.8,53.4-796,53.4C8194.2,617.4,8136,614.9,8099.6,573.7z"/><path d="M316.6,350.4c-48.5-48.5-63.1-135.9-29.1-184.4c48.5-75.2,133.5-82.5,825.1-82.5c674.7,0,703.8,2.4,766.9,51c75.2,60.7,82.5,148,14.6,216C1848,396.5,1814,399,1105.3,399S362.7,396.5,316.6,350.4z"/><path d="M7759.8-1028c-51-53.4-53.4-160.2-7.3-203.9c17-19.4,313.1-196.6,655.3-393.1c599.4-344.6,626.1-359.2,696.5-330.1c77.7,34,114.1,118.9,80.1,196.6c-26.7,55.8-1262,774.2-1334.8,774.2C7822.9-984.4,7781.6-1003.8,7759.8-1028z"/><path d="M1736.3-1447.9c-252.4-148.1-550.9-317.9-662.5-378.6c-220.8-121.3-259.7-179.6-189.3-286.3c70.4-106.8,160.2-82.5,550.9,140.7c191.7,111.7,478.1,276.7,635.8,366.5c317.9,184.4,368.9,240.3,305.8,349.5C2309.1-1132.4,2238.7-1154.2,1736.3-1447.9z"/></g></g>
</svg>