<?xml version="1.0" encoding="utf-8"?>
<!-- Svg Vector Icons : http://www.onlinewebfonts.com/icon -->
<!DOCTYPE svg PUBLIC "-//W3C//DTD SVG 1.1//EN" "http://www.w3.org/Graphics/SVG/1.1/DTD/svg11.dtd">
<svg version="1.1" xmlns="http://www.w3.org/2000/svg" xmlns:xlink="http://www.w3.org/1999/xlink" x="0px" y="0px" viewBox="0 0 1000 1000" enable-background="new 0 0 1000 1000" xml:space="preserve">
<metadata> Svg Vector Icons : http://www.onlinewebfonts.com/icon </metadata>
<g><g transform="translate(0.000000,511.000000) scale(0.100000,-0.100000)"><path d="M4774.2,4309.8c-142.9-77-216.2-263.9-216.2-546v-241.9H3172.8H1791.2L1597,3184.8c-322.5-568-1084.7-2110.8-1242.3-2525C131.1,88.1,65.1-260,116.4-571.5c113.6-692.6,656-1264.3,1330.3-1407.2c263.8-58.6,703.6-22,956.5,73.3c637.7,245.5,1092.1,894.2,1092.1,1561.2c0,516.7-410.4,1517.2-1297.3,3166.3c-113.6,212.6-205.2,384.8-205.2,392.1c0,3.7,109.9-33,241.9-84.3c516.7-186.9,1363.2-362.8,2077.9-432.4l245.5-25.7V-417.6v-3093l-527.7-11c-465.4-11-538.7-18.3-608.3-84.3c-113.6-99-142.9-201.6-102.6-322.5c73.3-205.2,113.6-212.6,1682.1-212.6c1290,0,1440.2,7.3,1535.5,66c190.6,113.6,208.9,315.1,36.6,469.1c-69.6,66-142.9,73.3-608.3,84.3l-527.7,11v3093v3089.3l249.2,25.7c700,69.6,1564.8,249.2,2074.2,436.1l234.5,84.3l-491-956.5c-916.2-1792-1114.1-2415-952.8-3008.7c230.9-879.5,1147-1429.2,2033.9-1224c795.2,183.2,1399.9,1015.1,1304.6,1792c-33,252.9-197.9,747.6-410.5,1227.7c-183.2,417.8-919.8,1858-1132.4,2228.1l-142.9,241.9l-1377.9,3.7H5448.5l-18.3,285.8c-18.3,307.8-80.6,443.4-234.5,513.1C5074.7,4379.4,4891.5,4372.1,4774.2,4309.8z M2099,1620C2461.8,898,2707.4,330,2799-7.2c40.3-146.6,73.3-274.9,73.3-289.5c0-18.3-476.4-29.3-1062.8-29.3H746.8v87.9c0,91.6,29.3,186.9,172.2,590c84.3,230.9,850.2,1850.7,879.5,1850.7C1802.2,2202.6,1941.4,1942.4,2099,1620z M9113.2,234.7c77-216.2,135.6-432.4,135.6-476.4V-326H8186H7119.6l25.6,139.3c47.7,267.5,282.2,846.5,663.3,1619.8L8197,2221l392.1-795.2C8805.4,986,9039.9,450.9,9113.2,234.7z"/></g></g>
</svg>