<?xml version="1.0" encoding="utf-8"?>
<!-- Svg Vector Icons : http://www.onlinewebfonts.com/icon -->
<!DOCTYPE svg PUBLIC "-//W3C//DTD SVG 1.1//EN" "http://www.w3.org/Graphics/SVG/1.1/DTD/svg11.dtd">
<svg version="1.1" xmlns="http://www.w3.org/2000/svg" xmlns:xlink="http://www.w3.org/1999/xlink" x="0px" y="0px" viewBox="0 0 1000 1000" enable-background="new 0 0 1000 1000" xml:space="preserve">
<metadata> Svg Vector Icons : http://www.onlinewebfonts.com/icon </metadata>
<g><g transform="translate(0.000000,511.000000) scale(0.100000,-0.100000)"><path d="M2657.9,4979.5c-481.8-129.2-801.6-573.8-766.6-1062.2c43.8-626.4,635.2-1068.8,1246.2-933c267.2,59.1,510.3,227.8,657.1,457.8c184,289.1,199.3,709.6,35,1031.6c-59.1,116.1-238.7,302.3-372.3,387.7C3242.6,4999.2,2911.9,5047.4,2657.9,4979.5z"/><path d="M1871.6,2745.5c-247.5-52.6-444.6-194.9-571.7-407.4c-37.2-65.7-295.7-692.1-573.8-1393C178.5-430.3,172-458.8,264-609.9c113.9-188.4,411.8-212.4,560.7-46c26.3,26.3,245.3,582.6,490.6,1233.1c243.1,650.5,457.8,1204.6,473.1,1233.1c56.9,87.6,227.8,39.4,227.8-63.5c0-17.5-311-862.9-689.9-1877c-385.5-1031.6-689.9-1877-689.9-1916.4c0-39.4,15.3-94.2,35-122.6c72.3-100.8,142.4-111.7,731.5-111.7h547.5v-1084.2c0-930.8,4.4-1097.3,32.9-1167.4c72.3-168.7,199.3-251.9,385.5-251.9c166.5,0,304.4,78.8,368,210.3c43.8,92,46,122.7,46,1193.7V-2281h142.4h140.2l6.6-1110.4l6.6-1112.6l50.4-81c100.7-159.9,276-232.2,470.9-188.4c133.6,28.5,262.8,146.7,297.9,269.4c15.3,59.1,24.1,442.4,24.1,1154.2v1066.6l567.3,6.6l569.4,6.6l65.7,63.5c37.2,35.1,72.3,94.2,78.9,131.4c11,52.6-138,468.7-681.2,1918.6c-381.1,1018.4-692.1,1872.6-692.1,1898.9c0,28.5,11,65.7,26.3,83.2c32.8,41.6,140.2,43.8,179.6,4.4c15.3-17.5,230-565.1,475.3-1222.1C4756.1-47,4979.5-614.3,5008-653.7c63.5-83.2,177.4-124.8,308.8-109.5c181.8,19.7,302.2,151.1,302.2,328.5c0,96.4-76.7,304.4-501.6,1373.3c-276,692.1-521.3,1298.8-545.4,1347c-113.9,225.6-381.1,420.5-650.5,470.9C3742,2791.5,2035.8,2780.6,1871.6,2745.5z"/><path d="M7874.9,2200.2c-254.1-81-453.4-254.1-565.1-490.6c-65.7-135.8-70.1-164.3-70.1-376.7c0-219,4.4-238.7,74.5-383.3c94.2-190.6,240.9-335.1,433.7-431.5c140.2-67.9,162.1-72.3,378.9-72.3c212.5,0,240.9,4.4,374.5,67.9c247.5,118.3,409.6,300.1,490.6,554.1c56.9,175.2,39.4,477.5-39.4,639.5c-113.9,238.7-322,418.3-560.7,488.4C8249.5,2237.4,7997.6,2239.6,7874.9,2200.2z"/><path d="M7040.5,207.1C6913.4,165.5,6766.7,60.3,6692.2-47c-35-48.2-129.2-254.1-210.3-455.6l-146.7-365.8l-403-10.9c-370.2-10.9-405.2-15.3-468.7-59.1c-144.5-102.9-155.5-293.5-21.9-416.1c96.4-87.6,188.4-100.7,703.1-89.8c385.5,6.6,396.4,8.8,497.2,67.9c120.5,70.1,135.8,96.4,282.5,481.8c61.3,159.9,122.7,300.1,135.8,313.2c57,56.9,122.7,56.9,177.4,2.2l54.8-54.7l-13.2-1901.1c-8.7-1456.5-6.6-1925.2,13.2-1999.6c89.8-319.8,541-346.1,657.1-39.4c15.3,41.6,24.1,422.7,24.1,1112.6c0,1020.7,2.2,1051.3,43.8,1092.9c52.6,52.5,157.7,57,199.3,6.6c24.1-28.5,32.9-245.3,41.6-1123.6l11-1088.5l59.1-76.7c146.7-192.7,449-181.8,580.4,19.7c37.2,54.8,39.4,179.6,50.4,2061c11,1949.3,13.1,2001.8,52.6,2032.5c63.5,43.8,118.3,37.2,177.4-24.1l54.8-52.5v-856.4c0-928.6,0-930.8,122.6-1027.2c39.4-30.7,89.8-46,153.3-46c78.9,0,111.7,13.2,179.6,74.5l81,74.5v1071v1068.8l-59.1,109.5C9644.6-1,9546.1,91,9386.2,165.5l-131.4,61.3l-1062.2,4.4C7369,235.5,7110.6,229,7040.5,207.1z"/></g></g>
</svg>