<?xml version="1.0" encoding="utf-8"?>
<!-- Svg Vector Icons : http://www.onlinewebfonts.com/icon -->
<!DOCTYPE svg PUBLIC "-//W3C//DTD SVG 1.1//EN" "http://www.w3.org/Graphics/SVG/1.1/DTD/svg11.dtd">
<svg version="1.1" xmlns="http://www.w3.org/2000/svg" xmlns:xlink="http://www.w3.org/1999/xlink" x="0px" y="0px" viewBox="0 0 1000 1000" enable-background="new 0 0 1000 1000" xml:space="preserve">
<metadata> Svg Vector Icons : http://www.onlinewebfonts.com/icon </metadata>
<g><g transform="translate(0.000000,512.000000) scale(0.100000,-0.100000)"><path d="M4090.9,4996.6c-103.4-55.5-105.3-65.1-105.3-589.5c0-434.5,3.8-491.9,34.4-528.3c84.2-105.3,208.6-112.9,302.4-19.1l65.1,65.1v482.3v482.3l-65.1,65.1C4253.6,5023.4,4167.4,5038.8,4090.9,4996.6z"/><path d="M2429.6,4541.1c-67-53.6-97.6-149.3-70.8-222c11.5-30.6,118.7-222,235.4-426.8c223.9-386.6,256.5-423,379-423c84.2,0,189.5,107.2,189.5,191.4c0,45.9-63.2,172.3-214.4,438.3c-118.7,206.7-239.2,398.1-268,428.7C2617.1,4592.8,2504.2,4598.5,2429.6,4541.1z"/><path d="M5690.9,4527.7c-32.5-30.6-153.1-220.1-269.9-423c-166.5-290.9-210.5-382.8-210.5-440.2c1.9-170.4,201-258.4,323.5-141.6c30.6,28.7,151.2,218.2,267.9,419.2c168.4,292.8,212.4,384.7,212.4,440.2C6012.5,4554.5,5815.3,4642.6,5690.9,4527.7z"/><path d="M1275.4,3366c-130.1-57.4-166.5-220.1-68.9-313.9c28.7-28.7,220.1-149.3,426.8-268c426.8-245,461.3-252.6,564.6-149.3c70.8,70.8,84.2,141.6,42.1,231.6c-23,51.7-90,93.8-570.4,369.4C1399.8,3388.9,1359.6,3402.3,1275.4,3366z"/><path d="M3964.5,3373.6c-775.2-91.9-1414.4-677.5-1577.1-1447c-36.4-172.3-44-562.7-11.5-643.1c28.7-76.6,130.2-134,210.5-122.5c84.2,13.4,128.2,55.5,197.1,193.3c45.9,93.8,153.1,210.5,557,616.3c572.3,576.1,591.4,587.6,846,589.5c168.4,0,273.7-36.4,388.5-134c34.5-28.7,285.2-363.7,557-744.5c488.1-681.4,535.9-738.8,635.4-738.8c67,0,153.1,57.4,179.9,120.6c80.4,197.1,86.1,700.5,9.6,968.5c-84.2,294.7-227.8,549.3-438.3,773.2c-168.4,179.9-323.4,290.9-547.4,396.2c-218.2,103.3-354.1,143.5-583.8,172.3C4209.5,3394.7,4152.1,3394.7,3964.5,3373.6z"/><path d="M6914,3360.2c-241.2-128.2-752.2-438.3-775.2-470.8c-32.5-47.9-38.3-170.4-9.6-225.9c30.6-53.6,130.1-99.5,199.1-88c32.5,5.7,235.4,111,449.8,235.4c342.6,197.1,392.3,233.5,417.2,292.8C7270,3283.6,7086.2,3450.2,6914,3360.2z"/><path d="M4129.1,2154.4c-21.1-5.7-239.2-208.6-484.2-451.7l-447.9-444L2567.4,1.2l-629.7-1259.4v-386.6v-386.6l-390.4-394.3c-216.3-216.3-401.9-417.2-411.5-445.9c-13.4-32.5-21.1-210.5-21.1-430.6v-375.1l-401.9-403.8c-375.1-377.1-401.9-407.7-401.9-474.7c0-38.3,9.6-91.9,23-118.7C385.4-4787.5,62-4779.9,5000-4779.9c4201.2,0,4543.8,1.9,4593.5,32.5c63.1,36.3,95.7,99.5,95.7,185.7c0,51.7-99.5,195.2-622,890L8447-2842.9l-195.2,587.6c-107.2,321.5-206.7,608.6-222,639.2c-21.1,42.1-176.1,126.3-847.9,463.2l-821.1,409.6l-1024,1435.5C4475.6,1896,4303.3,2129.5,4251.6,2146.8c-34.4,11.5-67,19.1-72.7,19.1C4173.2,2164,4150.2,2160.2,4129.1,2154.4z M5003.8,458.6c459.4-643.1,870.9-1219.2,911-1276.6l76.6-107.2l-467-601c-258.4-331.1-474.7-604.8-482.3-606.7c-7.7-3.8-170.3,308.2-363.6,692.9l-348.3,698.6l-669.9,334.9l-669.9,335l269.9,541.7l269.9,539.7l308.1,312c170.4,170.4,313.9,310.1,319.6,310.1S4544.5,1103.6,5003.8,458.6z"/><path d="M796.9,1712.3c-105.3-84.2-112.9-208.6-19.1-302.4l65.1-65.1h482.3h482.3l65.1,65.1c93.8,93.8,86.1,218.2-19.1,302.4c-36.4,30.6-93.8,34.4-528.3,34.4C890.7,1746.7,833.3,1742.9,796.9,1712.3z"/><path d="M6491,1691.2c-63.2-63.2-74.6-158.9-28.7-248.8c47.9-90,91.9-97.6,578-97.6c505.3,0,543.6,7.7,593.3,128.2c36.4,82.3,9.6,178-63.1,235.4c-45.9,36.4-76.6,38.3-535.9,38.3h-488L6491,1691.2z"/><path d="M1612.3,301.7C1407.5,183,1219.9,62.4,1197,33.7c-105.3-120.6-11.5-313.9,153.1-315.8c55.5,0,147.4,44,440.2,212.5c201,116.7,390.5,237.3,421.1,267.9c116.8,126.3,24.9,323.5-149.3,321.5C1998.9,519.9,1916.6,479.7,1612.3,301.7z"/><path d="M6165.6,466.3c-44-45.9-55.5-72.7-55.5-141.6c0-53.6,13.4-99.5,34.5-124.4c17.2-23,204.8-139.7,417.2-260.3c430.6-248.8,478.5-262.2,581.9-168.4c76.6,67,91.9,162.7,42.1,243.1C7159,56.7,7036.5,139,6759,297.9C6316.8,552.4,6265.1,565.8,6165.6,466.3z"/></g></g>
</svg>