<?xml version="1.0" encoding="utf-8"?>
<!-- Svg Vector Icons : http://www.onlinewebfonts.com/icon -->
<!DOCTYPE svg PUBLIC "-//W3C//DTD SVG 1.1//EN" "http://www.w3.org/Graphics/SVG/1.1/DTD/svg11.dtd">
<svg version="1.1" xmlns="http://www.w3.org/2000/svg" xmlns:xlink="http://www.w3.org/1999/xlink" x="0px" y="0px" viewBox="0 0 1000 1000" enable-background="new 0 0 1000 1000" xml:space="preserve">
<metadata> Svg Vector Icons : http://www.onlinewebfonts.com/icon </metadata>
<g><g transform="translate(0.000000,511.000000) scale(0.100000,-0.100000)"><path d="M6187.8,568.5c5.8-4024,9.7-4462.7,38.7-4673.4c52.2-376.9,116-548.9,231.9-635.9c63.8-48.3,266.7-65.7,369.2-30.9c137.2,44.4,218.4,216.5,276.4,585.6c29,181.7,34.8,342.1,34.8,1018.6l-1.9,802.1l-73.5,628.2c-110.2,949-102.4,1005,249.3,1594.5c421.4,707.4,500.6,991.5,456.1,1631.3c-79.2,1086.2-299.6,2066.1-610.8,2698.1c-247.4,502.5-527.6,757.6-885.2,809.8l-92.8,13.5L6187.8,568.5z"/><path d="M3143.7,3904.5l-5.8-987.6l-63.8-56.1c-85-77.3-179.8-77.3-257.1,0l-56,56.1v979.9v979.9l-81.2-9.7c-46.4-7.7-141.1-17.4-210.7-25.1c-69.6-5.8-139.2-19.3-152.7-27.1c-17.4-11.6-29-104.4-40.6-313.1c-63.8-1227.3-73.4-2143.4-25.1-2354.1c32.9-145,125.6-317,235.8-432.9c38.7-40.6,168.2-146.9,286.1-233.9c237.7-177.8,291.9-233.9,309.2-328.6c5.8-34.8,1.9-266.7-9.7-514.1c-131.4-2781.2-160.4-3685.8-137.2-4250.1c19.3-471.6,42.5-664.9,98.6-860.1c73.4-247.4,177.8-328.6,398.1-315.1c150.8,9.6,210.7,50.2,280.3,189.4c114,226.1,152.7,601.1,152.7,1459.2c0,641.7-19.3,1167.4-148.8,3983.4c-7.7,185.6-5.8,293.8,9.7,340.2c27.1,81.2,98.6,150.8,301.5,291.8c222.3,154.6,365.3,303.4,444.5,465.8c90.8,185.5,106.3,284.1,106.3,705.5c0,326.6-56,2149.2-67.6,2162.8c-5.8,7.7-204.9,36.7-351.8,52.2l-121.8,11.6v-987.6v-989.6l-56-56.1c-77.3-77.3-172-77.3-257.1,0l-63.8,56.1l-5.8,997.3l-5.8,997.3h-249.3h-249.3L3143.7,3904.5z"/></g></g>
</svg>