<?xml version="1.0" encoding="utf-8"?>
<!-- Svg Vector Icons : http://www.onlinewebfonts.com/icon -->
<!DOCTYPE svg PUBLIC "-//W3C//DTD SVG 1.1//EN" "http://www.w3.org/Graphics/SVG/1.1/DTD/svg11.dtd">
<svg version="1.1" xmlns="http://www.w3.org/2000/svg" xmlns:xlink="http://www.w3.org/1999/xlink" x="0px" y="0px" viewBox="0 0 1000 1000" enable-background="new 0 0 1000 1000" xml:space="preserve">
<metadata> Svg Vector Icons : http://www.onlinewebfonts.com/icon </metadata>
<g><path d="M873.2,181.5c-61.4-1-119,5.9-173.2,20.1c-57.2,15-110.7,38.2-160.8,69v524c45.8-25,93.4-45.8,143.9-60.3c59.2-17,122.1-25.3,190.1-21.3v-48.1c22.1,0.8,44.5-1.9,64.6-9.6v93h0c0,1.3-0.1,2.5-0.2,3.8c-2.1,17.7-18.1,30.3-35.8,28.2c-72.8-8.7-139.1-1.7-200.9,16c-61.9,17.8-119.7,46.4-175.3,80.8l-0.2,0.2l-0.3,0.2l0,0l-0.2,0.1l-0.4,0.3l-0.1,0l-0.5,0.3l-0.1,0l-0.2,0.1l-0.5,0.3l0,0l-0.7,0.4l-0.1,0.1l-0.3,0.1l-0.3,0.1h0l-0.3,0.1l-0.3,0.1l-0.2,0.1l-0.1,0l-0.3,0.1l-0.3,0.1l-0.1,0l-0.2,0.1l-0.3,0.1l-0.2,0.1l-0.1,0l-0.3,0.1l-0.3,0.1l-0.1,0l-0.2,0.1l-0.3,0.1l-0.3,0.1l0,0l-0.3,0.1l-0.4,0.1l-0.1,0l-0.6,0.2l0,0l-0.3,0.1l-0.3,0.1l-0.2,0.1l-0.1,0l-0.3,0.1l-0.3,0.1l-0.1,0l-0.2,0.1l-0.3,0.1l-0.2,0.1l-0.1,0l-0.3,0.1l-0.3,0.1l-0.1,0l-0.2,0l-0.3,0.1l-0.3,0.1h0l-0.3,0l-0.3,0l-0.2,0l-0.1,0l-0.3,0l-0.3,0l0,0l-0.3,0l-0.3,0l-0.2,0l-0.1,0l-0.6,0.1h-0.1l-0.2,0l-0.3,0l-0.3,0h0l-0.3,0l-0.3,0h-0.1h-0.2l-0.6,0l-0.6,0h-0.2H506l-0.3,0l-0.3,0h-0.1l-0.3,0l-0.3,0l-0.2,0h-0.1l-0.6-0.1l-0.1,0l-0.2,0l-0.3,0l-0.3,0l0,0l-0.3,0l-0.3,0l-0.1,0l-0.2,0l-0.3,0l-0.3,0h0l-0.3-0.1l-0.3-0.1l-0.2,0l-0.1,0l-0.3-0.1l-0.3-0.1l-0.1,0l-0.2-0.1l-0.3-0.1l-0.2-0.1l-0.1,0l-0.3-0.1l-0.3-0.1l-0.1,0l-0.2-0.1l-0.3-0.1l-0.3-0.1l0,0l-0.6-0.2l-0.1,0l-0.4-0.1l-0.3-0.1l0,0l-0.3-0.1l-0.3-0.1l-0.2-0.1l-0.1,0l-0.3-0.1l-0.3-0.1l-0.1,0l-0.2-0.1l-0.3-0.1l-0.2-0.1l-0.1,0l-0.3-0.1l-0.3-0.1l-0.1-0.1l-0.2-0.1l-0.3-0.1l-0.3-0.1h0l-0.3-0.1l-0.3-0.1l-0.1-0.1l-0.7-0.4l0,0l-0.5-0.3l-0.2-0.1l-0.1-0.1l-0.5-0.3l-0.1,0l-0.4-0.3l-0.2-0.1l0,0l-0.3-0.2l-0.3-0.2c-55.6-34.4-113.4-63-175.3-80.8c-61.8-17.7-128.1-24.8-200.9-16c-17.7,2.1-33.7-10.6-35.8-28.2c-0.1-1.3-0.2-2.5-0.2-3.8h0v-88.5c20.6,5.4,43,6.4,64.6,4.1V713c68-4,130.8,4.3,190.1,21.3c50.5,14.5,98.2,35.3,143.9,60.3v-524c-50.2-30.8-103.7-54.1-160.8-69c-54.2-14.2-111.8-21.1-173.2-20.1v181.8c-21-2.9-43.3-4.2-64.6-2.4V150.4c0-17.8,14.5-32.3,32.3-32.3l0.4,0c142.2-7.8,276.3,22.2,398.2,96.7c121.8-74.5,255.9-104.5,398.1-96.7l0.4,0c17.8,0,32.3,14.5,32.3,32.3v212c-20.7-3.2-43-3-64.6-0.9V181.5L873.2,181.5z M823.3,412.6c-1.6,14.1-2.7,28.1-3.4,42.2l27.8,9.9l-28.4,4c-0.5,15-0.5,30-0.2,45l22.7,9.2l-22.3,3.1c0.7,15.9,1.8,31.7,3.4,47.6l19.7,4.4l-18.9,3.6c1.2,11.4,2.7,22.7,4.4,34c15.6,4.4,79.9,20.1,114.8-11c39.9-35.6,59.8-108.2,38.4-169.4C963.3,383.6,856.7,404.7,823.3,412.6L823.3,412.6z M176.7,412.6c-33.4-8-140.1-29-158,22.5c-21.3,61.2-1.4,133.8,38.4,169.4c34.8,31.1,99.1,15.5,114.8,11c1.7-11.3,3.2-22.7,4.4-34l-18.9-3.6l19.7-4.4c1.6-15.8,2.7-31.7,3.4-47.6l-22.3-3.1l22.7-9.2c0.4-15,0.3-30-0.2-45l-28.4-4l27.8-9.9C179.4,440.8,178.3,426.7,176.7,412.6z"/></g>
</svg>