<?xml version="1.0" encoding="utf-8"?>
<!-- Svg Vector Icons : http://www.onlinewebfonts.com/icon -->
<!DOCTYPE svg PUBLIC "-//W3C//DTD SVG 1.1//EN" "http://www.w3.org/Graphics/SVG/1.1/DTD/svg11.dtd">
<svg version="1.1" xmlns="http://www.w3.org/2000/svg" xmlns:xlink="http://www.w3.org/1999/xlink" x="0px" y="0px" viewBox="0 0 1000 1000" enable-background="new 0 0 1000 1000" xml:space="preserve">
<metadata> Svg Vector Icons : http://www.onlinewebfonts.com/icon </metadata>
<g><path d="M284,456.9c0.2,0.2,0.4,0.5,0.7,0.7l98.7,97.6l34.4-34l-37.2-36.7l-16.8-16.6l86.1-85.1l11.4,1.2c2.9,0.3,5.9,0.5,8.8,0.5c5.9,0,11.8-0.7,17.4-1.9l-63.4-62.7c-1.3-1.3-2.7-2.4-4-3.6c19.5-69.4,1.8-147-53.5-201.5c-54.8-54.2-132.6-71.9-202.4-53.3l118.4,117L251.6,293l-116,30.7l-118.4-117c-18.8,69-0.9,145.9,53.9,200C128.7,463.6,211.6,480.3,284,456.9L284,456.9z M633.8,526.9c-1.9,8.4-2.4,17.1-1.4,26l1.3,11.2l-8.1,8l-61.2,60.5l-16.8,16.6l-54-53.3l-34.4,34l312.5,308.8c19.3,19,44.5,28.5,69.7,28.5c25.2,0,50.5-9.5,69.7-28.5c38.5-38,38.5-99.8,0-137.8L633.8,526.9L633.8,526.9z M875.1,906.7l-49.6,13.1l-40.2-39.7l13.3-48.9l49.6-13.2l40.2,39.7L875.1,906.7L875.1,906.7z M493.9,563l54,53.3l61.2-60.5c-3.3-29.5,6.4-60.2,29.3-82.8c22.9-22.6,53.9-32.2,83.8-28.9L990,179.5L840,31.3L572.2,295.9c3.3,29.5-6.4,60.2-29.3,82.8c-22.9,22.6-53.9,32.2-83.8,28.9l-61.3,60.5l54,53.3L187.2,782.9l-9.7-9.6l-50.8,40.4L41.3,947.1l21.8,21.6l134.9-84.4l40.9-50.2l-9.7-9.6L493.9,563L493.9,563z"/></g>
</svg>