<?xml version="1.0" encoding="utf-8"?>
<!-- Svg Vector Icons : http://www.onlinewebfonts.com/icon -->
<!DOCTYPE svg PUBLIC "-//W3C//DTD SVG 1.1//EN" "http://www.w3.org/Graphics/SVG/1.1/DTD/svg11.dtd">
<svg version="1.1" xmlns="http://www.w3.org/2000/svg" xmlns:xlink="http://www.w3.org/1999/xlink" x="0px" y="0px" viewBox="0 0 1000 1000" enable-background="new 0 0 1000 1000" xml:space="preserve">
<metadata> Svg Vector Icons : http://www.onlinewebfonts.com/icon </metadata>
<g><path d="M500,990c65.6,0,118.7-53.1,118.7-118.7H381.3C381.3,936.8,434.4,990,500,990z"/><path d="M883.8,839.8V813c0-15-9.1-27.8-22.1-33.3c0.1-0.1,0.1-0.1,0.1-0.1c-33.9-14.4-40.9-39.2-41.8-53.7v-7.5c0.2-2.5,0.5-3.9,0.5-3.9l-0.5-0.1V393.5c0-151.5-105.2-278.3-246.5-311.6c-0.9-39.9-33.5-72-73.5-72c-40.1,0-72.7,32.1-73.5,72c-141.3,33.2-246.5,160.1-246.5,311.6v336.8c-2.1,14.7-10.7,36.2-41.3,49.3c-13.1,5.4-22.4,18.3-22.4,33.4c0,10.8,0,20.5,0,27.1c0,5,4,9,9,9h722.4h27.1c4.9,0,8.8-3.8,9-8.7c0-0.1,0-0.3,0-0.4C883.8,840,883.8,839.9,883.8,839.8z M425.8,198.7c-0.3,0.1-34.9,11.6-68.5,40.4c-43.3,37.2-65.3,85.1-65.3,142.6v259.2c0,14.6-11.8,26.4-26.4,26.4s-26.4-11.8-26.4-26.4V381.7c0-73.3,29.5-137,85.4-184.1c41.6-35,83.3-48.6,85.1-49.1c13.9-4.4,28.7,3.2,33.1,17.1C447.3,179.4,439.6,194.2,425.8,198.7z"/></g>
</svg>