<?xml version="1.0" encoding="utf-8"?>
<!-- Svg Vector Icons : http://www.onlinewebfonts.com/icon -->
<!DOCTYPE svg PUBLIC "-//W3C//DTD SVG 1.1//EN" "http://www.w3.org/Graphics/SVG/1.1/DTD/svg11.dtd">
<svg version="1.1" xmlns="http://www.w3.org/2000/svg" xmlns:xlink="http://www.w3.org/1999/xlink" x="0px" y="0px" viewBox="0 0 1000 1000" enable-background="new 0 0 1000 1000" xml:space="preserve">
<metadata> Svg Vector Icons : http://www.onlinewebfonts.com/icon </metadata>
<g><g><path d="M989.7,427.9c-1-5.9-4.6-11-9.8-13.9l-154-87.9l0.9-177.3c0-6-2.6-11.6-7.2-15.4c-4.6-3.8-10.6-5.4-16.4-4.4l-174.5,31.7L515.4,24.2c-7.6-9.2-23.2-9.2-30.8,0L371.3,160.6l-174.5-31.7c-5.9-1-11.9,0.5-16.5,4.4c-4.6,3.8-7.2,9.5-7.1,15.4l0.9,177.3l-154,87.9c-5.2,3-8.8,8.1-9.8,13.9c-1,5.9,0.6,11.9,4.4,16.4l114.6,135.3L67.9,745.9c-2.1,5.6-1.5,11.8,1.4,16.9c3,5.2,8.1,8.7,14,9.7l174.8,29.9l59.8,166.9c2,5.6,6.4,10,12,12.1c5.6,2,11.8,1.5,16.9-1.5L500,890.5L653.1,980c3.1,1.8,6.6,2.7,10.1,2.7c2.3,0,4.6-0.4,6.9-1.2c5.6-2,10-6.5,12-12.1l59.8-166.9l174.8-29.9c5.9-1,11-4.6,14-9.7c3-5.2,3.5-11.4,1.4-16.9l-61.5-166.3l114.6-135.3C989.1,439.7,990.7,433.7,989.7,427.9z M500,787c-150.1,0-272.3-122.1-272.3-272.3S349.9,242.5,500,242.5c150.1,0,272.3,122.1,272.3,272.3S650.1,787,500,787z"/></g><g></g><g></g><g></g><g></g><g></g><g></g><g></g><g></g><g></g><g></g><g></g><g></g><g></g><g></g><g></g></g>
</svg>