<?xml version="1.0" encoding="utf-8"?>
<!-- Svg Vector Icons : http://www.onlinewebfonts.com/icon -->
<!DOCTYPE svg PUBLIC "-//W3C//DTD SVG 1.1//EN" "http://www.w3.org/Graphics/SVG/1.1/DTD/svg11.dtd">
<svg version="1.1" xmlns="http://www.w3.org/2000/svg" xmlns:xlink="http://www.w3.org/1999/xlink" x="0px" y="0px" viewBox="0 0 1000 1000" enable-background="new 0 0 1000 1000" xml:space="preserve">
<metadata> Svg Vector Icons : http://www.onlinewebfonts.com/icon </metadata>
<g><path d="M721.6,32L990,11.6l-23.7,265.1c0,0-557.9,463.9-560.1,465.8c34.1,33.9,81.2,81.4,114,114c-16.4,16.3-29,29.1-44.3,44.3c-37.4-37.6-88.7-88.4-128.4-128.4c-72.7,74-145.6,144.3-216,216C80.8,937.6,60.8,917.6,10,866.7C81.8,796.2,153.5,722,225.9,650.8c-39.7-39.5-90.5-90.6-128.8-128.8c15.9-15.9,29.1-29,44.3-44.3c32.4,32.7,80.2,79.9,114.7,114.7"/></g>
</svg>