<?xml version="1.0" encoding="utf-8"?>
<!-- Svg Vector Icons : http://www.onlinewebfonts.com/icon -->
<!DOCTYPE svg PUBLIC "-//W3C//DTD SVG 1.1//EN" "http://www.w3.org/Graphics/SVG/1.1/DTD/svg11.dtd">
<svg version="1.1" xmlns="http://www.w3.org/2000/svg" xmlns:xlink="http://www.w3.org/1999/xlink" x="0px" y="0px" viewBox="0 0 1000 1000" enable-background="new 0 0 1000 1000" xml:space="preserve">
<metadata> Svg Vector Icons : http://www.onlinewebfonts.com/icon </metadata>
<g><g transform="translate(0.000000,511.000000) scale(0.100000,-0.100000)"><path d="M304.5,4950.1C84.9,4840.3,100.2,5019,100.2,2399.8c0-2014.2,5.1-2343.5,40.8-2552.9c160.8-931.8,763.3-1720.6,1631.3-2131.6c347.2-165.9,666.3-240,1082.4-257.9c319.1-15.3,712.3,17.9,788.8,66.4c20.4,12.8,20.4,63.8,5.1,181.2c-12.8,91.9-25.5,439.1-25.5,771v607.6l-1064.6,5.1l-1067.1,7.7l7.7,127.6C1537.5-160.8,2020,395.8,2653.1,554c224.6,56.2,622.9,38.3,816.9-38.3c76.6-28.1,143-53.6,145.5-53.6c2.5,0,7.7,485,12.8,1079.9c7.7,1046.7,10.2,1079.9,63.8,1197.3c76.6,163.4,247.6,342.1,403.3,423.8c196.6,99.6,416.1,102.1,970.1,10.2c252.8-43.4,543.8-86.8,645.9-97l183.8-17.9v814.4c0,765.9-2.5,816.9-53.6,919c-66.4,137.9-232.3,227.2-375.3,206.8c-51.1-7.7-265.5-43.4-477.4-79.1c-781.2-132.8-1085-155.7-2029.5-155.7c-954.8,2.6-1199.8,20.4-2062.7,168.5c-242.5,40.8-449.3,74-459.5,74C427,5006.3,365.7,4980.7,304.5,4950.1z M1787.7,3418.4c130.2-38.3,291-176.1,362.5-311.4c71.5-135.3,74-393.1,7.7-525.9c-186.4-360-628-462.1-947.1-217c-45.9,33.2-114.9,122.5-150.6,196.6C817.6,3048.2,1264.3,3576.6,1787.7,3418.4z"/><path d="M4294.6,2708.7c-45.9-25.5-102.1-79.1-127.6-120c-43.4-66.4-45.9-199.1-45.9-2445.6c0-2547.8-2.6-2504.4,132.8-2923c298.7-934.3,1082.4-1674.7,2027-1914.7c760.7-194,1572.6-76.6,2221,321.7c661.2,408.5,1105.4,1000.7,1317.3,1758.9l71.5,255.3l7.7,2409.9c5.1,1728.3,0,2432.9-20.4,2481.4c-51.1,117.4-163.4,206.8-285.9,219.6c-63.8,7.7-283.4-15.3-508-53.6c-949.7-158.3-1843.2-217-2642.2-171c-569.3,33.2-1156.4,99.6-1593,181.3C4511.6,2772.5,4396.7,2772.5,4294.6,2708.7z M5895.3,1151.4c288.5-148.1,408.5-508,270.6-804.2C6056.1,107.3,5857-7.6,5586.4,7.7c-217,12.8-382.9,107.2-495.3,285.9c-66.4,109.8-76.6,150.6-76.6,306.3c2.6,196.6,40.9,301.3,163.4,431.4C5354,1222.9,5657.8,1274,5895.3,1151.4z M8675.4,1151.4c211.9-107.2,334.4-311.5,334.4-548.9c0-242.5-150.6-472.3-372.7-564.2c-140.4-58.7-362.5-46-513.1,28.1c-485,242.5-421.2,957.3,99.6,1125.8C8356.2,1235.7,8547.7,1217.8,8675.4,1151.4z M8509.4-1993.7c-51.1-393.1-173.6-663.7-403.4-908.8c-298.7-314-658.6-474.8-1074.7-474.8c-278.3-2.5-451.9,38.3-702.1,158.3c-446.7,217-814.3,773.5-816.9,1238.1v94.5h1506.2h1506.2L8509.4-1993.7z"/></g></g>
</svg>