<?xml version="1.0" encoding="utf-8"?>
<!-- Svg Vector Icons : http://www.onlinewebfonts.com/icon -->
<!DOCTYPE svg PUBLIC "-//W3C//DTD SVG 1.1//EN" "http://www.w3.org/Graphics/SVG/1.1/DTD/svg11.dtd">
<svg version="1.1" xmlns="http://www.w3.org/2000/svg" xmlns:xlink="http://www.w3.org/1999/xlink" x="0px" y="0px" viewBox="0 0 1000 1000" enable-background="new 0 0 1000 1000" xml:space="preserve">
<metadata> Svg Vector Icons : http://www.onlinewebfonts.com/icon </metadata>
<g><path d="M656.9,648.9H38.4c-15.7,0-28.4,12.7-28.4,28.4c0,15.7,12.7,28.4,28.4,28.4h618.5c52,0,94.4,42.3,94.4,94.4c0,52-42.3,94.4-94.4,94.4c-37.2,0-71-22-86.2-55.9c-6.4-14.3-23.2-20.8-37.5-14.4c-14.3,6.4-20.8,23.2-14.4,37.5c24.3,54.4,78.5,89.6,138.1,89.6c83.4,0,151.2-67.8,151.2-151.2C808.1,716.8,740.3,648.9,656.9,648.9z"/><path d="M811.5,171.4c-82.2,0-153.4,55.6-173.2,135.2c-3.8,15.2,5.5,30.7,20.7,34.4c15.2,3.8,30.7-5.5,34.4-20.7c13.5-54.2,62.1-92.1,118-92.1c67.1,0,121.6,54.6,121.6,121.6s-54.6,121.6-121.6,121.6H38.4C22.7,471.6,10,484.3,10,500c0,15.7,12.7,28.4,28.4,28.4h773.1c98.4,0,178.5-80.1,178.5-178.5C990,251.5,909.9,171.4,811.5,171.4z"/><path d="M38.4,351.1h372.9c0.8,0,1.5,0,2.3-0.1c0.8,0.1,1.5,0.1,2.3,0.1c83.4,0,151.2-67.8,151.2-151.2c0-83.4-67.8-151.2-151.2-151.2c-59.6,0-113.8,35.2-138.1,89.6c-6.4,14.3,0,31.1,14.4,37.5c14.3,6.4,31.1,0,37.5-14.4c15.2-34,49-55.9,86.2-55.9c52,0,94.4,42.3,94.4,94.4c0,52-42.3,94.4-94.4,94.4c-0.8,0-1.5,0-2.3,0.1c-0.8-0.1-1.5-0.1-2.3-0.1H38.4c-15.7,0-28.4,12.7-28.4,28.4S22.7,351.1,38.4,351.1z"/></g>
</svg>