<?xml version="1.0" encoding="utf-8"?>
<!-- Svg Vector Icons : http://www.onlinewebfonts.com/icon -->
<!DOCTYPE svg PUBLIC "-//W3C//DTD SVG 1.1//EN" "http://www.w3.org/Graphics/SVG/1.1/DTD/svg11.dtd">
<svg version="1.1" xmlns="http://www.w3.org/2000/svg" xmlns:xlink="http://www.w3.org/1999/xlink" x="0px" y="0px" viewBox="0 0 1000 1000" enable-background="new 0 0 1000 1000" xml:space="preserve">
<metadata> Svg Vector Icons : http://www.onlinewebfonts.com/icon </metadata>
<g><g transform="translate(0.000000,511.000000) scale(0.100000,-0.100000)"><path d="M4704.4,4125c-505.5-36.4-938.1-72.7-963-84.2c-36.4-15.3-44-32.5-38.3-90c3.8-38.3,19.1-78.5,38.3-90c23-13.4,291-1.9,966.9,42.1c1183.2,80.4,1190.8,80.4,1223.4,113c32.5,34.5,34.5,124.4,3.8,155.1C5902.9,4203.5,5747.9,4197.7,4704.4,4125z"/><path d="M4675.7,3525.7c-185.7-59.4-312.1-137.9-451.9-277.6c-231.7-231.7-342.7-541.8-296.8-823.3c44-273.8,214.4-536.1,413.6-639.5c137.9-70.8,415.5-82.3,643.3-24.9c553.3,137.9,825.2,461.4,798.4,943.9c-7.7,122.5-21.1,174.2-80.4,291C5577.5,3250,5319,3462.5,5049,3531.5C4903.5,3569.7,4807.8,3567.8,4675.7,3525.7z M5064.3,3299.8c130.2-40.2,304.4-180,394.4-314c170.4-256.6,145.5-582-61.3-788.8c-183.8-183.8-654.8-310.2-901.8-241.2c-264.2,72.7-432.7,509.3-317.8,827.1c57.4,157,111,237.4,224,340.8c170.4,151.2,369.5,235.5,513.1,214.4C4947.6,3332.3,5012.7,3315.1,5064.3,3299.8z"/><path d="M6848.7,1894.5c-273.8-40.2-559.1-162.7-804.1-346.5c-118.7-91.9-260.4-243.1-312.1-335.1c-19.1-32.5-23-32.5-93.8,5.8c-162.7,91.9-270,112.9-541.8,112.9c-218.3,0-281.5-7.7-402.1-45.9c-113-34.5-323.6-122.5-404-168.5c-5.7-3.8-44,42.1-86.2,103.4c-132.1,191.5-459.5,421.2-735.2,515c-285.3,95.7-641.4,116.8-857.7,47.9c-252.7-78.5-488.2-281.5-696.9-605C1704.3,854.9,1650.7,673,1602.8,135c-34.5-392.5-187.6-1173.6-279.5-1426.4c-128.3-354.2-354.2-585.8-955.4-986c-132.1-88.1-245.1-168.5-252.7-180c-28.7-42.1-15.3-107.2,28.7-135.9c36.4-23,137.9-32.6,494-40.2c476.7-13.4,890.3,9.6,1144.9,61.3c203,42.1,698.8,210.6,1083.7,367.6c180,74.7,327.4,126.4,331.2,118.7c11.5-32.5-74.7-354.2-132.1-484.4c-109.1-248.9-358-589.7-762-1043.4c-107.2-118.7-193.4-227.8-193.4-241.3c0-15.3,15.3-45.9,36.4-70.8l36.4-44.1l1345.9,82.3c740.9,45.9,1883.9,128.3,2540.6,183.8c1032,86.2,1196.6,103.4,1229.2,134c21.1,19.1,38.3,47.9,38.3,63.2s-76.6,145.5-168.5,289.1C6896.6-2800,6686-2415.2,6686-2334.8c0,21.1-11.5,59.4-26.8,82.3c-36.4,57.4-61.3,262.3-32.5,262.3c11.5,0,149.3-40.2,304.4-88.1c683.5-212.5,1254-348.5,1765.2-419.3c235.5-32.5,1033.9-61.3,1116.2-40.2c28.7,5.7,59.4,30.6,72.8,51.7c38.3,72.7,5.8,124.4-141.7,216.3c-277.6,172.3-580.1,404-750.5,574.4c-264.2,266.1-323.6,404-469.1,1110.4c-67,327.4-103.4,562.9-126.3,815.6c-17.2,193.4-47.9,417.4-67,497.8c-76.6,298.7-262.3,614.6-503.6,852C7539.9,1865.8,7264.2,1953.8,6848.7,1894.5z M7335,1655.2c201-63.2,436.5-283.4,599.3-555.2c151.2-258.5,206.8-442.3,235.5-783.1c26.8-338.9,55.5-536.1,135.9-938.1c147.4-719.9,237.4-928.6,524.6-1215.8c99.6-101.5,268-247,373.3-325.5c105.3-76.6,201-147.4,210.6-158.9c57.4-51.7-1054.9,74.7-1313.4,151.3c-40.2,11.5-214.4,262.3-275.7,394.4c-42.1,91.9-105.3,381-105.3,480.6c0,91.9-135.9,147.4-191.5,80.4c-61.3-74.7,30.6-545.7,145.5-750.5c67-120.6,67-124.4,24.9-111c-76.6,23-93.8,36.4-220.2,183.8c-145.5,166.6-204.9,277.6-254.6,482.5c-21.1,82.3-47.9,162.7-59.3,176.1c-38.3,46-128.3,36.4-162.7-17.2c-26.8-40.2-26.8-57.4,0-172.3c40.2-174.2,93.8-312.1,162.7-419.3c30.6-49.8,49.8-90,42.1-90c-11.5,0-580.1,174.2-591.6,180c-1.9,1.9-21.1,201-44,442.3c-61.3,708.4-93.8,963-141.7,1177.5c-86.2,377.2-271.9,806.1-457.6,1051.1l-93.8,122.5l76.6,107.2C6232.2,1542.2,6908.1,1791.1,7335,1655.2z M3306.8,1561.3c262.3-72.7,587.8-283.4,719.9-467.1l72.7-101.5l-90-72.7C3728,696,3548,422.2,3458,77.5c-95.7-363.8-218.3-1321-218.3-1705.9c0-86.2-9.6-157-23-174.2c-23-28.7-340.8-174.2-352.3-162.7c-3.8,1.9,13.4,61.3,38.3,128.3c24.9,68.9,59.4,191.5,78.5,273.8c30.6,137.9,30.6,151.3,1.9,195.3c-34.5,51.7-99.6,63.2-149.3,24.9c-17.2-13.4-49.8-101.5-72.7-197.2c-57.4-245.1-109.1-344.6-260.4-499.7c-97.6-99.6-153.2-139.8-216.3-158.9c-44-13.4-93.8-28.7-105.3-32.5c-13.4-5.7,3.8,49.8,40.2,120.6c90,185.7,153.2,432.7,124.4,494c-17.2,38.3-36.4,47.9-88.1,47.9c-80.4,0-95.7-19.2-135.9-170.4c-76.6-296.8-134-384.8-361.9-557.1c-93.8-70.8-122.5-82.3-254.6-97.6c-82.3-9.6-323.6-15.3-536.1-13.4l-386.7,5.7l227.8,170.4c432.7,321.7,633.7,578.2,754.3,966.9c88.1,279.5,222.1,982.2,252.7,1323c40.2,459.5,68.9,589.7,180,815.6c189.5,384.8,413.5,614.6,698.8,710.3C2793.7,1616.9,3149.8,1603.5,3306.8,1561.3z M5311.3,1109.5c304.4-63.2,528.4-294.9,729.4-756.3c168.5-384.8,220.2-651,289.1-1462.7c44-534.2,86.2-1114.3,80.4-1123.9c-7.6-11.5-3055.7-279.5-3065.2-270c-5.7,5.7,7.6,82.3,26.8,170.4c51.7,218.3,72.8,413.5,97.7,897.9c21,430.8,128.3,1183.2,212.5,1493.4c55.5,203,157,382.9,310.2,547.6C4346.4,985.1,4897.8,1195.7,5311.3,1109.5z M6530.9-2549.2c49.8-120.6,254.6-480.5,396.3-698.8c55.5-88.1,95.7-158.9,88.1-158.9c-7.7,0-526.5-42.1-1152.6-95.7c-842.4-70.8-3180.1-229.7-3356.2-229.7c-7.7,0,45.9,70.8,120.6,157c191.5,222.1,405.9,503.5,515,679.7c76.6,124.5,101.5,151.3,147.4,155.1c157,17.2,3090.1,287.2,3139.9,289.1C6485-2449.7,6492.6-2457.3,6530.9-2549.2z"/><path d="M4962.9,18.2c-36.4-23-90-63.2-120.6-90l-51.7-49.8L4737-81.4c-189.6,139.8-325.5,134-501.6-24.9c-132.1-120.6-162.7-197.2-162.7-419.3c0-229.8,30.6-300.6,183.8-438.4c155.1-139.8,482.5-317.8,582-317.8c107.2,0,538,390.6,633.7,574.4c49.8,93.8,55.5,124.4,55.5,287.2c0,157-5.7,193.4-46,262.3C5376.4,25.8,5121.8,112,4962.9,18.2z M5209.9-180.9c116.8-59.3,149.3-273.8,68.9-430.8c-44-84.2-181.9-231.7-333.1-350.4l-122.5-97.6l-158.9,82.3c-193.4,97.6-340.8,225.9-371.4,319.7c-55.5,166.6,15.3,375.3,147.4,438.4c55.5,26.8,68.9,26.8,114.9,1.9c30.6-15.3,84.2-57.4,118.7-95.7c95.7-97.7,137.9-91.9,281.5,45.9C5081.6-146.5,5119.9-133.1,5209.9-180.9z"/></g></g>
</svg>