<?xml version="1.0" encoding="utf-8"?>
<!-- Svg Vector Icons : http://www.onlinewebfonts.com/icon -->
<!DOCTYPE svg PUBLIC "-//W3C//DTD SVG 1.1//EN" "http://www.w3.org/Graphics/SVG/1.1/DTD/svg11.dtd">
<svg version="1.1" xmlns="http://www.w3.org/2000/svg" xmlns:xlink="http://www.w3.org/1999/xlink" x="0px" y="0px" viewBox="0 0 1000 1000" enable-background="new 0 0 1000 1000" xml:space="preserve">
<metadata> Svg Vector Icons : http://www.onlinewebfonts.com/icon </metadata>
<g><g transform="translate(0.000000,511.000000) scale(0.100000,-0.100000)"><path d="M4137.5,1604.2v-2766.6h1926.1c1060,0,1926.1,2.3,1926.1,7c0,4.7-46.7,133.1-102.7,287.2C7546.2,68,7039.6,1076.6,6525.9,1837.7C6038,2563.8,5414.6,3299.2,4847.3,3815.2c-301.2,273.2-651.4,555.7-688.7,555.7C4146.9,4370.9,4137.5,3177.8,4137.5,1604.2z"/><path d="M3525.8,1711.6C2641,1118.6,2090,159,2022.3-910.3l-16.3-252.1h856.8h854.5V331.8c0,821.8-4.7,1494.2-9.3,1494.2C3703.3,1826,3621.6,1774.7,3525.8,1711.6z"/><path d="M247.9-1615.4c-142.4-63-186.8-200.8-112.1-347.9c21-39.7,298.8-462.3,616.4-938.6c595.4-891.9,674.7-989.9,903.5-1116c256.8-137.8,116.7-133.1,3345.6-133.1c3228.9,0,3088.8-4.7,3345.6,133.1c63.1,35,163.4,105.1,221.8,156.4c142.5,126.1,1302.8,1865.4,1326.1,1989.2c21,112.1-23.3,193.8-130.7,247.5c-77.1,39.7-352.5,42-4762.8,42C1109.4-1585,308.6-1589.6,247.9-1615.4z"/></g></g>
</svg>