<?xml version="1.0" encoding="utf-8"?>
<!-- Svg Vector Icons : http://www.onlinewebfonts.com/icon -->
<!DOCTYPE svg PUBLIC "-//W3C//DTD SVG 1.1//EN" "http://www.w3.org/Graphics/SVG/1.1/DTD/svg11.dtd">
<svg version="1.1" xmlns="http://www.w3.org/2000/svg" xmlns:xlink="http://www.w3.org/1999/xlink" x="0px" y="0px" viewBox="0 0 1000 1000" enable-background="new 0 0 1000 1000" xml:space="preserve">
<metadata> Svg Vector Icons : http://www.onlinewebfonts.com/icon </metadata>
<g><g transform="translate(0.000000,511.000000) scale(0.100000,-0.100000)"><path d="M3015,3765.8l-1516.5-5.7l-128.3-135.9c-279.6-296.8-570.6-741-813.8-1246.5C60.5,1349.4-37.1,480.1,292.2-12c174.2-262.3,524.6-442.3,859.7-442.3c247-1.9,411.7,63.2,641.5,250.8l135.9,111.1l13.4-155.1c55.5-681.7,248.9-1416.9,494-1870.7c402.1-744.9,1001.4-1192.9,1815.2-1359.5c580.2-118.7,1275.2-86.2,1798,80.4c256.6,82.3,442.3,170.4,662.5,317.8C7459.2-2583.6,7911.1-1643.4,8045.1-305l23,233.6l124.5-114.9c252.8-231.7,541.9-321.7,842.5-262.3c432.8,86.2,710.4,344.7,829.1,771.6c36.4,134,40.2,185.7,32.5,467.2c-11.5,348.5-40.2,513.2-160.8,884.6c-212.6,662.5-645.3,1441.8-1051.2,1899.5L8520,3760.1H7195c-729.5,0-1625.7,3.8-1995.2,5.7C4832.1,3769.7,3847.9,3769.7,3015,3765.8z M3436.3,3239.3c-174.2-162.8-396.4-465.3-580.2-790.8c-155.1-271.9-501.7-968.9-691.2-1392.1c-53.6-122.5-124.5-250.8-153.2-281.5c-53.6-53.6-61.3-78.5-86.2-266.2c-15.3-118.7-67-210.6-176.2-312.1C1454.5-77.1,1107.9-128.8,793.9,55c-99.6,57.4-187.6,187.6-239.3,354.2c-51.7,158.9-55.5,494-9.6,718c91.9,444.2,308.3,978.5,601.2,1493.5c107.2,187.6,352.3,568.7,428.9,666.3l57.4,70.8h965h967L3436.3,3239.3z M5755.1,3329.3c432.7-113,787-528.5,1248.4-1466.7c95.7-193.4,287.2-584,427-867.4L7683.2,482l-13.4-281.5c-93.8-2025.9-758.2-3063.7-2108.2-3295.3c-291.1-49.8-785.1-53.6-1085.7-9.6C3166.3-2909.1,2482.7-1955.5,2339.1-128.8c-11.5,141.7-21.1,331.2-21.1,419.3c0,158.9,0,162.8,132.1,430.8c70.8,149.4,233.6,482.5,358.1,741c430.8,892.3,631.9,1233.1,886.5,1499.3c203,212.5,386.8,331.3,585.9,375.3c42.1,9.6,365.7,17.2,718,19.1C5519.5,3358,5663.1,3352.3,5755.1,3329.3z M8474.1,3229.7c189.6-264.2,400.2-620.4,574.4-972.7c199.2-404,292.9-639.5,379.1-967c53.6-199.1,59.4-248.9,59.4-517c1.9-268.1-3.9-308.3-44.1-409.7c-63.2-157-164.7-260.4-331.3-338.9c-268.1-124.5-478.7-76.6-714.2,162.7c-128.3,130.2-315.9,398.3-315.9,450c0,19.2-21.1,53.6-46,76.6c-24.9,23-109.1,178.1-185.7,342.7C7216,2406.4,6911.6,2923.3,6551.6,3256.5L6444.4,3358h968.9h967L8474.1,3229.7z"/><path d="M3179.7,985.6c-170.4-55.5-315.9-178.1-398.3-337c-44-82.3-51.7-118.7-51.7-268.1c0-149.3,7.7-185.7,53.6-281.5c99.6-203,319.8-346.6,538.1-348.5c168.5-1.9,243.2,19.2,369.6,103.4c260.4,174.3,354.2,494,225.9,777.4c-101.5,225.9-291,354.2-543.8,363.8C3292.7,999,3206.5,995.2,3179.7,985.6z M3438.2,573.9c76.6-32.6,124.5-114.9,124.5-214.5c0-53.6-15.3-84.3-65.1-134c-55.5-55.5-78.5-65.1-151.3-65.1c-199.1,0-296.8,233.6-151.3,367.6C3279.3,606.5,3332.9,616,3438.2,573.9z"/><path d="M6408,954.9c-139.8-57.4-264.3-176.2-333.2-315.9c-44-88.1-51.7-130.2-51.7-258.5c0-135.9,7.7-170.4,63.2-281.5c34.5-68.9,93.8-155.1,132.1-189.6c254.7-222.1,633.8-212.5,867.4,21.1c168.5,168.5,225.9,400.2,155.1,633.8c-36.4,116.8-59.3,155.1-151.3,247C6898.2,1000.9,6649.3,1054.5,6408,954.9z M6741.2,572c76.6-40.2,114.9-101.5,114.9-185.7c0-95.7-34.5-166.6-97.6-199.1c-118.7-61.3-258.5-17.2-314,101.5c-30.6,63.2-30.6,78.5-7.7,147.4c28.7,86.2,128.3,164.7,203,164.7C6664.6,600.7,6710.6,587.3,6741.2,572z"/><path d="M4493.2-693.7c-293-38.3-781.2-141.7-831-174.3c-68.9-44-105.3-145.5-80.4-231.7c46-172.3,291.1-494,733.4-963.1c160.8-168.5,361.9-392.5,450-497.8c128.3-151.3,172.3-191.5,224-201c107.2-19.2,164.7,13.4,273.8,157c229.8,298.7,360,459.6,589.8,720c132.1,151.3,283.4,329.3,335.1,398.3c103.4,136,247,404,247,461.5c0,61.3-44.1,134-97.6,162.8c-63.2,32.5-564.9,134-840.6,172.3C5247.7-657.3,4746-659.2,4493.2-693.7z M5611.5-1122.6c337-55.5,317.8-44,247-143.6c-34.5-47.9-199.1-243.2-367.6-434.7c-166.6-193.4-337-390.6-375.3-440.4c-38.3-49.8-74.7-88.1-80.4-86.2c-7.7,1.9-84.2,86.2-172.3,185.7c-86.2,99.6-218.3,247-293,325.5c-216.4,227.9-451.9,503.6-451.9,528.5c0,21.1,260.4,70.8,555.3,103.4C4887.7-1059.4,5341.5-1078.5,5611.5-1122.6z"/></g></g>
</svg>