<?xml version="1.0" encoding="utf-8"?>
<!-- Svg Vector Icons : http://www.onlinewebfonts.com/icon -->
<!DOCTYPE svg PUBLIC "-//W3C//DTD SVG 1.1//EN" "http://www.w3.org/Graphics/SVG/1.1/DTD/svg11.dtd">
<svg version="1.1" xmlns="http://www.w3.org/2000/svg" xmlns:xlink="http://www.w3.org/1999/xlink" x="0px" y="0px" viewBox="0 0 1000 1000" enable-background="new 0 0 1000 1000" xml:space="preserve">
<metadata> Svg Vector Icons : http://www.onlinewebfonts.com/icon </metadata>
<g><g transform="translate(0.000000,512.000000) scale(0.100000,-0.100000)"><path d="M4635.7,4992.9c-655.3-78.6-1170.8-335.3-1626.9-806.7c-417.7-431.2-730.1-1053.9-862.3-1722.7c-51.7-258.7-72.8-783.7-40.2-977.3c69-389,247.2-567.2,421.6-421.6c132.2,113.1,205,360.2,337.3,1142.1c161,958.1,228,1165.1,469.5,1421.8c272.1,289.3,762.7,605.5,1168.9,751.2c392.8,139.9,856.6,197.4,1188.1,145.6c820.1-126.5,1377.8-678.3,1607.7-1588.5c145.6-571,141.8-1331.8-9.6-2015.9c-199.3-904.5-594-1569.4-1322.2-2224.7c-297-270.2-661.1-638.1-770.3-783.8c-111.1-149.4-247.2-450.3-389-852.7c-262.5-755-417.7-1004.1-724.3-1153.6c-103.5-51.8-118.8-53.7-413.9-53.7c-283.6,0-318.1,3.8-471.4,53.7C2834.4-3973.2,2683-3760.4,2683-3360c0,187.8,24.9,350.7,111.1,726.3c134.1,576.8,116.9,768.4-72.8,879.6c-220.4,130.3-609.4-99.6-791.4-465.6c-101.6-201.2-134.1-381.3-122.6-649.6c9.6-256.8,53.7-435,164.8-695.6c258.7-599.8,716.7-1027.1,1266.6-1178.5c185.9-51.7,607.4-47.9,814.4,7.7c231.9,63.2,442.7,174.4,597.9,318.1c210.8,195.4,333.4,398.6,609.4,1017.5c297,668.8,473.3,898.7,1082.7,1418c605.5,515.5,732,684.1,1180.4,1580.9c590.2,1180.4,762.7,1985.2,628.5,2922.3c-139.9,971.5-682.2,1743.8-1521.5,2165.3C6080.5,4962.2,5333.2,5077.2,4635.7,4992.9z"/><path d="M4675.9,3640c-362.2-23-620.9-168.6-835.5-469.5c-193.5-272.1-295.1-586.4-308.5-965.8c-13.4-364.1,5.8-435,298.9-1034.8c136-279.8,274-582.5,306.6-674.5C4260.1,142.9,4240.9,54.8,4011-89c-185.9-115-310.4-243.4-394.7-404.3c-293.2-561.5-178.2-1167,264.4-1385.4c310.4-151.4,661.1-51.7,912.1,258.7c161,201.2,429.2,795.2,528.9,1174.7c65.2,254.8,69,548,5.8,743.5c-88.1,274-228,492.5-527,814.4c-362.2,390.9-513.5,659.2-567.2,998.4c-72.8,471.4,266.4,910.2,760.7,981.1c400.5,57.5,776.1-155.2,963.9-546.1c191.6-404.3,214.6-877.6,76.7-1615.4c-32.6-168.6-59.4-366-61.3-440.7c-3.8-122.6,0-134.1,34.5-134.1c88.1,0,387.1,722.4,521.2,1264.7c46,184,53.6,247.2,51.7,507.8c0,300.8-17.3,425.4-88.2,651.5c-168.6,534.6-599.8,820.1-1289.6,854.6c-105.4,5.7-222.3,11.5-258.7,13.4C4907.8,3651.5,4787.1,3647.7,4675.9,3640z"/></g></g>
</svg>