<?xml version="1.0" encoding="utf-8"?>
<!-- Svg Vector Icons : http://www.onlinewebfonts.com/icon -->
<!DOCTYPE svg PUBLIC "-//W3C//DTD SVG 1.1//EN" "http://www.w3.org/Graphics/SVG/1.1/DTD/svg11.dtd">
<svg version="1.1" xmlns="http://www.w3.org/2000/svg" xmlns:xlink="http://www.w3.org/1999/xlink" x="0px" y="0px" viewBox="0 0 1000 1000" enable-background="new 0 0 1000 1000" xml:space="preserve">
<metadata> Svg Vector Icons : http://www.onlinewebfonts.com/icon </metadata>
<g><g><g><circle cx="276.2" cy="500.9" r="58.6"/><circle cx="656.8" cy="92.7" r="82.7"/><path d="M782.5,192.6c-22.4-10.3-68.9-6.9-75.8-6.9l-41.3,82.7l5.2-68.9h1.7v-13.8h-25.8v13.8h1.7l5.2,68.9L612,185.7c-6.9,0-55.1-3.4-75.8,6.9c-34.4,12.1-108.5,67.2-155,322.1c-1.7,6.9,0,15.5,1.7,22.4c-18.9,13.8-49.9,29.3-103.3,29.3c-53.4,0-94.7,15.5-124,46.5C110.8,661,116,726.5,116,728.2c1.7,13.8,13.8,25.8,27.6,25.8h1.7c15.5-1.7,27.6-13.8,25.8-29.3c0,0-1.7-44.8,24.1-74.1c3.4-3.4,6.9-6.9,12.1-10.3v86.1c0,8.6,1.7,17.2,5.2,25.8v205c0,15.5,13.8,29.3,29.3,29.3c15.5,0,29.3-13.8,29.3-29.3V797.1c1.7,0,5.2,0,6.9,0c3.4,0,5.2,0,6.9,0v160.2c0,15.5,13.8,29.3,29.3,29.3s29.3-13.8,29.3-29.3v-205c3.4-8.6,5.2-17.2,5.2-25.8V612.8c43.1-12.1,68.9-32.7,84.4-48.2c15.5-5.2,27.6-17.2,31-32.7c27.6-149.8,62-213.6,82.7-239.4v329v320.4c0,25.8,18.9,48.2,46.5,48.2c27.6,0,48.2-20.7,48.2-48.2V605.9c0,0,1.7-15.5,18.9-17.2c17.2,0,18.9,17.2,18.9,17.2v332.4c0,25.8,22.4,48.2,48.2,48.2c25.8,0,46.5-20.7,46.5-48.2V618V344.1c0,0,20.7,74.1,22.4,136.1c0,56.8,89.6,56.8,87.8,0C879,232.2,782.5,192.6,782.5,192.6z"/></g></g><g></g><g></g><g></g><g></g><g></g><g></g><g></g><g></g><g></g><g></g><g></g><g></g><g></g><g></g><g></g></g>
</svg>