<?xml version="1.0" encoding="utf-8"?>
<!-- Svg Vector Icons : http://www.onlinewebfonts.com/icon -->
<!DOCTYPE svg PUBLIC "-//W3C//DTD SVG 1.1//EN" "http://www.w3.org/Graphics/SVG/1.1/DTD/svg11.dtd">
<svg version="1.1" xmlns="http://www.w3.org/2000/svg" xmlns:xlink="http://www.w3.org/1999/xlink" x="0px" y="0px" viewBox="0 0 1000 1000" enable-background="new 0 0 1000 1000" xml:space="preserve">
<metadata> Svg Vector Icons : http://www.onlinewebfonts.com/icon </metadata>
<g><g transform="translate(0.000000,511.000000) scale(0.100000,-0.100000)"><path d="M4835.7,3969.8c-70.4-55.7-1399.6-1185.4-1581.5-1346.8c-55.7-49.9-67.5-44-331.5,181.9c-225.9,190.7-290.5,231.8-372.6,231.8c-88,0-199.5-85.1-930.1-707.1c-457.7-387.3-848-727.7-865.6-754.1c-49.9-61.6-46.9-196.6,2.9-296.3c41.1-76.3,249.4-278.7,349.2-340.4c41.1-23.5-14.7-85.1-349.2-363.8C537.2,390.2,346.5,205.4,328.9,164.3C267.3,0,437.4-275.9,701.5-446c73.3-44,129.1-90.9,123.2-99.7c-2.9-11.7-158.5-149.7-343.3-305.2c-184.8-158.5-346.2-302.2-358-319.8c-11.7-17.6-23.5-76.3-23.5-129.1c0-372.6,572.2-771.7,1423.1-988.8l264.1-67.5l14.7-328.6l14.7-328.6l108.6-96.8c287.5-264.1,991.7-255.3,1261.7,14.7c105.6,105.6,111.5,120.3,111.5,305.2c0,217.1,2.9,220.1,208.3,149.6c70.4-23.5,249.4-67.5,393.2-96.8l264.1-55.8l14.7-349.1c17.6-416.6,44-469.5,287.5-589.8c155.5-76.3,193.7-82.1,534-82.1c343.3,0,378.5,5.9,536.9,82.1c243.5,120.3,267,170.2,284.6,589.8l14.7,349.1l264.1,55.8c146.7,29.3,322.8,73.4,393.2,96.8c205.4,70.4,208.3,67.5,208.3-149.6c0-184.9,5.9-199.5,111.5-305.2c270-269.9,974.1-278.7,1261.7-14.7l108.6,96.8l14.7,328.6l14.7,328.6l264.1,67.5c850.9,217.1,1423.1,616.2,1423.1,988.8c0,52.8-11.7,111.5-23.5,129.1c-11.7,17.6-173.1,161.4-358,319.8c-184.8,155.5-340.4,293.4-343.3,305.2c-5.9,8.8,49.9,55.7,123.2,99.7c264.1,167.3,443,463.6,375.6,616.2c-17.6,35.2-211.3,217.1-431.3,402c-390.2,331.6-396.1,337.4-331.6,381.4c267,179,416.7,416.7,355,572.2c-14.7,38.1-407.9,393.2-871.4,789.3c-742.3,633.8-856.8,721.8-944.8,721.8c-82.1,0-149.6-41.1-372.6-231.8l-272.9-231.8l-161.4,137.9c-88,76.3-393.2,337.4-674.9,578c-830.4,710.1-874.4,745.3-965.3,745.3C4956,4034.4,4882.6,4005.1,4835.7,3969.8z M5915.4,2743.4l874.4-748.2l-79.2-67.5c-46.9-38.1-205.4-126.2-355-199.5c-284.6-137.9-346.2-208.3-311-346.2c8.8-41.1,267-281.7,645.5-607.4c531.1-451.9,622-542.8,589.8-578c-58.7-73.3-402-284.6-613.2-381.4c-208.3-93.9-255.3-161.4-217.1-311c8.8-41.1,240.6-258.2,595.6-560.4l578-492.9l-120.3-105.6c-349.2-308.1-1059.2-589.7-1748.7-689.5c-396.1-61.6-1112.1-61.6-1508.2,0c-689.5,99.8-1399.6,381.4-1748.7,689.5l-120.3,105.6l578,492.9c355,302.2,586.8,519.4,595.6,560.4c41.1,158.5-2.9,208.3-319.8,363.8c-164.3,79.2-358,196.6-428.4,258.2l-126.2,111.5l616.2,522.3c340.4,290.5,630.8,560.4,651.4,598.6c64.6,146.7-5.9,225.9-334.5,384.4c-487.1,234.7-537,135,487.1,1009.3c487.1,413.7,897.8,751.1,912.5,745.3C5026.4,3491.6,5431.3,3154.2,5915.4,2743.4z M2708.4,2394.2l129.1-111.5l-67.5-90.9c-135-181.9-8.8-448.9,322.8-674.8c105.6-70.4,193.7-137.9,196.6-149.6c2.9-8.8-205.4-196.6-463.6-413.7c-610.3-513.5-654.3-563.4-627.9-698.3c44-228.9,228.9-446,545.8-639.6c146.7-88,170.2-114.4,137.9-143.8c-20.5-20.5-223-190.7-448.9-381.4c-225.9-190.7-434.2-372.7-460.7-402c-108.6-123.2-49.9-375.6,135-575.1l61.6-70.4l-146.7,20.5c-252.3,38.1-669,152.6-889,246.5c-220.1,90.9-534,284.6-534,325.7c0,11.8,190.7,184.8,425.4,384.4c255.3,217.1,434.2,393.2,446,434.3c35.2,143.8-23.5,217.1-278.7,343.3c-223,108.6-390.2,228.9-355,255.3c296.4,237.7,903.7,783.4,930.1,839.2c67.5,135,8.8,223-237.7,337.4c-120.3,58.7-231.8,123.2-252.3,143.8c-26.4,35.2,91,146.7,604.4,586.8c352.1,302.2,654.3,545.8,669,545.8C2567.6,2505.7,2638,2455.8,2708.4,2394.2z M8121.9,1954.1c495.8-422.5,627.9-548.7,601.5-578c-17.6-20.5-129.1-85.1-249.4-143.8c-249.4-117.4-308.1-202.5-240.6-343.3c20.5-44,196.6-214.2,390.2-378.5s396.1-337.4,451.9-384.4l99.7-88l-61.6-58.7c-32.3-35.2-170.2-114.4-305.2-181.9c-255.3-129.1-314-199.5-278.7-346.2c11.7-44,179-205.4,446-431.3c234.7-199.5,425.4-369.7,425.4-381.4c0-32.3-355-252.3-551.6-337.4c-190.7-82.1-622.1-199.5-868.5-237.7l-143.8-20.5l79.2,93.9c152.5,184.8,214.2,390.2,146.7,504.7c-14.7,23.5-231.8,220.1-481.2,434.3c-249.4,214.2-466.5,399-478.3,410.8c-14.7,11.7,26.4,52.8,88,88c448.9,270,692.5,601.5,595.6,818.6c-20.5,41.1-269.9,275.8-557.5,516.4c-287.5,243.5-522.3,448.9-519.4,457.7c3,11.7,91,79.2,196.6,149.6c223,152.6,349.2,316.9,372.6,490c14.7,102.7,5.9,135-52.8,196.6l-70.4,76.3l132,114.4c73.3,61.6,146.7,111.5,167.3,105.6C7473.5,2496.9,7775.7,2250.5,8121.9,1954.1z M2858.1-2611.4v-187.8l-108.6-29.4c-61.6-17.6-149.6-32.3-199.5-32.3c-46.9,0-137.9,14.7-196.6,32.3l-111.5,29.4v187.8v190.7H2550h308.1V-2611.4z M7758.1-2611.4v-187.8l-108.6-29.4c-61.6-17.6-149.6-32.3-199.5-32.3c-46.9,0-137.9,14.7-196.6,32.3l-111.5,29.4v187.8v190.7H7450h308.1V-2611.4z M5381.4-3083.8v-240.6l-129.1-32.3c-73.4-17.6-184.8-32.3-252.3-32.3s-179,14.7-252.3,32.3l-129.1,32.3v240.6v237.6H5000h381.4V-3083.8z"/></g></g>
</svg>