<?xml version="1.0" encoding="utf-8"?>
<!-- Svg Vector Icons : http://www.onlinewebfonts.com/icon -->
<!DOCTYPE svg PUBLIC "-//W3C//DTD SVG 1.1//EN" "http://www.w3.org/Graphics/SVG/1.1/DTD/svg11.dtd">
<svg version="1.1" xmlns="http://www.w3.org/2000/svg" xmlns:xlink="http://www.w3.org/1999/xlink" x="0px" y="0px" viewBox="0 0 1000 1000" enable-background="new 0 0 1000 1000" xml:space="preserve">
<metadata> Svg Vector Icons : http://www.onlinewebfonts.com/icon </metadata>
<g><g><path d="M963.9,346.2c0-27.8-22.5-50.2-50.2-50.2h-50.2v108.8h50.2c27.8,0,50.2-22.5,50.2-50.2V346.2z"/><path d="M963.9,474.5c0-27.7-22.5-50.2-50.2-50.2h-50.2v108.8h50.2c27.8,0,50.2-22.5,50.2-50.2V474.5z"/><path d="M963.9,611.2v-8.4c0-27.7-22.5-50.2-50.2-50.2h-50.2v108.8h50.2C941.4,661.4,963.9,639,963.9,611.2z"/><path d="M990,156.9v-7c0-27.7-21.6-43.8-48.2-36l-78.4,9.1v115.8l79.2-15C968.8,214.6,990,184.6,990,156.9z"/><path d="M690.7,765.9h105c27.5,0,49.7-22.3,49.7-49.8V77.7c0-27.5-22.3-49.8-49.7-49.8H461c-27.5,0-49.7,22.3-49.7,49.8v167.9v209.1h67.1V123.7c0-7.6,6.2-13.7,13.7-13.7h272.4c7.6,0,13.7,6.1,13.7,13.7v491.5c0,7.6-6.1,13.7-13.7,13.7H520.9v85.1c-1.8,6.1-3.7,11.1-3.7,11.1h87.2c-5.1-5.6-8.3-12.9-8.3-21.1c0-17.3,14-31.3,31.3-31.3c17.3,0,31.3,14,31.3,31.3c0,8.1-3.2,15.5-8.3,21.1h48.7l-4.6,23.7C694.5,750,693.2,756.3,690.7,765.9z"/><path d="M480.6,951c29.2-14.6,70-31.9,105.9-57.7c54.4-39.1,73.9-139.5,73.9-139.5H515.6c-30.2,69.1-92.4,127.5-95.5,130.4c-3.8,3.6-8.7,5.3-13.5,5.3c-5.3,0-10.7-2.1-14.6-6.4c-7.5-8.1-7-20.7,1-28.2c0.8-0.7,73.5-69,93.8-137.8V607h168.8c37,0,67-27.9,67-62.3c0-34.4-30-62.2-67-62.2H379.3V287.9l-109,73.4c-31.7,19-68.4,62.3-81.9,96.8L12.3,934.7c-7.6,20.6,4,37.4,26,37.4h368.7C429.1,972.1,460.9,960.8,480.6,951z"/></g><g></g><g></g><g></g><g></g><g></g><g></g><g></g><g></g><g></g><g></g><g></g><g></g><g></g><g></g><g></g></g>
</svg>