<?xml version="1.0" encoding="utf-8"?>
<!-- Svg Vector Icons : http://www.onlinewebfonts.com/icon -->
<!DOCTYPE svg PUBLIC "-//W3C//DTD SVG 1.1//EN" "http://www.w3.org/Graphics/SVG/1.1/DTD/svg11.dtd">
<svg version="1.1" xmlns="http://www.w3.org/2000/svg" xmlns:xlink="http://www.w3.org/1999/xlink" x="0px" y="0px" viewBox="0 0 1000 1000" enable-background="new 0 0 1000 1000" xml:space="preserve">
<metadata> Svg Vector Icons : http://www.onlinewebfonts.com/icon </metadata>
<g><g transform="translate(0.000000,511.000000) scale(0.100000,-0.100000)"><path d="M6828.7,4974.2c-43.5-43.5-45.6-55.9-31.1-275.6c6.2-126.4,18.6-404,26.9-617.4l12.4-387.4l-64.2-130.5c-35.2-72.5-85-151.3-111.9-176.1c-26.9-22.8-238.3-165.8-472.4-317c-234.1-151.2-449.6-298.3-480.7-327.4c-72.5-66.3-74.6-136.8-6.2-182.3c29-18.6,290.1-97.4,582.2-176.1c292.2-78.7,563.6-161.6,598.8-184.4c93.2-58,201-180.3,242.4-279.7c20.7-45.6,93.2-296.3,161.6-559.4C7423.3,853.1,7442,797.2,7500,762c70.5-45.6,138.8,31.1,437.2,489c319.1,489,354.3,536.6,478.6,607.1c157.5,91.2,207.2,95.3,816.3,62.2c832.9-47.6,828.8-58,306.6,590.5c-201,250.7-375,486.9-395.8,538.7c-22.8,55.9-37.3,147.1-37.3,227.9c0,120.2,20.7,186.5,198.9,650.6c196.8,511.8,221.7,602.9,174,650.6c-49.7,49.7-161.6,20.7-669.2-174c-515.9-198.9-518-198.9-673.4-190.6c-103.6,6.2-182.3,24.9-238.3,53.9c-45.6,22.8-273.5,196.8-503.5,385.4c-232.1,190.6-431,343.9-439.2,343.9c-10.4,0-31.1,6.2-47.7,12.4C6888.8,5015.7,6855.6,5001.2,6828.7,4974.2z"/><path d="M1537,4408.6c-209.3-91.2-259-368.8-95.3-532.5c232.1-234.1,613.3-24.9,553.2,302.5C1957.6,4373.4,1723.5,4491.5,1537,4408.6z"/><path d="M5017.8,4160c-209.3-91.2-259-368.8-95.3-532.5c232.1-234.1,613.3-24.9,553.2,302.5C5438.4,4124.7,5204.3,4242.8,5017.8,4160z"/><path d="M3277.4,3745.6c-209.3-91.2-259-368.8-95.3-532.5c232.1-234.1,613.3-24.9,553.2,302.5C3698,3710.3,3463.9,3828.4,3277.4,3745.6z"/><path d="M1847.8,2927.1c-190.6-49.7-358.4-186.5-445.5-364.7c-72.5-151.3-72.5-412.3,0-559.4c64.2-132.6,190.6-256.9,321.1-321.2c82.9-39.4,136.7-49.7,279.7-49.7c151.2-2.1,190.6,6.2,281.8,53.9c157.5,82.9,221.7,145,300.4,290.1c64.2,120.2,70.4,145,68.4,306.6c0,143-10.4,196.8-49.7,279.7c-64.2,132.6-190.6,256.9-321.1,319.1C2171,2933.4,1959.7,2956.2,1847.8,2927.1z"/><path d="M3370.7-781.6C-122.6-4051.1,115.6-3810.8,101.1-4107.1c-10.4-196.8,49.7-358.4,180.3-489c145-145,267.3-194.8,468.3-194.8c238.3-2.1,327.4,45.6,573.9,294.2c107.7,109.8,1415.1,1504.2,2904.8,3097.5l2710.1,2898.6l-70.5,279.7l-68.4,281.8l-109.8,49.7c-60.1,24.9-124.3,47.6-145,45.6C6526.2,2156.4,5096.6,834.5,3370.7-781.6z"/><path d="M3608.9,1507.9c-209.3-91.2-259-368.8-95.3-532.5c232.1-234.1,613.3-24.9,553.2,302.5C4029.5,1472.6,3795.4,1590.8,3608.9,1507.9z"/><path d="M1868.5,430.5c-209.3-91.2-259-368.8-95.3-532.5c134.7-134.7,325.3-134.7,460,0C2490.1,154.9,2202.1,575.5,1868.5,430.5z"/><path d="M5846.6-315.4c-209.3-91.2-259-368.8-95.3-532.5c134.7-134.7,325.3-134.7,460,0C6468.2-591,6180.2-170.4,5846.6-315.4z"/><path d="M8467.6-470.8c-84.9-43.5-165.8-184.4-165.8-285.9c0-39.4,18.7-105.7,41.4-149.2c118.1-234.1,474.5-230,582.2,6.2c51.8,114,49.7,194.8-8.3,302.5c-55.9,107.7-155.4,165.8-283.9,165.8C8581.6-431.5,8507-448,8467.6-470.8z"/><path d="M7052.5-1351.4c-269.3-97.4-433-331.5-435.1-625.7c-2.1-370.9,283.9-654.7,658.9-654.7c190.6,0,341.9,64.2,474.5,201c317,325.3,194.8,907.5-225.8,1065C7390.2-1316.2,7172.6-1309.9,7052.5-1351.4z"/><path d="M5326.6-2159.4c-93.2-41.4-178.2-161.6-188.6-267.3c-20.7-198.9,163.7-381.2,364.7-360.5c161.6,16.6,273.5,136.7,288,308.7c6.2,91.2,0,122.3-41.4,182.3C5645.6-2145,5484-2091.1,5326.6-2159.4z"/></g></g>
</svg>