<?xml version="1.0" encoding="utf-8"?>
<!-- Svg Vector Icons : http://www.onlinewebfonts.com/icon -->
<!DOCTYPE svg PUBLIC "-//W3C//DTD SVG 1.1//EN" "http://www.w3.org/Graphics/SVG/1.1/DTD/svg11.dtd">
<svg version="1.1" xmlns="http://www.w3.org/2000/svg" xmlns:xlink="http://www.w3.org/1999/xlink" x="0px" y="0px" viewBox="0 0 1000 1000" enable-background="new 0 0 1000 1000" xml:space="preserve">
<metadata> Svg Vector Icons : http://www.onlinewebfonts.com/icon </metadata>
<g><g transform="translate(0.000000,511.000000) scale(0.100000,-0.100000)"><path d="M6271.5,3658.3L5065.7,3106l-1117.8,464.3c-613.9,255.2-1144.2,464.3-1181.6,464.3c-103.4,0-2490.8-937.4-2565.7-1007.8c-33-30.8-70.4-92.4-83.6-136.4c-15.4-50.6-19.8-1159.6-15.4-3344.6l6.6-3267.6l50.6-72.6c28.6-39.6,79.2-85.8,114.4-103.4c136.4-70.4,202.4-50.6,1370.8,404.9l1117.8,435.7l1126.6-470.9c908.8-378.5,1142-468.7,1203.6-462.1c41.8,6.6,547.9,224.5,1122.2,488.5c574.3,264.1,1122.2,512.7,1214.6,554.5l169.4,77l963.8-222.3c530.3-123.2,994.6-222.2,1032-222.2c79.2,0,193.7,70.4,259.7,160.6l46.2,61.6V216.9c0,3307.2,0,3309.4-46.2,3368.8c-24.2,33-68.2,79.2-99,101.2c-59.4,44-2083.8,523.7-2207,523.7C7506,4210.6,7002.1,3992.8,6271.5,3658.3z M8410.3,3343.7c440.1-101.2,805.4-191.4,814.2-200.2c19.8-17.6,26.4-5646.2,6.6-5679.2c-8.8-17.6-259.6,33-805.3,158.4c-558.9,132-820.8,182.6-891.2,176c-70.4-4.4-433.5-160.6-1285-552.3l-1183.8-543.5l-1115.6,464.3c-660.1,277.2-1142,464.3-1183.8,464.3c-37.4,0-497.3-167.2-1023.2-371.9c-523.7-204.6-959.4-365.3-970.4-356.5c-8.8,8.8-13.2,1287.2-11,2838.5l6.6,2825.3l979.2,380.7c539.1,211.2,994.6,382.9,1014.4,382.9c17.6,0,523.7-204.6,1122.2-455.5c862.5-360.9,1106.8-455.5,1186-455.5c83.6,0,288.3,85.8,1298.2,552.3c660.1,303.7,1210.2,552.3,1221.2,554.5C7602.8,3528.5,7972.5,3444.9,8410.3,3343.7z"/><path d="M7085.7,2008c-72.6-85.8-70.4-125.4,19.8-338.9c39.6-96.8,68.2-182.6,59.4-189.2c-8.8-6.6-83.6-41.8-169.4-74.8c-83.6-33-176-85.8-202.4-114.4c-112.2-118.8-28.6-314.7,132-314.7c41.8,0,147.4,30.8,235.4,68.2c88,37.4,167.2,59.4,176,48.4c11-8.8,50.6-94.6,90.2-191.4c79.2-189.2,156.2-253,270.7-224.4c158.4,39.6,182.6,169.4,79.2,413.7c-35.2,83.6-66,160.6-66,169.4s79.2,48.4,176,90.2c253,103.4,325.7,222.2,220,358.7c-74.8,94.6-160.6,94.6-371.9,4.4c-101.2-41.8-187-74.8-189.2-72.6c-2.2,4.4-35.2,85.8-74.8,182.6c-83.6,204.6-129.8,253-244.2,253C7160.5,2076.2,7129.7,2063,7085.7,2008z"/><path d="M3228.4,989.2C3100.8,932,3070,773.6,3166.8,679c41.8-44,74.8-55,167.2-55c107.8,0,118.8-6.6,220-110c92.4-94.6,118.8-110,193.6-110c70.4,0,96.8,13.2,143,68.2c30.8,37.4,57.2,90.2,57.2,116.6c0,103.4-165,292.7-327.9,376.3C3516.6,1015.6,3316.4,1028.8,3228.4,989.2z"/><path d="M6870,558c-63.8-37.4-215.6-327.9-215.6-409.3c0-162.8,193.6-244.3,316.9-134.2c30.8,26.4,90.2,114.4,134.2,195.8c92.4,169.4,90.2,250.8-4.4,325.7C7041.7,582.2,6931.6,593.2,6870,558z"/><path d="M2614.5,535.9c-55-22-246.4-248.6-277.3-327.9c-66-178.2,145.2-341.1,294.9-224.4c79.2,63.8,231,268.4,248.6,334.5c19.8,83.6-37.4,184.8-123.2,215.6C2676.1,562.4,2676.1,562.4,2614.5,535.9z"/><path d="M4022.7,65c-96.8-81.4-83.6-165,68.2-433.5c162.8-286.1,222.2-349.9,330.1-349.9c103.4,0,187,79.2,187,180.4c0,77-255.2,547.9-334.5,618.3C4209.8,135.5,4095.4,128.9,4022.7,65z"/><path d="M6344.1-328.8c-30.8-13.2-114.4-94.6-184.8-180.4c-70.4-83.6-160.6-191.4-202.4-237.6c-52.8-59.4-72.6-103.4-72.6-158.4c0-107.8,79.2-187,187-187c92.4,0,206.8,96.8,409.3,347.7c101.2,125.4,129.8,178.2,129.8,235.4C6610.4-368.4,6465.2-271.6,6344.1-328.8z"/><path d="M1989.6-394.8c-57.2-28.6-239.8-345.5-242-418.1c-2.2-138.6,145.2-235.4,275-180.4c61.6,24.2,92.4,63.8,165,206.8c105.6,211.2,110,270.6,24.2,356.4C2141.4-361.8,2077.6-350.8,1989.6-394.8z"/><path d="M4839.1-947.1c-68.2-28.6-121-112.2-121-189.2c0-70.4,105.6-171.6,257.5-246.5c116.6-57.2,176-70.4,325.6-79.2c173.8-8.8,187-6.6,239.9,46.2c74.8,74.8,77,189.2,6.6,268.4c-41.8,48.4-74.8,61.6-209,77c-114.4,11-184.8,33-246.4,72.6C4982.1-922.9,4920.5-909.7,4839.1-947.1z"/></g></g>
</svg>