<?xml version="1.0" encoding="utf-8"?>
<!-- Svg Vector Icons : http://www.onlinewebfonts.com/icon -->
<!DOCTYPE svg PUBLIC "-//W3C//DTD SVG 1.1//EN" "http://www.w3.org/Graphics/SVG/1.1/DTD/svg11.dtd">
<svg version="1.1" xmlns="http://www.w3.org/2000/svg" xmlns:xlink="http://www.w3.org/1999/xlink" x="0px" y="0px" viewBox="0 0 1000 1000" enable-background="new 0 0 1000 1000" xml:space="preserve">
<metadata> Svg Vector Icons : http://www.onlinewebfonts.com/icon </metadata>
<g><path d="M303.4,605.9c69.1-90.4,78.6-181.5,196.9-181.5c141.7,0,149.8,111.1,201.3,181.5c51.5,70.4,238.4,124.6,149,273.6c-89.4,149-241.1-21.7-350.3-21.7c-109.2,0-275.8,181.5-354.1,21.7S220.2,714.8,303.4,605.9z M335.5,627.5c80.2-101.4,65.1-163.6,164.8-163.6c119.3,0,103.5,72,169,163.6c65.4,91.6,219.2,116.2,147.3,232.3C744.5,976,634.9,819,500.3,819c-134.6,0-258.1,166.9-320.2,40.9C117.9,733.9,255.3,729,335.5,627.5z M619.2,375.2c55.2,7.8,110-57.6,122.4-145.9c12.4-88.3-22.3-166.2-77.5-174c-55.2-7.8-110,57.6-122.4,145.9S564,367.5,619.2,375.2z M624.8,335.2c33.1,4.7,67.5-45.3,76.8-111.5s-10-123.7-43.1-128.4c-33.1-4.7-67.5,45.3-76.8,111.5C572.4,273.1,591.7,330.6,624.8,335.2z M161.3,592.6c53.6-15.4,77.1-97.3,52.5-183.1s-88-142.8-141.5-127.4c-53.6,15.4-77.1,97.3-52.5,183.1C44.3,550.9,107.7,608,161.3,592.6z M150.2,553.8c32.2-9.2,43.3-68.8,24.8-133.1c-18.4-64.3-59.5-109-91.6-99.7c-32.2,9.2-43.3,68.8-24.8,133.1C77,518.4,118,563,150.2,553.8z M384.2,374.5c55.1-8.7,88.4-87.2,74.4-175.3c-14-88.1-69.9-152.4-125-143.7c-55.1,8.7-88.4,87.2-74.4,175.3C273.2,318.8,329.1,383.2,384.2,374.5z M377.9,334.6c33-5.2,51.3-63,40.9-129.1C408.3,139.4,373,90.1,340,95.3c-33,5.2-51.3,63-40.9,129.1C309.6,290.5,344.8,339.8,377.9,334.6z M842.1,593.4c53.8,14.4,116.2-43.7,139.3-129.9c23.1-86.2-1.9-167.7-55.7-182.1c-53.8-14.4-116.2,43.7-139.3,129.9C763.3,497.4,788.2,578.9,842.1,593.4z M852.5,554.4c32.3,8.7,72.5-36.7,89.8-101.3c17.3-64.6,5.2-124-27.1-132.7c-32.3-8.7-72.5,36.7-89.8,101.3C808.1,486.3,820.2,545.7,852.5,554.4z"/></g>
</svg>