<?xml version="1.0" encoding="utf-8"?>
<!-- Svg Vector Icons : http://www.onlinewebfonts.com/icon -->
<!DOCTYPE svg PUBLIC "-//W3C//DTD SVG 1.1//EN" "http://www.w3.org/Graphics/SVG/1.1/DTD/svg11.dtd">
<svg version="1.1" xmlns="http://www.w3.org/2000/svg" xmlns:xlink="http://www.w3.org/1999/xlink" x="0px" y="0px" viewBox="0 0 1000 1000" enable-background="new 0 0 1000 1000" xml:space="preserve">
<metadata> Svg Vector Icons : http://www.onlinewebfonts.com/icon </metadata>
<g><path d="M359.9,285.2c0,0.1,0,0.2,0,0.3C359.9,285.3,359.9,285.2,359.9,285.2z"/><path d="M359.5,288.2C359.4,288.6,359.4,288.5,359.5,288.2L359.5,288.2z"/><path d="M359.9,285.5c0,0.3-0.1,0.5-0.1,0.7C359.8,285.9,359.8,285.7,359.9,285.5z"/><path d="M478.8,775.7c-59-1.8-107.8,39.7-109.6,104.7c-1.8,64.9,44.5,107.9,103.6,109.6c61.6,1.8,109-38.2,111-103.2C585.5,821.7,540.5,777.5,478.8,775.7z"/><path d="M716.9,77.1C654.8,32.4,576.8,10,482.9,10c-71.4,0-131.7,15.7-180.7,47.3c-71.9,45.6-103.7,120.7-112,225.3c-0.9,14.4,15.6,26,36.7,26h93.2c21.1,0,39.2-17.1,39.9-23.5c3.6-26.1,13.1-51.4,28.5-76.1c20.1-31.9,54.2-47.9,102.3-47.9c48.9,0,84.2,9.6,109.3,24.4s49.8,49.2,47,106.6c-1.6,33.6-24.1,67.3-47,83.1s-68.6,48-76,53.6c0,0-47.3,30.1-90.2,80.4c-24.8,29.1-28.1,74.6-30.3,137.2c-0.1,4.5,1.6,13.7,17.2,13.7c15.6,0,105.8,0,119.7,0c13.9,0,16.8-10.3,17-14.9c1-22.8,3.5-34.5,7.7-47.6c7.8-24.9,29.3-46.6,53.3-65.3l49.6-34.1c44.8-34.9,80.4-63.5,96.2-85.9c26.9-36.8,45.9-82.2,45.9-136.1C810,188.3,778.9,122,716.9,77.1z"/><path d="M190.2,283c0-0.2,0-0.3,0-0.4C190.2,282.7,190.2,282.9,190.2,283z"/><path d="M190,284.6c0,0.3,0,0.6-0.1,0.8C190,285.2,190,284.9,190,284.6z"/></g>
</svg>