<?xml version="1.0" encoding="utf-8"?>
<!-- Svg Vector Icons : http://www.onlinewebfonts.com/icon -->
<!DOCTYPE svg PUBLIC "-//W3C//DTD SVG 1.1//EN" "http://www.w3.org/Graphics/SVG/1.1/DTD/svg11.dtd">
<svg version="1.1" xmlns="http://www.w3.org/2000/svg" xmlns:xlink="http://www.w3.org/1999/xlink" x="0px" y="0px" viewBox="0 0 1000 1000" enable-background="new 0 0 1000 1000" xml:space="preserve">
<metadata> Svg Vector Icons : http://www.onlinewebfonts.com/icon </metadata>
<g><g transform="translate(0.000000,511.000000) scale(0.100000,-0.100000)"><path d="M7541.8,4971.1c-18.3-22.9-41.2-91.6-50.4-151.1c-41.2-334.3-290.8-579.3-627.4-625.1c-91.6-11.5-130.5-29.8-158-68.7c-32-50.4-32-59.5,0-109.9c27.5-41.2,64.1-57.2,164.9-68.7c338.9-38.9,586.2-283.9,622.8-615.9c16-144.3,38.9-176.3,121.4-176.3c82.4,0,107.6,32.1,125.9,171.7c48.1,341.2,293.1,581.6,632,622.8c87,9.2,123.7,27.5,151.2,66.4c32,50.4,32,59.5,0,109.9c-27.5,41.2-66.4,59.5-158,71c-336.6,43.5-567.9,267.9-615.9,599.9c-25.2,155.7-59.6,212.9-135.1,212.9C7594.4,5010,7560.1,4991.7,7541.8,4971.1z M7841.7,4158.2l96.2-80.1L7773,3913.2l-164.9-164.9l-34.3,52.7c-45.8,64.1-132.8,151.1-215.3,217.5l-64.1,48.1l167.1,167.2l164.9,169.4l59.5-82.4C7720.4,4277.3,7789.1,4204,7841.7,4158.2z"/><path d="M4404.8,4254.4l-293.1-11.4l-425.9-423.6c-233.5-233.6-439.6-458-457.9-496.9c-48.1-109.9-4.6-187.8,226.7-416.7l196.9-194.6l-336.6-167.2c-432.8-212.9-705.3-409.9-1046.4-751c-1481.5-1479.2-1509-3874.3-59.5-5376.4c377.8-391.6,698.4-625.1,1158.6-842.6c1041.8-490,2250.8-485.4,3308.7,16c751.1,357.2,1465.5,1069.3,1818.1,1818.1c141.9,304.6,233.5,577,304.5,913.6c54.9,258.8,61.8,336.6,61.8,757.9s-6.9,499.2-61.8,757.9c-261.1,1231.9-1018.9,2191.3-2168.4,2743.2l-272.5,130.5l194.6,194.6c233.6,229,277.1,306.8,229,416.7c-16,38.9-226.7,265.6-464.8,503.7L5884,4254.4l-263.3,2.3c-144.2,0-409.9,2.3-593.1,4.6C4844.4,4263.5,4565.1,4261.2,4404.8,4254.4z M4546.7,4009.4c0-11.4-50.4-158-112.2-327.4l-112.2-309.1l-373.2-6.9l-375.5-4.6l332,332l332,332H4391C4478,4025.4,4546.7,4018.5,4546.7,4009.4z M5341.3,3700.2l114.5-327.4l-423.6-6.9c-233.6-2.3-428.2,0-435.1,6.9c-11.5,9.2,162.6,528.9,206.1,613.7c16,32.1,52.7,38.9,219.8,38.9h201.5L5341.3,3700.2z M6103.8,3693.4l332-332h-357.2h-359.5l-107.6,304.5c-59.5,164.9-114.5,316-119.1,332c-9.1,20.6,27.5,27.5,135.1,27.5h144.2L6103.8,3693.4z M4315.5,3100.3c27.5-34.3,398.4-1067,387-1078.5c-4.6-4.6-254.2,235.8-554.1,535.8c-423.6,425.9-535.8,549.6-503.7,558.7C3731.6,3137,4297.2,3123.2,4315.5,3100.3z M5416.9,3114.1c32.1-13.7,9.2-91.6-174-599.9c-116.8-320.6-215.2-590.8-219.8-599.9c-6.9-20.6-430.5,1147.2-430.5,1188.4C4592.5,3132.4,5343.6,3141.5,5416.9,3114.1z M6339.6,3114.1c61.8-16,48.1-32.1-464.8-540.4c-288.5-288.5-526.7-515.2-526.7-503.8c0,29.8,348,1000.6,368.7,1028.1C5737.4,3127.8,6245.8,3139.2,6339.6,3114.1z M3990.3,2372.2l142-139.7l-164.9-55c-261-84.7-696.1-313.7-909-474c-242.7-183.2-590.8-542.7-748.8-771.7c-240.4-350.3-423.6-790-524.4-1257.1c-59.5-272.5-59.5-936.5,0-1213.6c261-1220.4,1085.4-2147.8,2234.8-2514.2c316-100.8,625.1-146.6,984.6-146.6c858.7,0,1639.5,311.4,2257.7,904.5c487.7,464.8,806,1041.9,952.6,1717.3c71,334.3,71,957.1,0,1291.4C7965.4,870.1,7152.5,1797.4,6062.6,2166.1l-187.8,64.1l144.2,142l142,142l125.9-48.1c1165.5-441.9,2001.3-1435.7,2269.2-2699.6c68.7-325.2,75.6-998.3,11.4-1328.1c-272.5-1408.2-1305.2-2514.2-2674.4-2864.5c-1925.7-490-3899.5,684.6-4394.1,2617.2c-414.5,1630.3,345.8,3322.5,1845.6,4103.3c135.1,71,455.7,213,492.3,217.5C3841.5,2514.1,3910.2,2450,3990.3,2372.2z M4604,1758.5c288.5-288.5,377.8-345.8,474-297.7c29.8,16,176.3,148.8,327.4,297.7l274.8,270.2l194.6-55c719-210.6,1385.3-741.9,1772.3-1417.4c389.3-680.1,492.3-1586.8,265.6-2349.3c-229-769.4-792.2-1451.7-1509-1825c-460.2-240.4-854.1-336.6-1399-336.6c-551.8,0-925.1,91.6-1399.1,336.6c-824.3,428.2-1428.8,1247.9-1589.1,2159.2c-45.8,265.6-48.1,783.1-2.3,1046.4c167.2,941.1,780.8,1760.8,1634.9,2191.3c153.4,77.9,613.7,251.9,668.6,254.2C4324.6,2033.3,4452.9,1909.6,4604,1758.5z"/></g></g>
</svg>