<?xml version="1.0" encoding="utf-8"?>
<!-- Svg Vector Icons : http://www.onlinewebfonts.com/icon -->
<!DOCTYPE svg PUBLIC "-//W3C//DTD SVG 1.1//EN" "http://www.w3.org/Graphics/SVG/1.1/DTD/svg11.dtd">
<svg version="1.1" xmlns="http://www.w3.org/2000/svg" xmlns:xlink="http://www.w3.org/1999/xlink" x="0px" y="0px" viewBox="0 0 1000 1000" enable-background="new 0 0 1000 1000" xml:space="preserve">
<metadata> Svg Vector Icons : http://www.onlinewebfonts.com/icon </metadata>
<g><g transform="translate(0.000000,511.000000) scale(0.100000,-0.100000)"><path d="M1000.9,4853.4C430.9,4246.7,103.1,3545,100,2941.3c0-502.5,309.5-953,726.2-1060.2c128.7-30.6,131.8-33.7,131.8-159.3s0-128.7-98.1-119.5c-82.7,9.2-122.6-9.2-214.5-98.1c-64.3-61.3-116.4-131.8-116.4-156.3c0-24.5,98.1-162.4,214.5-300.3L958,793.3V453.2V113.1l-217.6-9.2c-168.5-6.1-226.7-21.5-254.3-61.3c-24.5-39.8-24.5-70.5,0-107.2c30.6-49,101.1-55.1,717-55.1s686.4,6.1,717,55.1c24.5,36.8,24.5,67.4,0,107.2c-27.6,39.8-85.8,55.2-254.3,61.3l-217.6,9.2v867.2v867.2l137.9,39.8C2055,2019,2336.9,2487.8,2297,3067c-21.5,309.5-110.3,597.5-288,943.8c-214.5,413.7-686.4,1002-809,1002C1172.5,5012.7,1083.6,4939.2,1000.9,4853.4z M1390,4507.1c677.2-815.1,870.2-1777.2,441.2-2206.2c-309.5-312.6-946.8-312.6-1256.3,0c-429,429-236,1391.1,441.2,2206.2c91.9,110.3,177.7,199.2,186.9,199.2C1212.3,4706.3,1298.1,4617.5,1390,4507.1z M1203.1,1023.1l-3.1-131.8l-76.6,88.9l-76.6,88.9l70.5,36.8c39.8,21.5,73.5,39.8,79.7,42.9C1200,1151.8,1203.1,1093.6,1203.1,1023.1z"/><path d="M4059,4976c-49-49-46-131.8,3.1-168.5c18.4-18.4,239-88.9,487.2-159.3c1029.6-291.1,1458.5-588.3,1624-1118.4c186.9-612.8-52.1-934.6-1510.7-2025.4c-1023.4-766-1188.9-900.9-1617.9-1317.6c-790.6-766-1173.6-1480-1216.5-2267.5c-46-772.2,303.4-1501.5,1106.2-2307.3c242.1-239,429-404.5,465.8-404.5c67.4,0,131.8,55.2,131.8,113.4c0,21.4-183.9,223.7-407.5,447.4c-585.3,585.3-864.1,1020.4-1005.1,1584.2c-162.4,643.5,36.8,1381.9,566.9,2083.7c383,511.7,946.8,1002,2304.3,2007.1C5995.5,2184.5,6424.5,2674.8,6464.4,3116c24.5,254.3-61.3,597.5-202.2,815.1c-288,444.3-723.1,692.5-1666.9,959.1C4117.2,5025,4111,5028.1,4059,4976z"/><path d="M5646.2,4966.8c-79.7-95-18.4-150.1,380-346.3c217.5-107.2,416.7-190,441.2-183.9c64.4,12.3,110.3,98,88.9,159.3c-21.5,55.2-735.4,416.7-821.2,416.7C5707.5,5012.7,5667.7,4991.3,5646.2,4966.8z"/><path d="M6994.5,4966.8c-70.5-85.8-15.3-153.2,245.1-291.1c358.5-190,646.5-465.8,781.4-747.7c239-502.5,223.7-1075.5-46-1636.3c-223.7-465.8-484.1-805.9-1293.1-1670c-720.1-772.2-1026.5-1207.3-1195-1691.4C5122.2-2136.1,5637-3125.8,6994.5-3953.1c545.4-331,1746.6-870.2,1850.8-830.4c64.3,24.5,98,110.3,61.3,165.5c-15.3,24.5-226.8,125.6-471.9,226.7c-1149.1,468.8-1967.2,992.8-2390.1,1526c-465.8,582.2-551.6,1247.1-248.2,1912.1c183.8,407.5,447.4,744.6,1302.3,1670c573,619,870.2,1008.1,1060.2,1400.3c177.7,358.5,242.1,582.2,266.6,919.3c58.2,805.9-321.7,1464.7-1069.4,1853.8C7101.7,5025,7049.6,5034.2,6994.5,4966.8z"/><path d="M6816.7,4271.2c-58.2-58.2-42.9-116.4,70.5-242.1c134.8-150.1,226.8-330.9,288-563.8c42.9-162.4,61.3-183.8,131.8-193c125.6-15.3,156.3,70.5,101.1,281.9c-61.3,232.9-165.5,432.1-321.7,609.8C6957.7,4308,6884.2,4338.6,6816.7,4271.2z"/><path d="M7205.9,2898.4c-27.6-15.3-61.3-67.4-73.6-113.4c-33.7-147.1-217.5-444.3-410.6-674.1c-104.2-122.6-186.9-251.3-186.9-285c0-67.4,104.2-137.9,156.3-104.2c137.9,82.7,490.3,560.7,612.8,830.4c104.2,223.7,110.3,300.3,30.6,346.2C7264.1,2935.2,7267.2,2935.2,7205.9,2898.4z"/><path d="M5563.5,998.6c-386.1-346.2-652.7-606.7-652.7-637.3c0-67.4,58.2-128.7,122.6-128.7c24.5,0,337.1,260.5,689.4,576.1c563.8,502.5,643.5,585.3,643.5,664.9c0,76.6-12.3,91.9-76.6,98.1C6228.4,1577.8,6078.3,1458.3,5563.5,998.6z"/><path d="M8600.1,1421.5c-570-606.7-897.8-1308.4-900.9-1912c0-502.5,309.5-953,726.2-1060.2c128.7-30.6,131.8-33.7,131.8-159.3c0-125.6,0-128.7-98.1-119.5c-82.7,9.2-122.6-9.2-214.5-98.1c-64.3-61.3-116.4-131.8-116.4-156.3c0-24.6,98-162.4,214.5-300.3l214.5-254.3v-340.1v-340.1l-217.5-9.2c-168.5-6.1-226.8-21.4-254.4-61.3c-24.5-39.8-24.5-70.5,0-107.2c30.6-49,101.1-55.2,717-55.2c615.9,0,686.4,6.1,717,55.2c24.5,36.8,24.5,67.4,0,107.2c-27.6,39.8-85.8,55.1-254.4,61.3l-217.5,9.2v867.2v867.2l137.9,39.8c468.8,131.8,750.7,600.6,710.9,1179.7c-21.5,309.5-110.3,597.5-288,943.8c-214.5,413.7-686.4,1002-808.9,1002C8771.7,1580.8,8682.8,1507.3,8600.1,1421.5z M8989.2,1075.2C9666.5,260.1,9859.5-702,9430.5-1131c-309.5-312.6-946.8-312.6-1256.3,0c-429,429-236,1391.1,441.3,2206.2c91.9,110.3,177.7,199.2,186.9,199.2C8811.5,1274.4,8897.3,1185.5,8989.2,1075.2z M8802.3-2408.8l-3.1-131.8l-76.6,88.9l-76.6,88.8l70.5,36.8c39.8,21.4,73.5,39.8,79.7,42.9C8799.3-2280.1,8802.3-2338.3,8802.3-2408.8z"/><path d="M4411.3-110.6C4080.4-463,3712.7-1106.5,3605.4-1514c-70.5-285-73.5-640.4-3.1-686.4c101.1-64.3,156.3,12.3,180.8,254.4c58.2,560.7,294.2,1072.5,741.5,1590.3c144,168.5,168.5,242.1,104.2,306.4C4570.7,8.9,4512.5-6.4,4411.3-110.6z"/><path d="M3807.7-2862.3c-42.9-79.7,49-254.3,330.9-628.2C4512.5-3993,5345.9-4792.7,5493-4792.7c67.4,0,131.8,98.1,104.2,165.5c-9.2,24.5-82.7,95-159.3,156.3c-468.8,364.6-980.5,916.2-1268.6,1363.6c-79.7,125.6-162.4,248.2-177.7,269.6C3942.5-2779.5,3844.5-2794.9,3807.7-2862.3z"/></g></g>
</svg>