<?xml version="1.0" encoding="utf-8"?>
<!-- Svg Vector Icons : http://www.onlinewebfonts.com/icon -->
<!DOCTYPE svg PUBLIC "-//W3C//DTD SVG 1.1//EN" "http://www.w3.org/Graphics/SVG/1.1/DTD/svg11.dtd">
<svg version="1.1" xmlns="http://www.w3.org/2000/svg" xmlns:xlink="http://www.w3.org/1999/xlink" x="0px" y="0px" viewBox="0 0 1000 1000" enable-background="new 0 0 1000 1000" xml:space="preserve">
<metadata> Svg Vector Icons : http://www.onlinewebfonts.com/icon </metadata>
<g><g transform="translate(0.000000,512.000000) scale(0.100000,-0.100000)"><path d="M7242,5002.9c-568.9-63.2-1157-312.2-1664.6-703c-398.5-308.4-747.1-724.1-1252.8-1492.3L4133,2514.6l-44.1,47.9c-124.5,134.1-293.1,59.4-408-182c-44.1-93.9-49.8-128.3-49.8-325.6c0-254.8,30.7-390.8,149.4-670.5C4002.7,865.2,4382,348,4924.1-174.9c442.5-423.4,888.8-731.8,1340.9-925.3c279.7-118.8,415.7-149.4,670.5-149.4c197.3,0,231.8,5.7,325.6,49.8c233.7,109.2,314.2,281.6,187.7,400.4c-23,21.1-38.3,40.2-32.6,44.1c3.8,1.9,59.4,30.7,122.6,61.3c101.5,49.8,136,57.5,287.3,57.5c199.2,0,316.1-34.5,507.6-143.7c438.7-254.8,831.4-777.7,1030.6-1371.6c78.6-233.7,118.8-434.8,136-687.7c19.2-258.6,38.3-308.4,128.3-346.7c86.2-36.4,160.9-21.1,220.3,42.1c42.1,46,46,63.2,44.1,247.1c-13.4,896.5-507.6,1854.3-1224.1,2369.6c-132.2,93.9-285.4,170.5-513.4,250.9c-28.7,11.5,21.1,55.6,233.7,214.6c530.6,400.4,885,808.4,1153.2,1327.5c492.3,957.8,475.1,2021-46,2789.1c-101.5,151.3-335.2,394.6-490.4,511.5C8538.8,4916.7,7897.1,5075.7,7242,5002.9z M8010.1,4583.4c381.2-78.5,659-222.2,934.8-486.6c279.7-270.1,450.2-597.7,528.7-1017.2c42.1-224.1,30.6-710.7-24.9-938.6c-139.8-588.1-421.4-1084.2-867.8-1524.8c-289.3-285.4-603.4-513.4-1425.2-1036.3c-304.6-193.5-565.1-358.2-578.5-365.9c-23-13.4-388.9,134.1-387,157.1c0,5.7,289.3,214.6,643.7,461.7c762.4,532.5,1279.6,909.9,1450.1,1055.5c827.5,716.4,1076.6,1875.4,568.9,2645.4c-352.5,532.5-999.9,793.1-1674.2,676.2c-544-93.9-1005.7-358.2-1413.7-808.4c-275.8-302.7-1049.7-1344.7-1398.4-1879.2l-130.3-201.1l-55.6,122.6c-30.6,67-67,153.2-80.5,189.6l-23,67l339.1,526.8c534.5,827.5,798.8,1187.7,1078.5,1471.2c471.2,477,1032.5,781.6,1651.3,894.6C7372.2,4633.2,7784.1,4629.4,8010.1,4583.4z M7812.8,3805.7c216.5-46,392.7-143.7,559.4-312.2c239.5-239.4,344.8-505.7,346.7-863.9c1.9-488.5-195.4-952.1-570.8-1327.5c-182-185.8-523-438.7-1716.4-1275.8c-553.6-388.9-614.9-425.3-651.3-406.1c-76.6,42.1-134.1,99.6-116.8,114.9c9.6,9.6,155.2,130.3,323.7,272c923.3,768.2,1637.8,1406.1,1802.6,1605.3c137.9,162.8,264.4,379.3,318,538.3c59.4,178.1,59.4,446.3,0,597.7c-49.8,120.7-199.2,298.8-312.2,371.6c-252.9,159-645.6,164.7-944.4,13.4c-231.8-116.8-360.1-239.4-685.8-657c-120.7-153.2-461.7-578.5-760.5-946.3c-296.9-367.8-576.6-714.5-618.8-770.1c-42.1-57.5-84.3-103.4-93.9-103.4c-26.8,0-228,291.2-214.6,314.2c264.4,450.2,1224.1,1771.9,1567,2157c268.2,300.8,572.8,507.6,913.8,622.6C7259.2,3849.8,7515.9,3867,7812.8,3805.7z M7485.3,2830.7c69-21.1,118.8-53.6,174.3-113c93.9-101.5,107.3-143.7,95.8-304.6c-15.3-247.1-178.1-492.3-570.8-852.4C6736.2,1146.8,5391.5,1.3,5339.8-10.2c-13.4-1.9-103.4,76.6-201.1,174.3l-178.2,180.1L5108,533.9c82.4,103.4,400.3,500,706.8,879.3c306.5,379.3,634.1,787.3,726,906.1c214.5,272,310.3,367.8,450.2,442.5C7176.8,2859.4,7318.6,2880.5,7485.3,2830.7z"/><path d="M3238.4,1995.5c-438.7-454,9.6-1597.6,1024.8-2612.9C5278.5-1632.7,6424-2080.9,6876.1-1642.3c99.6,95.8,107.3,191.6,26.8,287.3c-46,55.6-59.4,61.3-139.8,53.6c-53.6-5.7-114.9-26.8-151.3-55.5c-55.5-40.2-82.4-46-247.1-46c-218.4,0-348.6,36.4-647.5,183.9C4935.6-837.7,4042.9,55,3661.7,836.5c-147.5,298.8-183.9,429.1-183.9,647.5c0,164.7,5.7,191.6,46,247.1c24.9,32.6,49.8,97.7,55.5,143.7c7.7,72.8,1.9,90-49.8,141.8c-46,46-74.7,57.5-136,57.5C3326.5,2074,3303.5,2062.5,3238.4,1995.5z"/><path d="M2788.2,1505.1c-118.8-30.6-247.1-226-268.2-408c-5.7-57.5-15.3-124.5-21.1-147.5c-5.7-28.7-101.5-103.4-316.1-245.2C1232.7,79.9,759.6-404.8,424.4-1096.3C150.4-1659.5,47-2251.4,125.5-2803.1c78.5-553.6,295-988.5,676.2-1350.5c350.6-337.2,756.7-528.7,1275.8-601.5c760.5-109.2,1626.3,141.8,2310.2,668.5c432.9,333.3,699.2,655.1,1168.5,1425.2c130.3,212.6,187.7,291.2,210.7,285.4c15.3-3.8,93.9,0,172.4,9.6c323.7,38.3,532.5,247.1,417.6,417.6c-70.9,105.4-143.7,111.1-314.2,26.8c-136-67.1-151.3-70.9-281.6-59.4c-791.1,59.4-2132.1,1183.8-2655,2225.9c-126.4,254.8-195.4,465.5-206.9,641.7c-9.6,137.9-7.7,149.4,61.3,275.8c67,124.5,69,139.8,47.9,206.9c-13.4,49.8-42.1,88.1-82.4,111.1C2862.9,1518.5,2853.4,1520.4,2788.2,1505.1z M2640.7,325.1c34.5-86.2,69-170.5,72.8-187.7c7.6-23-47.9-72.8-197.3-182c-804.6-582.4-1013.3-768.2-1231.7-1090c-549.8-812.2-530.6-1787.2,44.1-2383c657.1-678.1,1819.8-628.3,2668.4,114.9c151.3,134.1,270.1,275.8,582.3,697.3c139.8,189.6,289.3,390.8,329.5,446.3c53.6,72.8,86.2,99.6,109.2,93.9c105.4-34.5,289.2-118.8,289.2-134.1c0-24.9-247.1-425.3-417.6-674.3c-318-465.5-590-729.8-1022.9-992.3c-463.6-279.7-931-415.7-1436.7-415.7c-580.4,0-1042.1,183.9-1406,559.4c-356.3,367.8-524.9,806.5-524.9,1371.6c0,906.1,467.4,1770,1302.6,2407.9C1995.2,104.8,2546.9,484,2567.9,484C2573.7,484,2606.2,413.2,2640.7,325.1z M3029.6-391.4l99.6-147.5l-70.9-59.4c-249-201.1-747.1-653.2-841-766.2c-141.8-168.6-268.2-381.2-323.7-545.9c-59.4-178.1-59.4-446.3,0-597.7c49.8-120.7,199.2-298.8,312.3-371.6c308.4-193.5,760.5-159,1118.7,88.1c124.5,86.2,373.5,364,921.4,1030.6l40.2,49.8l151.3-101.5c84.3-57.5,162.8-114.9,176.2-126.4c21.1-19.2-24.9-93.9-258.6-411.9c-348.6-477-477-632.1-637.9-773.9c-126.4-113-364-262.4-521-333.3c-425.2-187.7-946.3-187.7-1304.5,0c-155.2,80.5-388.9,314.1-469.3,469.3c-168.6,319.9-187.7,756.7-51.7,1153.2c120.7,354.4,329.5,657,622.6,904.2c114.9,95.8,226,180.1,775.8,588.1c74.7,53.7,139.8,99.6,147.5,99.6C2924.2-243.9,2975.9-310.9,3029.6-391.4z M3677.1-1165.3l304.6-306.5l-176.2-205c-95.8-113-264.4-310.3-373.5-440.6c-243.3-293.1-285.4-331.4-446.3-413.8c-233.7-118.8-465.5-109.2-613,23c-103.4,92-130.3,155.2-130.3,289.3c0,201.1,128.3,455.9,342.9,678.1c86.2,90,762.4,683.9,777.7,683.9C3366.7-856.9,3508.5-994.8,3677.1-1165.3z"/></g></g>
</svg>