<?xml version="1.0" encoding="utf-8"?>
<!-- Svg Vector Icons : http://www.onlinewebfonts.com/icon -->
<!DOCTYPE svg PUBLIC "-//W3C//DTD SVG 1.1//EN" "http://www.w3.org/Graphics/SVG/1.1/DTD/svg11.dtd">
<svg version="1.1" xmlns="http://www.w3.org/2000/svg" xmlns:xlink="http://www.w3.org/1999/xlink" x="0px" y="0px" viewBox="0 0 1000 1000" enable-background="new 0 0 1000 1000" xml:space="preserve">
<metadata> Svg Vector Icons : http://www.onlinewebfonts.com/icon </metadata>
<g><g><path d="M990,394.9c0,8.6-5.1,18.1-15.3,28.3L760.9,631.6l50.7,294.5c0.4,2.7,0.6,6.7,0.6,11.8c0,8.2-2.1,15.2-6.2,20.9s-10.1,8.5-18,8.5c-7.5,0-15.3-2.4-23.6-7.1L500,821.3l-264.4,139c-8.6,4.7-16.5,7.1-23.6,7.1c-8.2,0-14.4-2.8-18.6-8.5s-6.2-12.7-6.2-20.9c0-2.4,0.4-6.3,1.2-11.8l50.6-294.5L24.7,423.1c-9.8-10.6-14.7-20-14.7-28.3c0-14.5,11-23.6,33-27.1l295.6-43l132.5-268c7.5-16.1,17.1-24.1,28.9-24.1c11.8,0,21.4,8,28.9,24.1l132.5,268l295.6,43C979,371.3,990,380.3,990,394.9L990,394.9z"/></g></g>
</svg>