<?xml version="1.0" encoding="utf-8"?>
<!-- Svg Vector Icons : http://www.onlinewebfonts.com/icon -->
<!DOCTYPE svg PUBLIC "-//W3C//DTD SVG 1.1//EN" "http://www.w3.org/Graphics/SVG/1.1/DTD/svg11.dtd">
<svg version="1.1" xmlns="http://www.w3.org/2000/svg" xmlns:xlink="http://www.w3.org/1999/xlink" x="0px" y="0px" viewBox="0 0 1000 1000" enable-background="new 0 0 1000 1000" xml:space="preserve">
<metadata> Svg Vector Icons : http://www.onlinewebfonts.com/icon </metadata>
<g><g><path d="M726.6,256.1c-23.9,0-47.3,5-69.2,14.4c13.5-25.4,20.7-53.6,20.7-82.4c0-98.2-79.8-178-178.1-178c-71.8,0-136.2,43.6-163.7,109.7c-5-0.6-10-0.9-15.1-0.9c-71.9,0-130.3,58.4-130.3,130.2c0,8.4,1,16.8,3,25.8c-60.3,30-98.6,91.3-98.6,159.3c0,90,66.1,164.2,154.9,175.7c22.2,43.6,66.9,71.3,116.1,71.3c48.5,0,90.9-26.7,113.2-67c12.1,20,19.4,36.1,20.4,45.7C514.6,795.1,463.3,990,463.3,990h182c0,0-31.6-102.5-38.3-255.9c-0.4-9.4,2.9-26.7,9.1-47.5c15,5.7,31.3,9,48.4,9c60.4,0,112.4-39.5,129-97.1c66.8-27.2,111.1-92.4,111.1-164.4C904.7,335.9,824.8,256.1,726.6,256.1z M777.6,575.7l-6.9,2.5l-1.7,7.1c-11.4,49.1-54.3,83.3-104.5,83.3c-14,0-27.4-2.8-39.6-7.6c18.8-49.8,52.5-111.3,101.6-152.3c-51.8,18-126.3,89.2-126.3,89.2S571,272,458.2,132.2C500,278.8,510.1,520,510.1,520s-74.4-69.9-236.7-126.2c85.6,67.4,150.8,140,188.9,193.9c-14.9,39.4-52.5,66.4-96,66.4c-41.1,0-78.2-24.5-94.6-62.2l-3.2-7.4l-8-0.7c-78.7-6.8-138.1-71.2-138.1-149.7c0-61,36.4-115.7,92.7-139.3l11.2-4.7l-3.6-11.6c-3.3-11.1-4.9-20.4-4.9-29.5c0-56.9,46.3-103.2,103.3-103.2c7.1,0,14.2,0.7,21,2.2l11.7,2.5l3.9-11.3C378.8,78.1,436,37,500,37C583.2,37,651,104.8,651,188c0,36.8-13.9,72.5-39.2,100.6l-8,9.1l21,24.9l10.5-8c27-20.6,58.5-31.5,91.3-31.5c83.3,0,151,67.7,151,151C877.6,497.2,837.4,554.2,777.6,575.7z"/></g><g></g><g></g><g></g><g></g><g></g><g></g><g></g><g></g><g></g><g></g><g></g><g></g><g></g><g></g><g></g></g>
</svg>