<?xml version="1.0" encoding="utf-8"?>
<!-- Svg Vector Icons : http://www.onlinewebfonts.com/icon -->
<!DOCTYPE svg PUBLIC "-//W3C//DTD SVG 1.1//EN" "http://www.w3.org/Graphics/SVG/1.1/DTD/svg11.dtd">
<svg version="1.1" xmlns="http://www.w3.org/2000/svg" xmlns:xlink="http://www.w3.org/1999/xlink" x="0px" y="0px" viewBox="0 0 1000 1000" enable-background="new 0 0 1000 1000" xml:space="preserve">
<metadata> Svg Vector Icons : http://www.onlinewebfonts.com/icon </metadata>
<g><g transform="translate(0.000000,511.000000) scale(0.100000,-0.100000)"><path d="M1573.8,3950.3c-622.1-134-1148.4-583.8-1359-1163.8C96.2,2455.4,100,2587.5,100-668.3v-2966.8l65.1-65.1l65.1-65.1H5000h4769.8l65.1,65.1l65.1,65.1v2966.8c0,2543.8-3.8,2989.8-28.7,3129.5c-130.2,746.5-702.5,1334.1-1454.7,1489.1c-164.6,34.4-321.6,36.4-3426.2,34.4C1927.9,3984.8,1727,3982.8,1573.8,3950.3z M1803.5,3533c-36.4-26.8-141.6-124.4-231.6-214.4c-423-423-648.9-968.5-648.9-1561.9v-220.1H710.6H498.1l9.6,417.3c11.5,451.7,28.7,562.7,128.2,780.9c201,444.1,616.3,758,1100.6,830.7c53.6,7.7,105.3,15.3,114.8,17.2C1862.9,3582.8,1839.9,3561.8,1803.5,3533z M7015.5,3565.6c488.1-45.9,924.5-277.5,1230.7-648.9c57.4-68.9,103.4-132.1,103.4-139.7c0-7.7-1506.4-15.3-3349.6-15.3c-1841.3,0-3349.6,7.7-3349.6,15.3c0,7.7,45.9,70.8,103.3,139.7c294.8,359.8,748.4,602.9,1196.3,646.9C3195,3586.6,6766.7,3588.6,7015.5,3565.6z M8414.7,3533c407.7-101.4,773.3-407.7,947.5-794.3c101.4-223.9,118.7-335,130.2-784.8l11.5-417.3h-210.5h-210.5l-11.5,283.3c-15.3,434.5-114.8,761.8-342.6,1127.4c-99.5,160.8-367.5,455.5-522.5,576.1l-76.6,59.3l86.1-11.5C8263.5,3565.6,8353.4,3548.4,8414.7,3533z M8613.7,2193.2c30.6-112.9,47.9-248.8,55.5-411.5l11.5-245H5000H1319.3l9.6,245c7.6,160.8,24.9,296.7,51.7,405.8c24.9,88,45.9,166.5,49.8,172.3c3.8,5.7,1611.6,7.7,3573.5,5.7l3565.9-3.8L8613.7,2193.2z M3775,924.2V713.6H2404.5H1034.1l-55.5-55.5l-55.5-55.5v-849.9c-1.9-2350.5,0-2566.7,30.6-2614.6c68.9-105.3-157-99.5,4046.3-99.5c4203.3,0,3977.4-5.7,4046.3,99.5c30.6,47.9,32.5,264.1,30.6,2614.6v849.9l-55.5,55.5l-55.5,55.5H7595.4H6225v210.5v210.5l1632.7-3.8l1630.8-5.7l5.7-2243.3l3.8-2245.2H5000H502v2249v2249h1636.5H3775V924.2z M5817.3,713.6c1.9-225.9-3.8-461.3-13.4-524.4c-68.9-436.4-490-746.5-922.6-679.5c-338.8,51.7-620.2,323.5-683.3,658.4c-19.1,103.4-28.7,920.7-9.6,949.4c5.7,9.6,338.8,15.3,817.3,13.4l807.7-5.7L5817.3,713.6z M3788.4,150.9c68.9-499.6,436.4-905.4,930.2-1027.9c135.9-32.5,103.4-34.4-1626.9-34.4L1325-913.3v612.5v612.5h1221.2h1221.2L3788.4,150.9z M8675-300.8v-612.5l-1774.3,1.9c-1621.2,1.9-1764.8,3.8-1642.3,28.7c493.8,105.3,884.3,528.3,953.2,1033.6l21.1,160.8h1221.2H8675V-300.8z M8675-1927.8v-612.5H5000H1325v612.5v612.5h3675h3675V-1927.8z"/><path d="M4846.9,893.6c-86.1-38.3-166.5-112.9-212.5-202.9c-74.6-145.5-28.7-375.1,95.7-480.4c32.5-26.8,59.3-72.7,67-118.7c7.7-40.2,38.3-95.7,68.9-128.2c114.8-114.8,304.3-42.1,336.9,128.2c7.7,46,34.5,91.9,67,118.7c78.5,67,132.1,191.4,132.1,310.1C5401.9,803.6,5103.3,1004.6,4846.9,893.6z"/></g></g>
</svg>