<?xml version="1.0" encoding="utf-8"?>
<!-- Svg Vector Icons : http://www.onlinewebfonts.com/icon -->
<!DOCTYPE svg PUBLIC "-//W3C//DTD SVG 1.1//EN" "http://www.w3.org/Graphics/SVG/1.1/DTD/svg11.dtd">
<svg version="1.1" xmlns="http://www.w3.org/2000/svg" xmlns:xlink="http://www.w3.org/1999/xlink" x="0px" y="0px" viewBox="0 0 1000 1000" enable-background="new 0 0 1000 1000" xml:space="preserve">
<metadata> Svg Vector Icons : http://www.onlinewebfonts.com/icon </metadata>
<g><g transform="translate(0.000000,511.000000) scale(0.100000,-0.100000)"><path d="M1592.7,4287.3c-58.6-23-131.9-138.2-131.9-205.2c0-121.5,108.9-234.6,226.2-234.6c144.5,0,234.6,88,234.6,230.4C1921.5,4255.9,1762.3,4356.4,1592.7,4287.3z"/><path d="M7697.5,4201.4c-20.9-10.5-60.7-96.3-90.1-196.8c-31.4-98.4-69.1-190.6-85.9-207.3c-16.8-16.7-83.8-46.1-150.8-64.9c-188.5-52.4-253.4-88-268.1-146.6c-27.2-106.8,16.8-150.8,209.4-209.4c98.4-29.3,192.7-69.1,209.4-85.9c16.8-16.7,56.5-111,85.9-209.4c58.6-192.7,102.6-236.7,209.4-209.4c58.6,14.7,94.2,79.6,146.6,268.1c18.9,64.9,48.2,129.8,64.9,146.6c18.9,14.6,115.2,56.5,213.6,90c155,54.4,184.3,71.2,203.1,121.5c35.6,106.8-16.7,163.3-209.4,217.8c-92.2,27.2-182.2,64.9-203.2,85.9c-20.9,20.9-58.6,106.8-81.7,192.7C7894.4,4201.4,7810.6,4268.5,7697.5,4201.4z"/><path d="M677.5,2628.7c-14.7-27.2-48.2-115.2-73.3-196.9c-23-81.7-58.6-163.3-77.5-178c-18.8-16.7-111-52.4-203.1-81.7c-134-41.9-178-67-203.1-111c-27.2-50.3-27.2-62.8,0-113.1c25.1-46.1,69.1-71.2,209.4-117.3c98.4-31.4,192.7-75.4,211.5-96.3c18.8-23,52.4-108.9,73.3-190.6c44-171.7,106.8-240.8,196.9-219.9c77.5,18.8,94.2,44,152.9,242.9c62.8,201.1,62.8,201.1,301.6,270.2c157.1,44,194.8,77.5,194.8,173.8c0,71.2-58.6,115.2-219.9,161.3c-207.3,58.6-228.3,79.6-274.4,253.4c-50.3,190.6-92.1,249.2-186.4,249.2C727.8,2674.7,700.5,2662.1,677.5,2628.7z"/><path d="M4727.8,2609.8c-996.9-127.7-1874.4-674.3-2354-1466C2183.3,827.6,2055.5,442.2,2032.5,105l-12.6-192.7L1839.8-207C1324.6-548.4,771.7-1040.5,556-1346.3c-119.4-169.6-236.7-397.9-270.2-529.9c-35.6-146.6-14.7-402.1,41.9-515.2c142.4-276.5,502.6-473.3,1047.1-571.8c328.8-58.6,1120.4-64.9,1572.8-8.4c2383.3,289,5084.9,1445.1,6349.9,2718.4c699.5,703.7,795.8,1344.5,257.6,1702.6c-362.3,238.7-898.5,339.3-1696.4,314.1c-253.4-6.3-517.3-18.9-586.4-27.2l-125.7-14.7l-121.5,129.9c-266,284.8-712.1,550.8-1116.3,666C5553,2618.2,5079.7,2655.9,4727.8,2609.8z M5408.5,2190.9c464.9-56.5,929.9-263.9,1227.2-546.6c150.8-142.4,249.2-276.5,345.6-469.1c113.1-226.2,106.8-251.3-125.7-481.7c-555-548.7-1897.4-1139.3-3028.3-1327.8c-364.4-60.7-883.8-77.5-1089-33.5c-102.6,20.9-169.6,48.2-192.7,75.4c-98.4,121.5-123.6,676.5-44,975.9C2811.6,1529.2,4128.9,2348,5408.5,2190.9z M9084,932.3c203.2-138.2,186.4-446.1-29.3-548.7c-280.6-131.9-569.6,180.1-410.5,444C8736.3,976.3,8945.8,1026.5,9084,932.3z M7555.1-338.9c291.1-152.9,182.2-588.5-148.7-588.5c-236.7,0-385.4,253.4-268.1,460.7C7224.2-315.9,7406.4-259.4,7555.1-338.9z M5620-1306.5c184.3-171.7,140.3-446.1-83.8-532c-117.3-44-217.8-29.3-305.8,46.1c-173.8,144.5-163.3,381.2,20.9,504.7C5351.9-1220.6,5538.3-1229,5620-1306.5z M1418.9-1784c194.8-140.3,192.7-385.4-4.2-534c-39.8-29.3-90-41.9-163.3-41.9c-226.2,0-385.3,249.2-284.8,444C1058.7-1740,1270.2-1677.2,1418.9-1784z M3471.3-1800.8c85.9-50.3,131.9-131.9,142.4-249.2c12.6-144.5-48.2-247.1-178-305.8c-303.7-134-586.4,242.9-366.5,488C3173.9-1752.6,3341.4-1723.3,3471.3-1800.8z"/><path d="M4822.1,1855.8c-67-10.5-173.8-33.5-234.6-50.3c-94.2-27.2-117.3-46.1-146.6-104.7c-33.5-69.1-33.5-77.5,0-146.6c46.1-96.4,102.6-106.8,318.3-62.8c341.4,73.3,697.4,10.5,1003.2-173.8c69.1-39.8,150.8-73.3,184.3-73.3c121.5,0,203.1,144.5,142.4,257.6c-27.2,50.3-224.1,169.6-391.6,236.7C5431.5,1845.4,5069.2,1895.6,4822.1,1855.8z"/><path d="M6225.3,1187.8c-98.4-106.8-18.9-280.6,127.7-280.6c138.2,0,211.5,182.2,113.1,280.6C6409.6,1244.3,6277.6,1244.3,6225.3,1187.8z"/><path d="M8870.3-2749.5c-18.8-12.6-54.4-90-77.5-171.7c-71.2-238.7-73.3-240.8-259.7-299.5c-213.6-69.1-236.7-81.7-253.4-148.7c-25.1-96.3,31.4-148.7,226.2-207.3c96.3-29.3,186.4-67,201-83.8c12.6-14.7,48.2-106.8,79.6-203.1c44-136.1,69.1-180.1,115.2-205.2c50.3-27.2,62.8-27.2,113.1,0c46.1,25.1,69.1,69.1,111,201c29.3,94.2,64.9,186.4,81.7,205.3c14.6,18.8,94.2,52.4,178,77.5c205.2,60.7,242.9,88,242.9,175.9c0,92.2-37.7,125.7-184.3,167.6c-240.8,64.9-247.1,73.3-307.9,270.2c-29.3,98.4-69.1,194.8-85.8,211.5C9014.9-2724.3,8922.7-2720.1,8870.3-2749.5z"/><path d="M6390.7-3189.3c-77.5-31.4-134-123.6-134-219.9c0-213.6,232.5-303.7,391.6-152.9C6822.1-3398.7,6612.7-3099.2,6390.7-3189.3z"/></g></g>
</svg>