<?xml version="1.0" encoding="utf-8"?>
<!-- Svg Vector Icons : http://www.onlinewebfonts.com/icon -->
<!DOCTYPE svg PUBLIC "-//W3C//DTD SVG 1.1//EN" "http://www.w3.org/Graphics/SVG/1.1/DTD/svg11.dtd">
<svg version="1.1" xmlns="http://www.w3.org/2000/svg" xmlns:xlink="http://www.w3.org/1999/xlink" x="0px" y="0px" viewBox="0 0 1000 1000" enable-background="new 0 0 1000 1000" xml:space="preserve">
<metadata> Svg Vector Icons : http://www.onlinewebfonts.com/icon </metadata>
<g><g transform="translate(0.000000,511.000000) scale(0.100000,-0.100000)"><path d="M4785.7,4958.4c-76.1-51.6-95.8-93.3-208.7-424.8c-255.4-753.8-540.2-1338.3-1274.4-2627.4C2826.2,1073.8,2421,283.1,2263.8-122C1696.6-1570.8,1866-2867.3,2750-3812.7c591.8-633.5,1370.2-974.8,2232.1-977.3c532.9-2.4,957.7,100.7,1424.2,338.9c832.4,424.8,1409.5,1191,1610.8,2126.5c63.9,287.3,63.9,903.6,0,1235.1C7874.7-316,7567.8,376.5,6710.8,1881.7c-744,1303.9-1053.4,1944.8-1299,2683.9c-132.6,402.7-154.7,427.3-390.4,442C4896.2,5014.9,4859.3,5007.6,4785.7,4958.4z M3791.2,732.5c270.1-270.1-12.3-876.6-407.6-876.6c-410.1,0-361,692.5,63.8,915.9C3575.1,840.6,3697.9,825.8,3791.2,732.5z M6674-1693.5c252.9-76.1,444.4-358.5,444.4-655.6c0-780.8-906.1-1571.5-1596.1-1394.7c-333.9,85.9-513.2,321.7-515.7,680.2c-2.5,618.8,584.4,1279.3,1252.3,1407C6349.8-1639.5,6556.1-1659.2,6674-1693.5z"/></g></g>
</svg>