<?xml version="1.0" encoding="utf-8"?>
<!-- Svg Vector Icons : http://www.onlinewebfonts.com/icon -->
<!DOCTYPE svg PUBLIC "-//W3C//DTD SVG 1.1//EN" "http://www.w3.org/Graphics/SVG/1.1/DTD/svg11.dtd">
<svg version="1.1" xmlns="http://www.w3.org/2000/svg" xmlns:xlink="http://www.w3.org/1999/xlink" x="0px" y="0px" viewBox="0 0 1000 1000" enable-background="new 0 0 1000 1000" xml:space="preserve">
<metadata> Svg Vector Icons : http://www.onlinewebfonts.com/icon </metadata>
<g><g transform="translate(0.000000,511.000000) scale(0.100000,-0.100000)"><path d="M5709.9,4377.8c-1270-470.7-1701.8-639.9-1731-674.9c-21.4-25.3-340.4-624.3-709.9-1332.3L2598,1085l-1124.2-5.8l-1126.1-5.8l-56.4-64.2c-107-118.7-58.3-291.7,95.3-334.5c44.7-11.7,414.3-19.4,972.5-19.4c494,0,898.6-3.9,898.6-7.8c0-5.8-52.5-91.4-116.7-190.6C1831.7-17.8,1538-719.9,1345.4-1445.4c-128.4-482.3-250.9-1200-260.6-1534.6l-3.9-161.4l73.9-64.2c128.4-110.9,731.3-365.6,1196.2-505.7c280.1-81.7,727.4-188.7,984.2-235.3l190.6-33.1l208.1-208.1c305.4-311.2,632.1-507.6,953-575.7c190.6-38.9,486.2-35,682.7,11.7c340.4,81.7,694.4,299.5,986.1,608.8l157.5,169.2l260.6,48.6c595.1,114.7,1184.5,293.7,1672.6,509.6c315.1,138.1,435.7,214,464.8,291.7c35,93.4-42.8,709.9-157.5,1250.6c-186.7,885-519.3,1752.4-894.7,2330c-64.2,99.2-116.7,184.8-116.7,190.6c0,3.9,412.3,7.8,914.1,7.8c982.2,0,1009.4,1.9,1077.5,99.2c50.6,73.9,40.8,180.9-25.3,254.8l-56.4,64.2l-1126.1,5.8L7402,1085l-632.1,1207.8c-348.2,665.2-632.1,1215.6-632.1,1223.4c0,7.8,336.5,268.4,748.8,579.6c513.5,387.1,760.5,585.4,783.8,628.2c70,134.2-31.1,289.8-186.7,285.9C7427.3,5008,6869.1,4809.6,5709.9,4377.8z M6205.9,4109.4c0-3.9-107-89.5-237.3-188.7c-132.3-99.2-254.8-198.4-272.3-219.8c-68.1-83.6-46.7-167.3,138.1-513.5c93.4-178.9,186.7-354,204.2-387.1l33-64.2H5000H3928.3l169.2,326.7c93.3,178.9,171.1,328.7,175,332.6c3.9,3.9,1902.2,713.8,1929.4,719.6C6203.9,4117.2,6205.9,4113.3,6205.9,4109.4z M4163.7,2113.9V1900H3833c-180.9,0-330.6,3.9-330.6,9.7c0,15.6,68.1,147.8,149.8,297.6l68.1,120.6H3942h221.7V2113.9z M5000,2113.9V1900h-204.2h-204.2v213.9v213.9h204.2H5000V2113.9z M6392.6,2123.6c58.3-107,105-200.3,105-210c0-7.8-243.1-11.7-538.8-9.7l-540.7,5.8l-5.8,210.1l-5.8,208.1l441.5-3.9l439.6-5.8L6392.6,2123.6z M6824.4,1299c56.4-105,101.1-196.4,101.1-204.2c0-5.8-865.5-11.7-1925.5-11.7c-1060,0-1925.5,5.8-1925.5,11.7c0,7.8,44.7,99.2,101.1,204.2l101.1,192.6H5000h1723.2L6824.4,1299z M2924.7-972.8c5.8-1565.7,7.8-1637.7,46.7-1804.9c52.5-225.6,126.4-447.3,202.3-595.1c33.1-66.2,56.4-122.6,50.6-126.4c-15.6-15.6-729.4,173.1-999.7,266.4c-254.8,89.5-632.1,243.1-702.1,287.9c-21.4,11.7-19.4,60.3,5.8,260.6C1683.9-1408.4,2139-163.7,2708.9,548.2c70,87.5,95.3,105,145.9,107h62.2L2924.7-972.8z M6649.3-1040.8l-5.8-1697.9l-54.5-175.1c-270.4-873.3-980.3-1503.4-1649.3-1462.6c-581.5,37-1203.9,626.3-1482.1,1408.2c-110.9,305.4-110.9,320.9-110.9,2040.2V655.2H5000h1655.1L6649.3-1040.8z M7250.3,592.9C7616,203.9,8038-706.3,8267.5-1606.8c142-556.3,258.7-1307,210.1-1338.1c-79.7-52.5-476.5-212-744.9-301.5c-291.7-97.2-824.7-241.2-890.8-241.2c-25.3,0-21.4,23.3,25.3,120.6c62.2,142,126.4,338.4,169.2,531c27.2,116.7,33.1,367.6,38.9,1814.6l7.8,1676.5h54.5C7172.5,655.2,7211.4,633.8,7250.3,592.9z"/><path d="M4093.7-179.2c-116.7-50.6-161.4-221.7-85.6-319c54.5-68.1,147.8-91.4,369.5-91.4c101.1,0,217.8,9.7,256.7,19.5c153.6,42.8,202.3,215.9,95.3,334.5l-56.4,64.2l-270.4,3.9C4255.1-165.6,4115.1-171.4,4093.7-179.2z"/><path d="M5513.5-198.7c-70-42.8-112.8-145.9-95.3-221.7c7.8-27.2,38.9-73.9,70-103.1c56.4-54.5,66.1-56.4,295.6-62.2c161.5-3.9,262.6,1.9,315.1,19.4c163.4,54.5,194.5,264.5,50.6,359.8c-60.3,40.8-87.5,44.7-320.9,44.7C5610.7-161.7,5564-167.5,5513.5-198.7z"/><path d="M4877.5-881.3c-68.1-54.4-99.2-151.7-72-225.6c11.7-31.1,77.8-153.6,147.8-272.3c68.1-118.6,124.5-221.7,124.5-227.5c0-7.8-33.1-13.6-73.9-13.6c-142,0-241.2-132.2-198.4-264.5c42.8-130.3,83.6-143.9,422.1-143.9H5529l66.1,66.1c107,107,99.2,136.1-177,612.7c-134.2,231.5-266.5,439.6-293.7,464.9C5062.3-828.8,4945.6-826.9,4877.5-881.3z"/><path d="M4093.7-2670.7c-81.7-33.1-124.5-112.8-124.5-233.4c0-237.3,130.3-515.4,330.6-702.1c332.6-313.1,779.9-377.3,1170.9-169.2c320.9,171.2,560.2,544.6,560.2,873.3c0,99.2-7.8,122.5-56.4,177L5918-2661l-892.7,3.9C4535.2-2655.1,4115.1-2661,4093.7-2670.7z M5564-3094.7c0-35-120.6-196.4-180.9-243.1c-138.1-105-229.5-138.1-383.1-138.1c-153.6,0-245.1,33-383.2,138.1c-60.3,46.7-180.9,208.1-180.9,243.1c0,7.8,254.8,15.6,564,15.6C5311.2-3079.1,5564-3086.9,5564-3094.7z"/></g></g>
</svg>