<?xml version="1.0" encoding="utf-8"?>
<!-- Svg Vector Icons : http://www.onlinewebfonts.com/icon -->
<!DOCTYPE svg PUBLIC "-//W3C//DTD SVG 1.1//EN" "http://www.w3.org/Graphics/SVG/1.1/DTD/svg11.dtd">
<svg version="1.1" xmlns="http://www.w3.org/2000/svg" xmlns:xlink="http://www.w3.org/1999/xlink" x="0px" y="0px" viewBox="0 0 1000 1000" enable-background="new 0 0 1000 1000" xml:space="preserve">
<metadata> Svg Vector Icons : http://www.onlinewebfonts.com/icon </metadata>
<g><g transform="translate(0.000000,512.000000) scale(0.100000,-0.100000)"><path d="M2577.3,4951.1c-74.7-74.7-86.2-149.4-40.2-239.4c38.3-74.7,93.8-95.8,289.2-109.2c614.8-44,923.1-268.1,1032.3-750.8c47.9-218.3,42.1-260.5-57.5-411.8c-160.9-241.3-272-555.4-323.7-917.4c-36.4-258.5-38.3-570.7-1.9-620.5c23-34.5,13.4-49.8-134.1-181.9C2814.8,1249,2282.4,536.6,1945.3-147.2c-302.6-610.9-402.2-969.1-402.2-1455.5c0-354.3,23-463.5,147.5-718.2c195.3-400.3,653.1-691.4,1097.4-695.2c95.8-1.9,195.4,3.8,222.2,9.6c47.9,13.4,51.7,7.6,109.2-143.7c262.4-687.6,741.2-1260.2,1254.4-1497.7c233.7-107.2,356.2-132.1,645.4-132.1c229.8,1.9,277.7,7.7,421.3,53.6c316,103.4,551.6,258.6,815.9,532.4c249,258.6,507.5,679.9,647.3,1051.4l46,122.6l216.4,1.9c183.9,1.9,243.2,11.5,371.6,53.6c442.4,149.4,748.8,465.4,875.2,902.1c38.3,132.1,44,195.4,44,459.6c-1.9,488.4-99.6,844.6-402.2,1455.5c-335.2,679.9-827.4,1340.6-1378.9,1852c-103.4,95.8-168.5,170.4-164.7,187.7c3.8,15.3,11.5,122.6,15.3,235.6c17.2,446.2-116.8,990.2-319.8,1288.9c-49.8,74.7-57.5,103.4-57.5,216.4c0,70.9,17.2,195.4,36.4,273.9c116.8,457.7,383,653.1,946.1,695.2c210.7,15.3,264.3,44,300.7,151.3c28.7,90-13.4,189.6-97.7,233.7c-53.6,26.8-95.8,30.6-256.6,21.1c-685.6-42.1-1145.3-396.5-1287-992.1l-34.5-145.6l-114.9,51.7c-212.6,95.8-358.1,124.5-651.2,124.5c-283.4-1.9-471.1-38.3-641.6-124.5l-74.7-38.3l-21.1,80.4c-160.9,645.4-633.9,997.8-1392.3,1041.9l-214.5,13.4L2577.3,4951.1z M5214.5,3627.7c517.1-93.8,813.9-505.6,898.2-1252.5c13.4-107.3,19.2-201.1,13.4-204.9c-5.7-5.7-90,38.3-189.6,99.6c-367.7,222.2-760.3,360-974.8,344.7c-239.4-19.2-616.7-168.5-948-373.5c-84.3-53.6-157.1-93.9-159-90c-15.3,15.3,38.3,411.8,74.7,565c51.7,212.6,183.9,484.5,294.9,607.1C4461.8,3589.4,4816.1,3698.5,5214.5,3627.7z M4783.6,1764.2C4739.5,147.8,4063.5-1821,3356.8-2387.9c-59.4-47.9-164.7-114.9-233.7-149.4c-114.9-57.5-137.9-61.3-316-61.3c-185.8,0-199.2,1.9-346.7,74.7c-517.1,256.6-649.2,792.9-398.4,1618.3c304.5,1005.5,1254.4,2227.4,2171.8,2800c149.4,91.9,503.7,266.2,543.9,266.2C4787.4,2160.6,4789.3,1992.1,4783.6,1764.2z M5473,2055.3C6537.9,1555.4,7725.3,59.7,7999.2-1133.5c160.9-693.3,3.8-1166.3-461.5-1388.5c-354.3-170.4-689.5-88.1-1020.8,254.7c-668.4,689.5-1256.4,2512.7-1300.4,4033.4l-11.5,398.4l45.9-13.4C5275.8,2143.4,5375.4,2101.3,5473,2055.3z M5063.2-38c28.7-122.6,51.7-229.8,51.7-237.5c0-9.6-51.7-15.3-114.9-15.3s-114.9,5.7-114.9,15.3c0,32.6,105.3,463.5,114.9,463.5C5005.7,188,5032.6,86.5,5063.2-38z M5317.9-903.7c34.5-99.6,63.2-187.7,65.1-195.4c0-9.6-172.3-15.3-383-15.3c-210.7,0-383,5.7-383,11.5c0,7.7,61.3,189.6,124.5,367.7c5.7,17.2,69,23,260.5,19.2l252.8-5.7L5317.9-903.7z M5658.8-1721.4c59.4-111.1,107.2-206.8,107.2-210.7s-344.7-5.8-766.1-5.8s-766.1,1.9-766.1,5.8s47.9,99.6,107.3,210.7l105.3,204.9H5000h553.5L5658.8-1721.4z M6053.4-2357.3c0-9.6,80.4-99.6,180-201.1l178.1-183.9H4994.3H3577l122.6,113c67,63.2,153.2,153.2,189.6,201.1l67,86.2l1049.5,1.9C5611-2340,6053.4-2347.7,6053.4-2357.3z M6369.4-3330.2c-49.8-90-99.6-182-111.1-201.1c-21.1-32.6-78.5-34.5-1248.7-34.5c-1170.2,0-1227.6,1.9-1248.7,34.5c-11.5,19.2-61.3,111.1-111.1,201.1l-90,166.6h1449.8h1449.8L6369.4-3330.2z M5881-3996.7c-40.2-49.8-273.9-214.5-373.5-264.3c-427.1-214.5-911.6-136-1302.3,206.8l-95.8,84.3l898.2,1.9C5800.5-3967.9,5902.1-3971.8,5881-3996.7z"/></g></g>
</svg>