<?xml version="1.0" encoding="utf-8"?>
<!-- Svg Vector Icons : http://www.onlinewebfonts.com/icon -->
<!DOCTYPE svg PUBLIC "-//W3C//DTD SVG 1.1//EN" "http://www.w3.org/Graphics/SVG/1.1/DTD/svg11.dtd">
<svg version="1.1" xmlns="http://www.w3.org/2000/svg" xmlns:xlink="http://www.w3.org/1999/xlink" x="0px" y="0px" viewBox="0 0 1000 1000" enable-background="new 0 0 1000 1000" xml:space="preserve">
<metadata> Svg Vector Icons : http://www.onlinewebfonts.com/icon </metadata>
<g><g><path d="M306.1,982.6l46.9-49.3c9.4-9.4,25-9.4,33.6,0l46.9,49.3c14.9,15.6,40.7,4.7,40.7-16.4v-89.1h380c10.9,0,22.7-3.9,30.5-12.5c12.5-14.1,13.3-34.4,3.1-49.3c-9.4-13.3-15.6-31.3-18-46.9c-2.4-15.6-1.6-31.3,3.1-46.9c5.5-17.2,21.9-33.6,21.9-51.6v-613c0-25.8-21.1-46.9-46.9-46.9H152.1c-25.8,0-46.9,21.1-46.9,46.9v612.2v161.1c0,25.8,21.1,46.9,46.9,46.9h113.4v89.1C265.4,987.3,291.3,997.5,306.1,982.6z M260.8,112.4c0-13.3,10.2-23.5,23.5-23.5h508.2c13.3,0,23.5,10.2,23.5,23.5v494.1c0,13.3-10.2,23.5-23.5,23.5H284.2c-13.3,0-23.5-10.2-23.5-23.5V112.4z M206.8,798.9c-13.3,0-23.5-10.2-23.5-23.5v-43.8c0-13.3,10.2-23.5,23.5-23.5h587.9c-8.6,33.6-5.5,65.7,1.6,90.7H474.2v-49.3H265.4v49.3H206.8L206.8,798.9z"/><path d="M345.2,241.4h49.3c13.3,0,23.5-10.2,23.5-23.5v-49.3c0-13.3-10.2-23.5-23.5-23.5h-49.3c-13.3,0-23.5,10.2-23.5,23.5V218C321.7,231.3,331.9,241.4,345.2,241.4z"/><path d="M345.2,411.1h49.3c13.3,0,23.5-10.2,23.5-23.5v-49.3c0-13.3-10.2-23.5-23.5-23.5h-49.3c-13.3,0-23.5,10.2-23.5,23.5v49.3C321.7,400.1,331.9,411.1,345.2,411.1z"/><path d="M345.2,580h49.3c13.3,0,23.5-10.2,23.5-23.5v-49.3c0-13.3-10.2-23.5-23.5-23.5h-49.3c-13.3,0-23.5,10.2-23.5,23.5v49.3C321.7,569,331.9,580,345.2,580z"/></g><g></g><g></g><g></g><g></g><g></g><g></g><g></g><g></g><g></g><g></g><g></g><g></g><g></g><g></g><g></g></g>
</svg>