<?xml version="1.0" encoding="utf-8"?>
<!-- Svg Vector Icons : http://www.onlinewebfonts.com/icon -->
<!DOCTYPE svg PUBLIC "-//W3C//DTD SVG 1.1//EN" "http://www.w3.org/Graphics/SVG/1.1/DTD/svg11.dtd">
<svg version="1.1" xmlns="http://www.w3.org/2000/svg" xmlns:xlink="http://www.w3.org/1999/xlink" x="0px" y="0px" viewBox="0 0 1000 1000" enable-background="new 0 0 1000 1000" xml:space="preserve">
<metadata> Svg Vector Icons : http://www.onlinewebfonts.com/icon </metadata>
<g><g transform="translate(0.000000,511.000000) scale(0.100000,-0.100000)"><path d="M4361.4,4978.6c-874.3-104.7-1591.6-480.8-2085.9-1093.4c-571.9-709.5-884-1768-885.9-2997.1V576l-95-60.1c-133.8-87.2-335.4-308.3-420.7-463.3C755.6-156.8,705.2-350.6,705.2-602.6c-1.9-244.3,29.1-391.6,129.9-601c168.7-356.7,502.1-637.8,870.4-732.8c64-17.5,116.3-32.9,118.3-36.8c1.9-3.9,38.8-100.8,79.5-217.1c478.8-1380.3,1444.3-2332.1,2601.6-2564.8c236.5-46.5,763.8-46.5,1000.3,0C6668.3-4520.5,7629.9-3568.7,8116.5-2169l81.4,236.5l180.3,87.2c325.7,159,581.6,451.7,699.8,796.8c40.7,120.2,54.3,203.6,62,370.3c7.8,211.3,9.7,217.1,54.3,215.2c87.2,0,110.5,40.7,96.9,160.9c-7.8,58.1-34.9,298.5-62,533.1c-149.3,1347.3-424.6,2260.4-913.1,3039.7c-261.7,416.8-668.8,839.4-1074,1114.7c-242.3,162.9-649.4,348.9-965.4,442C5708.7,4994.1,4964.3,5052.3,4361.4,4978.6z M3492.9,1272C3886.5,863,4448.7,517.9,5131,263.9c436.2-162.8,986.8-314.1,1143.8-314.1c155.1,0,129.9,75.6-122.1,352.9c-190,213.2-343.1,389.6-401.3,471.1c-27.1,36.8-27.1,36.8,13.6,9.7c23.3-15.5,141.5-100.8,261.7-188.1C6606.3,176.7,7141.4-100.5,7521.3-180c381.9-77.5,457.5,75.6,217.1,440.1c-56.2,85.3-98.9,155.1-95,155.1c1.9,0,114.4-77.5,246.2-170.6c131.8-95,345.1-238.5,475-321.8c230.7-151.2,232.6-151.2,267.5-261.7c52.3-159,48.5-438.1-9.7-589.3c-118.3-302.4-397.4-527.3-711.4-571.9l-93.1-13.6l-69.8-248.1c-221-761.9-571.9-1368.7-1060.4-1837.8c-502.1-480.8-1064.3-723.1-1682.7-723.1c-651.4,0-1205.8,250.1-1735,781.3c-339.2,341.2-583.5,701.8-787.1,1163.2c-96.9,221-219.1,581.6-261.7,765.7c-23.3,110.5-25.2,112.4-83.3,102.7c-110.5-15.5-321.8,23.3-445.9,81.4c-343.1,164.8-531.2,482.7-511.8,868.5c5.8,149.3,17.4,191.9,77.5,317.9c38.8,79.5,91.1,168.6,116.3,199.7l48.5,56.2l23.3-153.1c75.6-457.5,201.6-589.3,411-428.4C2027.3-439.8,2258-85,2864.8,965.7l356.7,616.5l48.5-64C3295.2,1481.4,3396,1370.9,3492.9,1272z"/><path d="M3448.3-769.4c-222.9-110.5-261.7-430.4-71.7-597.1c62-54.3,172.5-98.9,242.3-98.9c137.6,0,288.8,108.6,341.2,242.3C4080.3-908.9,3752.7-620.1,3448.3-769.4z"/><path d="M6065.4-769.4c-222.9-110.5-261.7-430.4-71.7-597.1c62-54.3,172.5-98.9,242.3-98.9c137.6,0,288.9,108.6,341.2,242.3C6695.5-910.9,6367.9-620.1,6065.4-769.4z"/><path d="M3995-2597.5c-100.8-71.7-67.9-201.6,91.1-370.3c217.1-228.8,438.1-319.9,823.9-333.4c294.6-11.6,482.7,19.4,680.4,112.4c211.3,100.8,432.3,345.1,432.3,476.9c0,64-73.7,141.5-135.7,141.5c-87.2,0-114.4-17.4-182.2-124.1c-36.8-58.2-104.7-127.9-159-164.8c-155.1-102.7-271.4-127.9-579.6-127.9c-232.6,1.9-286.9,7.8-380,44.6c-145.4,58.2-224.9,118.3-329.6,250.1c-73.7,93-98.9,112.4-155.1,118.2C4064.8-2572.2,4016.3-2581.9,3995-2597.5z"/></g></g>
</svg>