<?xml version="1.0" encoding="utf-8"?>
<!-- Svg Vector Icons : http://www.onlinewebfonts.com/icon -->
<!DOCTYPE svg PUBLIC "-//W3C//DTD SVG 1.1//EN" "http://www.w3.org/Graphics/SVG/1.1/DTD/svg11.dtd">
<svg version="1.1" xmlns="http://www.w3.org/2000/svg" xmlns:xlink="http://www.w3.org/1999/xlink" x="0px" y="0px" viewBox="0 0 1000 1000" enable-background="new 0 0 1000 1000" xml:space="preserve">
<metadata> Svg Vector Icons : http://www.onlinewebfonts.com/icon </metadata>
<g><g><g><path d="M989.6,466.7c-4.4-41.4-222.8-32.6-222.8-32.6l-92.4-131H249.6l-62,131H10v134.7l113.7,38.2c6.9-46.9,47.2-83,95.9-83c52.6,0,95.5,42.1,97,94.4l371,2.3c0.2-53.3,43.7-96.7,97.1-96.7c47.9,0,87.6,34.9,95.5,80.7l82.9-9.5C963.2,595.3,994,508.1,989.6,466.7z M234.6,434.2l41.8-99.3h160.5l26.4,99.3H234.6z M485.5,434.2L459,334.9h205.7l63.7,99.3H485.5z"/><circle cx="220.7" cy="624.6" r="72.2"/><circle cx="785" cy="620.9" r="72.3"/></g></g><g></g><g></g><g></g><g></g><g></g><g></g><g></g><g></g><g></g><g></g><g></g><g></g><g></g><g></g><g></g></g>
</svg>