<?xml version="1.0" encoding="utf-8"?>
<!-- Svg Vector Icons : http://www.onlinewebfonts.com/icon -->
<!DOCTYPE svg PUBLIC "-//W3C//DTD SVG 1.1//EN" "http://www.w3.org/Graphics/SVG/1.1/DTD/svg11.dtd">
<svg version="1.1" xmlns="http://www.w3.org/2000/svg" xmlns:xlink="http://www.w3.org/1999/xlink" x="0px" y="0px" viewBox="0 0 1000 1000" enable-background="new 0 0 1000 1000" xml:space="preserve">
<metadata> Svg Vector Icons : http://www.onlinewebfonts.com/icon </metadata>
<g><path d="M500,10c121.1,0,220.3,16.3,297.6,49c77.3,32.7,113.5,67.3,108.8,104l-86,709.9c-1.6,11.2-15.1,25.5-40.6,43c-25.5,17.5-64.1,34.3-115.9,50.2C612,982,557.4,990,500,990c-57.4,0-111.5-8-162.5-23.9c-51-15.9-89.6-32.7-115.9-50.2c-26.3-17.5-40.2-31.9-41.8-43L93.7,163c-3.2-22.3,11.2-45,43-68.1c31.9-23.1,80.1-43,144.6-59.8C345.8,18.4,418.7,10,500,10L500,10 M500,268.1c57.4,0,111.9-6,163.7-17.9c51.8-12,90.8-25.1,117.1-39.4c26.3-14.3,39.4-26.3,39.4-35.9s-13.1-21.1-39.4-34.7c-26.3-13.5-65.3-26.3-117.1-38.2S557.4,84.1,500,84.1c-57.4,0-111.9,6-163.7,17.9c-51.8,12-90.8,24.7-117.1,38.2c-26.3,13.5-39.4,25.1-39.4,34.7s13.1,21.5,39.4,35.9c26.3,14.3,65.3,27.5,117.1,39.4C388.1,262.2,442.6,268.1,500,268.1L500,268.1"/></g>
</svg>