<?xml version="1.0" encoding="utf-8"?>
<!-- Svg Vector Icons : http://www.onlinewebfonts.com/icon -->
<!DOCTYPE svg PUBLIC "-//W3C//DTD SVG 1.1//EN" "http://www.w3.org/Graphics/SVG/1.1/DTD/svg11.dtd">
<svg version="1.1" xmlns="http://www.w3.org/2000/svg" xmlns:xlink="http://www.w3.org/1999/xlink" x="0px" y="0px" viewBox="0 0 1000 1000" enable-background="new 0 0 1000 1000" xml:space="preserve">
<metadata> Svg Vector Icons : http://www.onlinewebfonts.com/icon </metadata>
<g><g transform="translate(0.000000,410.000000) scale(0.100000,-0.100000)"><path d="M4851.6,3003.4c-406.2-78.6-687.8-482.8-620.7-887c32.6-201.2,137.9-379.3,297-503.9l55.6-42.1L3905.2,8.9c-371.7-860.2-682-1563.3-687.8-1563.3c-7.7,0-396.6,346.8-866,768.3L1497-16l49.8,74.7c189.7,300.8,141.8,705-113,959.8c-456,456-1214.6,205-1323.8-436.8C69.6,348,153.9,95.2,332.1-83c105.4-105.4,279.7-199.2,410-218.4c46-5.7,82.4-13.4,82.4-17.2c0-1.9,147.5-601.6,325.7-1331.5l325.7-1327.7v-858.3v-860.2l55.6-61.3l55.5-63.2h3414h3414l55.5,63.2l55.6,61.3v860.2v860.2l325.7,1327.7C9032-918.3,9177.6-320.6,9177.6-316.8c0,1.9,36.4,9.6,82.4,15.3c214.6,32.6,459.8,216.5,559.4,421.5c231.8,475.1-59.4,1038.4-578.6,1120.8c-653.3,101.5-1136.1-624.6-783.6-1182.1l47.9-76.6l-854.5-768.3c-469.4-421.5-858.3-768.3-864-768.3c-7.7,0-318,703.1-689.7,1563.3l-678.2,1561.4l55.6,42.1c231.8,180.1,346.8,475.1,295,756.8c-59.4,325.7-306.5,574.8-634.2,636.1C5020.2,3026.4,4968.5,3026.4,4851.6,3003.4z M5150.5,2593.4c90-38.3,151.4-95.8,199.3-189.7c53.6-103.5,42.1-285.5-21.1-379.3c-124.5-180.1-371.7-228-549.8-107.3c-195.4,134.1-218.4,440.6-42.1,603.5C4840.1,2618.3,5014.4,2649,5150.5,2593.4z M5790.4-270.8c410-942.6,762.5-1731.9,785.5-1756.8c53.7-57.5,149.4-74.7,218.4-38.3c30.7,17.2,486.6,417.7,1013.5,892.8c526.9,473.2,959.8,860.2,961.8,858.3c1.9-3.8-136-576.7-306.5-1274.1l-310.4-1268.3H5001H1849.5l-310.4,1268.3c-170.5,697.4-308.4,1270.2-306.5,1274.1c3.8,1.9,431.1-381.3,952.2-850.7c521.1-469.4,975.2-869.8,1005.8-888.9c32.6-21.1,80.5-36.4,109.2-36.4c120.7,0,128.4,15.3,879.4,1743.4C4570,553,4905.2,1327,4924.4,1373C5004.9,1553.1,4974.2,1610.6,5790.4-270.8z M1044.8,823.2c281.6-126.5,295-538.4,24.9-691.6C887.7,30,640.6,100.9,542.9,282.9c-80.4,155.2-49.8,360.2,74.7,475.1C724.9,859.6,906.9,886.4,1044.8,823.2z M9269.5,830.8c287.4-120.7,320-523,53.7-687.8c-174.3-109.2-404.2-61.3-523,107.3c-59.4,88.1-80.5,241.4-44.1,348.7C8823.1,805.9,9064.5,915.1,9269.5,830.8z M8143-3843.8v-584.3H5001H1859v584.3v584.3h3142h3142V-3843.8z"/></g></g>
</svg>