<?xml version="1.0" encoding="utf-8"?>
<!-- Svg Vector Icons : http://www.onlinewebfonts.com/icon -->
<!DOCTYPE svg PUBLIC "-//W3C//DTD SVG 1.1//EN" "http://www.w3.org/Graphics/SVG/1.1/DTD/svg11.dtd">
<svg version="1.1" xmlns="http://www.w3.org/2000/svg" xmlns:xlink="http://www.w3.org/1999/xlink" x="0px" y="0px" viewBox="0 0 1000 1000" enable-background="new 0 0 1000 1000" xml:space="preserve">
<metadata> Svg Vector Icons : http://www.onlinewebfonts.com/icon </metadata>
<g><g><g><path d="M529.4,119.2c9.8-136.9-92.4-106.3-92.4-106.3s-69.3,17.3-50.8,91.3c25.4,62.4,120.7,175.6,120.7,175.6S519.5,256.1,529.4,119.2z"/><path d="M824.7,240.3c0,0-15.2-69.8-89.7-53.6C671.9,210.2,555.8,302,555.8,302s23.3,13.4,159.8,27.4C852.2,343.4,824.7,240.3,824.7,240.3z"/><path d="M669.5,34.1c0,0-62.9-33.8-99,33.3c-23.2,63.2-28.9,211.1-28.9,211.1s25.3-9,124.7-103.6C765.7,80.3,669.5,34.1,669.5,34.1z"/><path d="M566.1,328.4c0,0,5.9,26.2,87.9,136.3c82,110,139.4,20,139.4,20s41.1-58.4-21.2-102.3C712.3,351.8,566.1,328.4,566.1,328.4z"/><path d="M656.8,530.7C633,467.7,540.6,352,540.6,352s-10.4,29.7-26.7,159.9c-17,136.2,89.6,108.7,89.6,108.7S673.3,605.1,656.8,530.7z"/><path d="M240.4,160.6c0,0-37,61.1,28.2,100.6c62,26.4,209.4,39.6,209.4,39.6s-7.7-25.8-97.2-129.8C291.3,66.9,240.4,160.6,240.4,160.6z"/><path d="M211.2,417c0,0,22.4,67.8,94.8,44c60.3-29.9,166.2-133.4,166.2-133.4s-24.6-10.9-161.8-10.6C173.1,317.3,211.2,417,211.2,417z"/><path d="M517.8,990h62.4c0,0-196.8-154.5-165.9-403.4c14.1-3.4,26.1-8.9,40-27.4c32.4-59,49.7-214.3,49.7-214.3s-32.6,19.3-128.3,95.6c-116,92.6-24.3,139.1-24.3,139.1s22.2,11.3,51.8,8.8C383.6,669,361.5,870.6,517.8,990z"/><path d="M176.4,773.7c-12.1,39.9,12.1,98.8,12.1,98.8c69.3,149,230.5,84.9,230.5,84.9C344.5,803.1,185.4,744.1,176.4,773.7z"/></g></g><g></g><g></g><g></g><g></g><g></g><g></g><g></g><g></g><g></g><g></g><g></g><g></g><g></g><g></g><g></g></g>
</svg>