<?xml version="1.0" encoding="utf-8"?>
<!-- Svg Vector Icons : http://www.onlinewebfonts.com/icon -->
<!DOCTYPE svg PUBLIC "-//W3C//DTD SVG 1.1//EN" "http://www.w3.org/Graphics/SVG/1.1/DTD/svg11.dtd">
<svg version="1.1" xmlns="http://www.w3.org/2000/svg" xmlns:xlink="http://www.w3.org/1999/xlink" x="0px" y="0px" viewBox="0 0 1000 1000" enable-background="new 0 0 1000 1000" xml:space="preserve">
<metadata> Svg Vector Icons : http://www.onlinewebfonts.com/icon </metadata>
<g><g transform="translate(0.000000,511.000000) scale(0.100000,-0.100000)"><path d="M4105.6,4515c-324.9-60.3-745.1-249-1089.5-492.2c-241.2-169.3-727.6-655.6-900.8-898.8c-165.4-235.4-389.1-675.1-503.9-1001.9c-190.7-531.1-317.1-1021.4-521.4-2029.1C928.6-698.9,876.1-918.7,810-1115.2c-109-313.2-219.8-426.1-546.7-548.6c-206.2-77.8-214-184.8-40.9-533.1c208.2-422.2,422.2-675.1,741.2-883.3c494.2-322.9,1241.2-529.2,2033-560.3l301.6-11.7l116.7-91.4c523.3-412.4,1083.6-603.1,1692.6-575.9c538.9,23.3,1029.2,212.1,1472.7,568.1l130.4,105.1h190.7c105,0,299.6,13.6,433.8,29.2C8448-3486.8,9212.5-3121,9591.9-2537.4c132.3,206.2,295.7,548.6,305.4,647.8c13.6,122.6-23.3,175.1-163.4,227.6c-472.8,177.1-523.3,282.1-813.2,1712c-344.4,1688.7-605,2463-1036.9,3073.9c-155.6,219.8-610.9,684.8-826.8,844.4c-700.4,517.5-1455.2,704.3-1949.4,480.5l-118.7-54.5l-93.4,46.7C4700.9,4540.3,4399.4,4567.6,4105.6,4515z M6520,984C6662,768,6963.6,458.7,7125,363.3c151.7-87.5,315.2-151.8,482.5-186.8c324.9-68.1,554.5-284,634.2-593.4c110.9-437.7-179-885.2-628.4-972.7c-75.9-15.6-122.6-35-122.6-50.6c0-60.3-145.9-496.1-239.3-714c-182.9-428-410.5-766.5-721.8-1073.9c-305.4-303.5-614.8-490.3-996.1-605c-214-62.3-603.1-85.6-840.5-46.7c-762.6,122.6-1433.8,686.8-1861.8,1566.1c-110.9,227.6-249,601.2-301.6,819.1l-19.5,79.8l-155.6,11.7c-356,23.3-659.5,278.2-737.3,618.7c-93.4,402.7,157.6,828.8,558.3,943.6c124.5,37,188.7,29.2,437.7-48.6C3280.7-97.7,4002.5-23.8,4673.7,326.4c470.8,243.2,1035,717.9,1398.8,1173.1l101.2,126.5l112.8-229.6C6346.8,1269.9,6451.9,1085.1,6520,984z"/><path d="M3782.7-535.5c-35-9.7-91.4-50.6-130.3-93.4c-124.5-138.1-114.8-330.7,23.3-455.3c254.9-231.5,651.7,46.7,511.7,358C4111.5-554.9,3959.7-482.9,3782.7-535.5z"/><path d="M6078.4-551c-122.6-56.4-173.2-140.1-173.2-293.8c0-153.7,50.6-237.4,173.2-293.8c101.2-44.7,175.1-44.7,276.2,0c122.6,56.4,173.2,140.1,173.2,293.8c0,103.1-9.7,138.1-46.7,192.6c-52.5,72-177,138.1-264.6,138.1C6185.4-514.1,6123.1-531.6,6078.4-551z"/><path d="M4144.5-2173.6c-223.7-112.8,122.6-509.7,527.2-607c161.5-37,496.1-37,657.6,0c231.5,54.5,420.2,175.1,525.3,334.6c89.5,136.2,75.9,252.9-35,287.9c-60.3,19.5-116.7-17.5-182.9-116.7c-114.8-177-328.8-262.6-645.9-262.6c-293.8,0-515.6,93.4-634.2,264.6c-52.5,77.8-108.9,124.5-147.9,124.5C4201-2148.3,4171.8-2160,4144.5-2173.6z"/></g></g>
</svg>