<?xml version="1.0" encoding="utf-8"?>
<!-- Svg Vector Icons : http://www.onlinewebfonts.com/icon -->
<!DOCTYPE svg PUBLIC "-//W3C//DTD SVG 1.1//EN" "http://www.w3.org/Graphics/SVG/1.1/DTD/svg11.dtd">
<svg version="1.1" xmlns="http://www.w3.org/2000/svg" xmlns:xlink="http://www.w3.org/1999/xlink" x="0px" y="0px" viewBox="0 0 1000 1000" enable-background="new 0 0 1000 1000" xml:space="preserve">
<metadata> Svg Vector Icons : http://www.onlinewebfonts.com/icon </metadata>
<g><g transform="translate(0.000000,511.000000) scale(0.100000,-0.100000)"><path d="M845.2,3684c-65.3-26.5-700.3-677.8-724.8-741.1c-14.3-38.8-20.4-775.8-20.4-2266.2c0-2117.2,2-2213.2,38.8-2280.5c59.2-110.3,145-149,351.2-159.2l179.7-8.2l8.2-677.8c8.2-732.9,12.3-767.7,122.5-902.4c114.3-136.8,36.8-130.7,1733.4-130.7H4071l102.1,49c196,93.9,420.6,379.7,500.2,643.1c36.7,118.4,40.8,191.9,40.8,871.8v743.2H5000h285.8v-749.3c2-543.1,8.2-794.2,28.6-904.5c55.1-304.2,171.5-516.5,328.7-606.4l81.7-47h1549.6c1527.2,0,1551.7,0,1637.4,42.9c155.2,73.5,263.4,232.8,355.3,518.6c42.9,128.6,49,191.9,57.2,645.2l8.2,504.3l177.6,8.2c206.2,10.2,292,49,351.2,159.2c36.8,67.4,38.8,163.3,38.8,2282.6c0,1847.7-4.1,2221.3-28.6,2276.5c-16.3,36.8-179.7,216.4-365.4,400.2l-336.9,334.8l-110.3,8.2c-194,14.3-316.5-110.3-296-306.3c8.2-98,16.3-106.2,287.9-379.8l277.7-277.7l-2-1674.2c0-1610.9-2.1-1670.1-36.8-1572.1c-47,140.9-108.2,234.8-214.4,332.8c-165.4,153.1-114.3,149-1841.6,142.9L5704.4-42l-83.7-44.9c-47-24.5-118.4-83.7-159.3-130.7c-73.5-85.7-155.2-269.5-155.2-345c0-38.8-16.3-40.8-304.2-40.8h-302.2l-36.7,93.9c-51,136.8-240.9,320.5-412.4,402.2L4111.9-42H2539.8H967.7l-96-55.1C786-150.2,732.9-221.7,686-358.5c-6.1-16.3-12.3,671.7-12.3,1531.2l-2,1561.9l257.3,255.2c140.9,140.9,269.5,279.7,285.8,310.3c65.3,126.6,12.3,308.3-112.3,373.6C1037.1,3706.5,910.5,3712.6,845.2,3684z M4062.9-650.4l69.4-47l6.1-963.7c4.1-922.8,2-967.8-34.7-1043.3c-22.5-42.9-65.3-106.2-93.9-142.9l-55.1-63.3H2599H1243.3V-1757v1153.5h1376.1h1374L4062.9-650.4z M8736.2-656.6c12.2-30.6,20.4-439,20.4-1018.8c0-914.7-2-971.8-40.8-1100.5l-42.9-134.7H7298.9H5922.8l-26.5,65.3c-22.5,53.1-28.6,300.1-34.7,1108.6c-2.1,573.7,0,1061.7,6.1,1088.2l10.2,44.9h1419h1419L8736.2-656.6z"/></g></g>
</svg>