<?xml version="1.0" encoding="utf-8"?>
<!-- Svg Vector Icons : http://www.onlinewebfonts.com/icon -->
<!DOCTYPE svg PUBLIC "-//W3C//DTD SVG 1.1//EN" "http://www.w3.org/Graphics/SVG/1.1/DTD/svg11.dtd">
<svg version="1.1" xmlns="http://www.w3.org/2000/svg" xmlns:xlink="http://www.w3.org/1999/xlink" x="0px" y="0px" viewBox="0 0 1000 1000" enable-background="new 0 0 1000 1000" xml:space="preserve">
<metadata> Svg Vector Icons : http://www.onlinewebfonts.com/icon </metadata>
<g><g><path d="M393.3,147.4c-15.4,50.8-19.7,104.9-12.2,159.3c22.4,161.4,150.7,289.8,311.7,312.3c17.3,2.4,34.8,3.7,52.1,3.7c36.7,0,72.6-5.3,106.9-15.8c-41.4,135.9-162.1,240.9-305.1,258.3c-15.6,1.9-31.3,2.9-46.7,2.9c-105.1,0-205.5-45.3-275.3-124.2c-70.7-80-102.4-183.3-89.4-290.8C152.8,309.9,257.6,188.9,393.3,147.4z M500,9.1c-22.2,0-44.9,1.5-67.7,4.6C214.8,43.1,40.3,220.1,13.8,438.3C-22.6,737,209.1,990.9,500,990.9c20.3,0,40.8-1.2,61.6-3.8C779.4,960.6,956,785.7,985.4,567.9c3.2-23.5,4.7-46.7,4.6-69.6c-0.1-35.8-29.6-59.7-61.1-59.7c-12.8,0-26,4-37.7,12.7C850.5,481.9,799.8,500,745,500c-11.6,0-23.3-0.8-35.2-2.5c-106.3-14.9-192.5-101.2-207.3-207.7c-9.5-68.4,9.2-132.3,46.1-181.8c25.4-40.3,1.6-98.7-46.9-98.9C501.1,9.1,500.6,9.1,500,9.1L500,9.1L500,9.1z"/></g></g>
</svg>