<?xml version="1.0" encoding="utf-8"?>
<!-- Svg Vector Icons : http://www.onlinewebfonts.com/icon -->
<!DOCTYPE svg PUBLIC "-//W3C//DTD SVG 1.1//EN" "http://www.w3.org/Graphics/SVG/1.1/DTD/svg11.dtd">
<svg version="1.1" xmlns="http://www.w3.org/2000/svg" xmlns:xlink="http://www.w3.org/1999/xlink" x="0px" y="0px" viewBox="0 0 1000 1000" enable-background="new 0 0 1000 1000" xml:space="preserve">
<metadata> Svg Vector Icons : http://www.onlinewebfonts.com/icon </metadata>
<g><path d="M194.3,518.6c9.6,160.5,142.8,287.7,305.7,287.7c72.7,0,139.4-25.3,191.9-67.6c-74.7-21.3-157.4-51.2-242.5-88.2C355.9,609.9,268.3,564.5,194.3,518.6z"/><path d="M215.5,386.4c76.4,51.9,176.2,105.5,282.7,151.8c83.4,36.2,166.7,66.1,240.9,86.4c12.4,3.4,24.6,6.5,36.3,9.3c3.2-6.6,6.2-13.4,9-20.3c14.1-35.1,21.8-73.5,21.8-113.6c0-6.2-0.2-12.4-0.6-18.6C796,320.9,662.9,193.7,500,193.7c-72.6,0-139.4,25.3-191.9,67.6c-35,28.2-63.7,63.9-83.6,104.7C221.3,372.7,218.3,379.5,215.5,386.4z"/><path d="M832.4,554.6c-2.4,22.1-4.5,26.1-11.3,47.3c32.3,23,59.4,45.4,78.7,65c6.3,6.4,11.2,11.9,15.1,16.7c-3.2,0.2-6.8,0.3-10.8,0.3c-41.9,0-103.4-10.5-173.2-29.6c-75.5-20.7-160.3-51.1-245-87.9c-112.8-49-218.5-106.3-297.7-161.4c-36.5-25.4-67-50.2-88.3-71.7c-6.3-6.4-11.2-11.9-15.1-16.7c3.2-0.2,6.8-0.3,10.8-0.3c29.3,0,68.2,5.2,112.8,14.8c11.1-19.1,13.4-24.3,28.1-41c-49.3-17.8-99.1-30.2-140.9-35.1c-46.7-5.4-77.2,10.6-84.2,32.8c-21.2,67.6,180.3,217.4,450.1,334.6C642.6,701,808.4,745,904.2,745c47,0,77.2-10.6,84.2-32.8C1000.6,673.5,942.1,622.5,832.4,554.6z"/></g>
</svg>