<?xml version="1.0" encoding="utf-8"?>
<!-- Svg Vector Icons : http://www.onlinewebfonts.com/icon -->
<!DOCTYPE svg PUBLIC "-//W3C//DTD SVG 1.1//EN" "http://www.w3.org/Graphics/SVG/1.1/DTD/svg11.dtd">
<svg version="1.1" xmlns="http://www.w3.org/2000/svg" xmlns:xlink="http://www.w3.org/1999/xlink" x="0px" y="0px" viewBox="0 0 1000 1000" enable-background="new 0 0 1000 1000" xml:space="preserve">
<metadata> Svg Vector Icons : http://www.onlinewebfonts.com/icon </metadata>
<g><g><path d="M965.9,757c13.3,0,24.1-10.8,24.1-24.1c0-270.2-219.8-490-490-490C229.8,243,10,462.8,10,733c0,13.3,10.8,24.1,24.1,24.1c13.3,0,24.1-10.8,24.1-24.1c0-243.6,198.2-441.8,441.8-441.8c243.6,0,441.8,198.2,441.8,441.8C941.8,746.3,952.6,757,965.9,757z"/><path d="M885.6,757c13.3,0,24.1-10.8,24.1-24.1c0-225.9-183.8-409.7-409.7-409.7C274.1,323.3,90.3,507.1,90.3,733c0,13.3,10.8,24.1,24.1,24.1c13.3,0,24.1-10.8,24.1-24.1c0-199.3,162.2-361.5,361.5-361.5c199.3,0,361.5,162.2,361.5,361.5C861.5,746.3,872.3,757,885.6,757z"/><path d="M809.3,757c13.3,0,24.1-10.8,24.1-24.1c0-183.8-149.5-333.4-333.4-333.4c-183.8,0-333.4,149.5-333.4,333.4c0,13.3,10.8,24.1,24.1,24.1s24.1-10.8,24.1-24.1c0-157.2,127.9-285.2,285.2-285.2c157.2,0,285.2,127.9,285.2,285.2C785.2,746.3,796,757,809.3,757z"/><path d="M500,478.7c-138.7,0-251.5,112.8-251.5,251.5c0,13.3,10.8,24.1,24.1,24.1c13.3,0,24.1-10.8,24.1-24.1c0-112.1,91.2-203.3,203.3-203.3c112.1,0,203.3,91.2,203.3,203.3c0,13.3,10.8,24.1,24.1,24.1s24.1-10.8,24.1-24.1C751.5,591.5,638.7,478.7,500,478.7z"/></g><g></g><g></g><g></g><g></g><g></g><g></g><g></g><g></g><g></g><g></g><g></g><g></g><g></g><g></g><g></g></g>
</svg>