<?xml version="1.0" encoding="utf-8"?>
<!-- Svg Vector Icons : http://www.onlinewebfonts.com/icon -->
<!DOCTYPE svg PUBLIC "-//W3C//DTD SVG 1.1//EN" "http://www.w3.org/Graphics/SVG/1.1/DTD/svg11.dtd">
<svg version="1.1" xmlns="http://www.w3.org/2000/svg" xmlns:xlink="http://www.w3.org/1999/xlink" x="0px" y="0px" viewBox="0 0 1000 1000" enable-background="new 0 0 1000 1000" xml:space="preserve">
<metadata> Svg Vector Icons : http://www.onlinewebfonts.com/icon </metadata>
<g><g><path d="M799.6,501.8L568.7,368L685.1,88.6c3.6-7.3,5.6-15.5,5.6-24.2c0-30.1-24.2-54.4-54.3-54.4c-13.6,0.2-24.9,4.5-33.9,11.7c-1.8,1.4-2.9,2.3-3.8,3.3L190.4,411.5c-12.5,11.8-18.6,28.8-16.7,45.8c2,17,11.9,32.2,26.7,40.8l231,133.9L313.6,914.6c-10,23.7-1.9,51.2,19.3,65.8c9.4,6.4,20.3,9.6,30.9,9.6c13.5,0,27-5.1,37.5-14.9l408.3-386.7c12.5-11.8,18.6-28.8,16.7-45.8S814.4,510.4,799.6,501.8z"/></g><g></g><g></g><g></g><g></g><g></g><g></g><g></g><g></g><g></g><g></g><g></g><g></g><g></g><g></g><g></g></g>
</svg>