<?xml version="1.0" encoding="utf-8"?>
<!-- Svg Vector Icons : http://www.onlinewebfonts.com/icon -->
<!DOCTYPE svg PUBLIC "-//W3C//DTD SVG 1.1//EN" "http://www.w3.org/Graphics/SVG/1.1/DTD/svg11.dtd">
<svg version="1.1" xmlns="http://www.w3.org/2000/svg" xmlns:xlink="http://www.w3.org/1999/xlink" x="0px" y="0px" viewBox="0 0 1000 1000" enable-background="new 0 0 1000 1000" xml:space="preserve">
<metadata> Svg Vector Icons : http://www.onlinewebfonts.com/icon </metadata>
<g><g transform="translate(0.000000,512.000000) scale(0.100000,-0.100000)"><path d="M4532.5,5004.3c-1148.7-117.4-2178.1-606.1-2993.9-1420C645.8,2689.6,151.3,1556.3,103.2,292.1C60.9-875.8,436.1-2016.8,1175-2950c161.6-203.9,584.9-623.4,788.9-783.1c721.5-558,1506.6-887,2434-1019.8c227-32.7,985.2-32.7,1212.2,0c935.1,134.7,1749,479.1,2462.9,1042.9c198.2,155.8,604.2,561.8,760,760c565.7,715.8,919.7,1552.8,1042.9,2472.5c36.6,277.1,30.8,998.6-11.6,1269.9c-92.4,602.2-244.3,1077.5-509.9,1587.4c-244.3,471.4-498.3,815.8-896.6,1214.1c-752.3,752.3-1677.8,1216-2761.1,1383.4C5456.1,5013.9,4778.8,5031.2,4532.5,5004.3z M5523.5,4380.9c1749-215.5,3199.8-1487.3,3638.5-3192.1c152-588.8,173.2-1306.5,53.9-1901C9010-1741.7,8423.1-2682.5,7593.8-3306c-800.4-600.3-1733.6-894.7-2734.2-860.1c-1066,36.6-2035.7,440.6-2807.3,1169.9C782.4-1793.6,366.8,80.5,1011.4,1696.8c586.9,1473.9,1945.3,2516.7,3511.5,2691.8C4765.4,4415.5,5267.6,4411.7,5523.5,4380.9z"/><path d="M3060.6,2637.6c-577.2-167.4-810.1-242.4-842.8-273.2c-182.8-169.3-103.9-450.2,140.5-502.2c42.3-9.6,271.3,50,865.9,219.4c752.3,217.4,812,236.7,873.5,298.2c57.7,57.7,67.3,80.8,73.1,177c5.8,88.5,0,125.1-32.7,175.1c-40.4,65.4-169.3,138.5-240.5,136.6C3876.4,2868.5,3499.3,2764.6,3060.6,2637.6z"/><path d="M5991,2832c-107.7-48.1-159.7-134.7-159.7-265.5c0-90.4,7.7-109.7,73.1-177c71.2-75,78.9-78.9,879.3-307.9c852.4-244.4,860.1-246.3,983.2-171.3c163.6,98.1,161.6,365.6-1.9,471.4c-50,32.7-1604.7,488.7-1662.4,488.7C6085.3,2870.5,6035.3,2853.1,5991,2832z"/><path d="M2989.4,1296.5c-479.1-171.3-606.1-885.1-223.2-1266.1C2900.9-104.2,3176-187,3176-92.7c0,21.2,25,65.4,53.9,98.1c44.3,50,69.3,61.6,136.6,61.6c44.3,0,90.4-9.6,103.9-23.1c59.6-59.6,144.3,19.2,240.5,225.1c46.2,98.1,52,130.8,52,321.3c-1.9,255.9-42.3,379.1-177,529.1C3420.4,1302.3,3195.3,1369.6,2989.4,1296.5z"/><path d="M6735.7,1306.2c-446.4-125.1-627.3-742.7-342.5-1169.9c42.3-61.6,82.7-113.5,90.4-113.5c7.7,0,42.3,13.5,77,30.8c40.4,19.2,84.7,26.9,125.1,19.2c69.3-13.5,157.8-96.2,169.3-155.9c9.6-61.6,100.1-59.6,238.6,9.6C7234-4.2,7324.5,94,7403.3,265.2c48.1,102,53.9,132.8,53.9,325.2c-1.9,259.8-42.3,381-184.7,536.8C7126.3,1286.9,6918.5,1356.2,6735.7,1306.2z"/><path d="M5082.9-710.3c-673.4-71.2-1343-440.6-1966.5-1089c-265.5-275.2-313.6-354-302.1-504.1c9.6-134.7,65.4-223.2,177-273.2c175.1-78.9,311.7-30.8,467.6,161.6c286.7,354,725.4,683.1,1131.4,850.5c635,263.6,1304.6,163.5,1906.8-284.8c128.9-96.2,458-413.7,656.1-633c71.2-78.9,119.3-115.4,177-130.8c205.9-55.8,404.1,82.7,421.4,294.4c11.6,134.7-15.4,184.7-229,429.1C6776.1-1031.6,5929.5-623.8,5082.9-710.3z"/></g></g>
</svg>