<?xml version="1.0" encoding="utf-8"?>
<!-- Svg Vector Icons : http://www.onlinewebfonts.com/icon -->
<!DOCTYPE svg PUBLIC "-//W3C//DTD SVG 1.1//EN" "http://www.w3.org/Graphics/SVG/1.1/DTD/svg11.dtd">
<svg version="1.1" xmlns="http://www.w3.org/2000/svg" xmlns:xlink="http://www.w3.org/1999/xlink" x="0px" y="0px" viewBox="0 0 1000 1000" enable-background="new 0 0 1000 1000" xml:space="preserve">
<metadata> Svg Vector Icons : http://www.onlinewebfonts.com/icon </metadata>
<g><g><g><path d="M689,322.3c-3.1,0-6.2,0.2-9.3,0.2c-9.6-25.4-24.8-49.5-45.7-71.4c-62.9-66-168.8-105.4-283.4-105.4C162.8,145.8,10,257.4,10,394.6c0,98.4,77.3,185.8,198.5,226.2c-15.4,62.3-28.6,85.6-33.5,89c-14.7,7.4-12.6,20-12,22.5c0.8,3.5,4.8,14.8,21.1,14.8c22.6,0,159.3-29.1,200.7-105c10.4-0.7,20.7-1.9,30.7-3.3c43.5,68.9,134.4,115.3,242,123.3c37.5,66.5,157.5,92.2,177.4,92.2l0,0c16.4,0,20.1-12.2,20.7-14.7c0.6-2.5,2.7-15-11.1-21.9c-4.3-3.4-15.4-23.4-28.3-74.9C922.4,706.7,990,629.6,990,542.8C990,421.2,854.9,322.3,689,322.3z M184.1,728.9l-0.1-18.2c0,0,0.1,0,0.1,0V728.9z M835,817.8L835,817.8V836V817.8z M372.2,606.4c-7.1,0.4-13.4,4.8-16,11.4c-17.8,44.3-89.8,73.5-135.9,86c8.2-18.9,17.6-47.6,27.6-91.2c2.2-9.4-3.4-18.8-12.7-21.5C120.5,557.9,46.4,480.9,46.4,394.6c0-117.1,136.5-212.4,304.3-212.4c104.8,0,200.9,35.2,257,94.1c33,34.6,49.3,75.2,47.3,117.4C649.5,507.3,527.9,598.8,372.2,606.4z M789.6,712.9c-9.3,2.7-14.9,12.1-12.7,21.5c8.1,35.3,15.6,59.4,22.5,76.2c-39.9-11.4-98.4-36.1-113.1-72.9c-2.7-6.6-8.9-11-16-11.4c-92.6-4.5-171.8-39.4-214-92.7c140-32.1,238.9-130.3,238.9-241c0-11.3-1.1-22.6-3.2-33.9c144.5,1.1,261.6,83.2,261.6,184C953.6,617.4,889.2,684.2,789.6,712.9z"/></g></g><g></g><g></g><g></g><g></g><g></g><g></g><g></g><g></g><g></g><g></g><g></g><g></g><g></g><g></g><g></g></g>
</svg>